<svg width="135" height="40" viewBox="0 0 135 40" fill="none" xmlns="http://www.w3.org/2000/svg">
<path d="M130.2 40H4.73C2.12 40 0 37.87 0 35.27V4.73C0 2.12 2.12 0 4.73 0H130.2C132.81 0 135 2.12 135 4.73V35.27C135 37.87 132.8 40 130.2 40Z" fill="#A6A6A6"/>
<path d="M134.03 35.2696C134.03 37.3896 132.32 39.0996 130.2 39.0996H4.73014C2.61014 39.0996 0.890137 37.3896 0.890137 35.2696V4.72965C0.890137 2.60965 2.61014 0.889648 4.73014 0.889648H130.2C132.32 0.889648 134.03 2.60965 134.03 4.72965V35.2696Z" fill="black"/>
<path d="M30.1302 19.7798C30.1002 16.5598 32.7702 14.9898 32.8902 14.9198C31.3802 12.7198 29.0402 12.4198 28.2102 12.3898C26.2402 12.1798 24.3302 13.5698 23.3302 13.5698C22.3102 13.5698 20.7702 12.4098 19.1002 12.4498C16.9602 12.4798 14.9602 13.7198 13.8602 15.6498C11.5902 19.5698 13.2802 25.3398 15.4502 28.5098C16.5402 30.0598 17.8102 31.7998 19.4702 31.7398C21.0902 31.6698 21.7002 30.6998 23.6602 30.6998C25.6002 30.6998 26.1702 31.7398 27.8702 31.6998C29.6102 31.6698 30.7102 30.1398 31.7602 28.5698C33.0102 26.7898 33.5202 25.0398 33.5402 24.9498C33.5102 24.9198 30.1602 23.6498 30.1302 19.7798Z" fill="white"/>
<path d="M26.9301 10.3097C27.8001 9.21973 28.4001 7.72973 28.2401 6.21973C26.9801 6.27973 25.3901 7.09973 24.4801 8.15973C23.6701 9.09973 22.9501 10.6497 23.1401 12.0997C24.5601 12.2097 26.0201 11.3797 26.9301 10.3097Z" fill="white"/>
<path d="M53.6499 31.5004H51.3799L50.1399 27.5904H45.8199L44.6299 31.5004H42.4199L46.6999 18.1904H49.3499L53.6499 31.5004ZM49.7499 25.9604L48.6299 22.4904C48.5099 22.1304 48.2899 21.3004 47.9599 19.9804H47.9199C47.7899 20.5504 47.5799 21.3804 47.2899 22.4904L46.1899 25.9604H49.7499Z" fill="white"/>
<path d="M64.6599 26.59C64.6599 28.22 64.2199 29.51 63.3399 30.46C62.5499 31.3 61.5699 31.72 60.3999 31.72C59.1399 31.72 58.2299 31.27 57.6699 30.36H57.6299V35.41H55.4999V25.07C55.4999 24.04 55.4699 22.99 55.4199 21.91H57.2999L57.4199 23.43H57.4599C58.1699 22.28 59.2499 21.71 60.6999 21.71C61.8299 21.71 62.7799 22.16 63.5299 23.05C64.2799 23.95 64.6599 25.13 64.6599 26.59ZM62.4899 26.67C62.4899 25.74 62.2799 24.97 61.8599 24.36C61.3999 23.73 60.7799 23.41 59.9999 23.41C59.4699 23.41 58.9999 23.59 58.5699 23.93C58.1399 24.28 57.8599 24.74 57.7299 25.3C57.6599 25.56 57.6299 25.78 57.6299 25.95V27.55C57.6299 28.25 57.8399 28.84 58.2699 29.32C58.6999 29.8 59.2499 30.04 59.9399 30.04C60.7399 30.04 61.3699 29.73 61.8199 29.11C62.2699 28.5 62.4899 27.68 62.4899 26.67Z" fill="white"/>
<path d="M75.6997 26.59C75.6997 28.22 75.2597 29.51 74.3797 30.46C73.5897 31.3 72.6097 31.72 71.4397 31.72C70.1797 31.72 69.2697 31.27 68.7197 30.36H68.6797V35.41H66.5497V25.07C66.5497 24.04 66.5197 22.99 66.4697 21.91H68.3497L68.4697 23.43H68.5097C69.2197 22.28 70.2997 21.71 71.7497 21.71C72.8797 21.71 73.8297 22.16 74.5797 23.05C75.3197 23.95 75.6997 25.13 75.6997 26.59ZM73.5297 26.67C73.5297 25.74 73.3197 24.97 72.8997 24.36C72.4397 23.73 71.8197 23.41 71.0397 23.41C70.5097 23.41 70.0397 23.59 69.6097 23.93C69.1797 24.28 68.8997 24.74 68.7697 25.3C68.6997 25.56 68.6697 25.78 68.6697 25.95V27.55C68.6697 28.25 68.8797 28.84 69.3097 29.32C69.7397 29.8 70.2897 30.04 70.9797 30.04C71.7797 30.04 72.4097 29.73 72.8597 29.11C73.2997 28.5 73.5297 27.68 73.5297 26.67Z" fill="white"/>
<path d="M88.04 27.77C88.04 28.9 87.65 29.82 86.86 30.53C85.99 31.31 84.79 31.7 83.24 31.7C81.81 31.7 80.66 31.42 79.79 30.87L80.28 29.09C81.22 29.66 82.24 29.94 83.36 29.94C84.16 29.94 84.79 29.76 85.24 29.4C85.69 29.04 85.91 28.55 85.91 27.95C85.91 27.41 85.73 26.95 85.36 26.59C84.99 26.22 84.38 25.88 83.52 25.56C81.19 24.69 80.03 23.42 80.03 21.74C80.03 20.65 80.44 19.75 81.25 19.05C82.06 18.35 83.15 18 84.51 18C85.72 18 86.73 18.21 87.53 18.63L87 20.37C86.25 19.96 85.4 19.76 84.45 19.76C83.7 19.76 83.11 19.94 82.69 20.31C82.34 20.64 82.16 21.04 82.16 21.52C82.16 22.05 82.36 22.48 82.77 22.82C83.13 23.14 83.77 23.48 84.71 23.85C85.86 24.31 86.7 24.85 87.24 25.47C87.77 26.08 88.04 26.85 88.04 27.77Z" fill="white"/>
<path d="M95.09 23.5095H92.74V28.1695C92.74 29.3495 93.15 29.9495 93.98 29.9495C94.36 29.9495 94.68 29.9195 94.93 29.8495L94.99 31.4695C94.57 31.6295 94.02 31.7095 93.33 31.7095C92.49 31.7095 91.83 31.4495 91.36 30.9395C90.89 30.4295 90.65 29.5595 90.65 28.3495V23.5095H89.25V21.9095H90.65V20.1495L92.74 19.5195V21.9095H95.09V23.5095Z" fill="white"/>
<path d="M105.69 26.6297C105.69 28.0997 105.27 29.3197 104.43 30.2597C103.55 31.2297 102.37 31.7197 100.91 31.7197C99.5 31.7197 98.38 31.2497 97.54 30.3197C96.7 29.3897 96.29 28.2097 96.29 26.7897C96.29 25.2997 96.72 24.0897 97.58 23.1397C98.44 22.1897 99.6 21.7197 101.06 21.7197C102.47 21.7197 103.6 22.1897 104.46 23.1197C105.28 24.0197 105.69 25.1897 105.69 26.6297ZM103.48 26.6997C103.48 25.8197 103.29 25.0597 102.91 24.4197C102.46 23.6497 101.82 23.2697 101 23.2697C100.14 23.2697 99.49 23.6497 99.04 24.4197C98.66 25.0497 98.47 25.8297 98.47 26.7397C98.47 27.6197 98.66 28.3797 99.04 29.0197C99.5 29.7897 100.14 30.1697 100.98 30.1697C101.79 30.1697 102.43 29.7797 102.89 28.9997C103.28 28.3497 103.48 27.5797 103.48 26.6997Z" fill="white"/>
<path d="M112.62 23.7797C112.41 23.7397 112.18 23.7197 111.95 23.7197C111.2 23.7197 110.62 23.9997 110.21 24.5697C109.85 25.0697 109.68 25.6997 109.68 26.4597V31.4997H107.55L107.57 24.9297C107.57 23.8197 107.54 22.8197 107.49 21.9097H109.35L109.43 23.7497H109.49C109.72 23.1197 110.07 22.6097 110.56 22.2297C111.03 21.8897 111.55 21.7197 112.1 21.7197C112.3 21.7197 112.48 21.7297 112.63 21.7597V23.7797H112.62Z" fill="white"/>
<path d="M122.16 26.2502C122.16 26.6302 122.13 26.9502 122.08 27.2202H115.68C115.71 28.1702 116.01 28.8902 116.61 29.3902C117.15 29.8402 117.85 30.0602 118.7 30.0602C119.65 30.0602 120.51 29.9102 121.29 29.6102L121.62 31.0902C120.71 31.4902 119.64 31.6802 118.4 31.6802C116.91 31.6802 115.74 31.2402 114.89 30.3702C114.04 29.4902 113.62 28.3202 113.62 26.8502C113.62 25.4002 114.02 24.2002 114.81 23.2402C115.64 22.2102 116.76 21.7002 118.16 21.7002C119.54 21.7002 120.59 22.2102 121.3 23.2402C121.87 24.0502 122.16 25.0502 122.16 26.2502ZM120.12 25.7002C120.13 25.0702 120 24.5202 119.71 24.0602C119.34 23.4702 118.77 23.1702 118.01 23.1702C117.31 23.1702 116.75 23.4602 116.31 24.0402C115.96 24.5002 115.74 25.0502 115.68 25.7002H120.12Z" fill="white"/>
<path d="M43.4202 7.27004C43.6502 7.13004 43.9002 7.02004 44.1902 6.93004C44.4802 6.84004 44.8102 6.79004 45.2002 6.79004C45.8302 6.79004 46.3202 6.94004 46.6802 7.24004C47.0402 7.54004 47.2202 7.94004 47.2202 8.44004C47.2202 8.84004 47.1002 9.18004 46.8602 9.45004C46.6202 9.72004 46.3102 9.90004 45.9302 9.99004V10.02C46.1402 10.05 46.3302 10.11 46.5202 10.19C46.7002 10.27 46.8702 10.38 47.0002 10.52C47.1402 10.66 47.2502 10.81 47.3302 11C47.4102 11.18 47.4502 11.38 47.4502 11.6C47.4502 11.96 47.3802 12.27 47.2302 12.51C47.0802 12.76 46.8902 12.96 46.6602 13.11C46.4202 13.27 46.1602 13.38 45.8702 13.44C45.5802 13.51 45.2902 13.54 45.0002 13.54C44.6902 13.54 44.3802 13.51 44.0802 13.44C43.7802 13.38 43.5002 13.27 43.2402 13.12L43.5002 12.31C43.6702 12.39 43.8902 12.48 44.1502 12.55C44.4102 12.63 44.6802 12.67 44.9502 12.67C45.4002 12.67 45.7402 12.57 45.9802 12.37C46.2202 12.17 46.3402 11.9 46.3402 11.56C46.3402 11.33 46.2902 11.15 46.1902 11C46.0902 10.85 45.9702 10.74 45.8102 10.65C45.6602 10.57 45.4802 10.51 45.2902 10.48C45.1002 10.45 44.9102 10.43 44.7202 10.43H44.2802V9.63004H44.7202C44.9202 9.63004 45.1102 9.61004 45.2802 9.55004C45.4502 9.50004 45.6002 9.43004 45.7302 9.33004C45.8602 9.24004 45.9602 9.12004 46.0302 8.99004C46.1002 8.86004 46.1402 8.72004 46.1402 8.55004C46.1402 8.26004 46.0402 8.03004 45.8302 7.87004C45.6202 7.71004 45.3402 7.62004 45.0002 7.62004C44.7602 7.62004 44.5202 7.66004 44.2802 7.74004C44.0402 7.82004 43.8302 7.90004 43.6402 7.99004L43.4202 7.27004Z" fill="white"/>
<path d="M51.7501 13.4301L51.6701 12.8901H51.6401C51.3201 13.3201 50.8701 13.5401 50.2601 13.5401C50.0501 13.5401 49.8501 13.5001 49.6801 13.4301C49.5101 13.3601 49.3501 13.2601 49.2201 13.1401C49.0901 13.0201 48.9901 12.8701 48.9201 12.7001C48.8501 12.5301 48.8101 12.3501 48.8101 12.1501C48.8101 11.5601 49.0501 11.1201 49.5301 10.8301C50.0101 10.5401 50.6901 10.3901 51.5701 10.3901V10.3001C51.5701 9.68012 51.2401 9.37012 50.5901 9.37012C50.1301 9.37012 49.7101 9.49012 49.3601 9.72012L49.1501 9.03012C49.5801 8.76012 50.1201 8.62012 50.7701 8.62012C52.0001 8.62012 52.6201 9.27012 52.6201 10.5701V12.3101C52.6201 12.7901 52.6401 13.1701 52.6901 13.4301H51.7501ZM51.6101 11.0901C51.0201 11.0901 50.5901 11.1601 50.3001 11.3101C50.0101 11.4601 49.8701 11.7001 49.8701 12.0401C49.8701 12.2901 49.9401 12.4701 50.0701 12.5901C50.2001 12.7101 50.3801 12.7701 50.5801 12.7701C50.7201 12.7701 50.8401 12.7501 50.9701 12.7001C51.0901 12.6501 51.2001 12.5801 51.2901 12.5001C51.3801 12.4201 51.4601 12.3101 51.5201 12.1901C51.5801 12.0701 51.6101 11.9401 51.6101 11.8101V11.0901Z" fill="white"/>
<path d="M57.6804 8.71973V9.57973H55.7204V13.4297H54.6704V8.71973H57.6804Z" fill="white"/>
<path d="M63.6804 11.0199C63.6804 11.3999 63.6304 11.7399 63.5204 12.0499C63.4204 12.3599 63.2704 12.6299 63.0904 12.8399C62.9104 13.0599 62.6904 13.2299 62.4304 13.3499C62.1704 13.4699 61.8904 13.5399 61.5804 13.5399C60.9604 13.5399 60.5104 13.3199 60.2404 12.8699H60.2204V15.3499H59.1704V10.2699C59.1704 10.0199 59.1704 9.75988 59.1604 9.50988C59.1504 9.25988 59.1404 8.98988 59.1304 8.71988H60.0504L60.1104 9.46988H60.1304C60.4804 8.90988 61.0104 8.62988 61.7204 8.62988C62.0004 8.62988 62.2604 8.68988 62.4904 8.79988C62.7304 8.91988 62.9304 9.07988 63.1104 9.28988C63.2804 9.49988 63.4204 9.74988 63.5204 10.0499C63.6304 10.3399 63.6804 10.6599 63.6804 11.0199ZM62.6104 11.0599C62.6104 10.8299 62.5804 10.6099 62.5304 10.4199C62.4804 10.2199 62.3904 10.0499 62.2904 9.91988C62.1804 9.77988 62.0504 9.66988 61.9004 9.58988C61.7504 9.50988 61.5804 9.46988 61.3904 9.46988C61.2404 9.46988 61.1004 9.49988 60.9504 9.56988C60.8104 9.62988 60.6804 9.71988 60.5804 9.82988C60.4704 9.93988 60.3904 10.0699 60.3204 10.2299C60.2604 10.3899 60.2204 10.5499 60.2204 10.7299V11.5199C60.2204 11.6899 60.2504 11.8599 60.3004 11.9999C60.3504 12.1499 60.4304 12.2799 60.5304 12.3899C60.6304 12.4999 60.7504 12.5899 60.8904 12.6499C61.0304 12.7099 61.1804 12.7399 61.3504 12.7399C61.7504 12.7399 62.0504 12.5899 62.2704 12.2899C62.5004 11.9599 62.6104 11.5599 62.6104 11.0599Z" fill="white"/>
<path d="M69.3003 8.71973L68.1103 11.9897C67.8303 12.7697 67.5503 13.3997 67.2803 13.8997C67.0103 14.3997 66.7503 14.7497 66.5103 14.9797C66.1503 15.2997 65.7603 15.4997 65.3503 15.5697L65.1003 14.6897C65.3703 14.6197 65.6303 14.4797 65.8803 14.2697C66.1303 14.0597 66.3203 13.8097 66.4703 13.4897C66.5203 13.3897 66.5503 13.3197 66.5503 13.2797C66.5503 13.2397 66.5303 13.1697 66.4903 13.0597L64.7803 8.71973H65.9303L66.8203 11.3497C66.8703 11.4697 66.9103 11.6097 66.9603 11.7697C67.0103 11.9197 67.0503 12.0997 67.1103 12.2797H67.1303C67.1603 12.1797 67.2003 12.0497 67.2403 11.8897C67.2803 11.7297 67.3303 11.5497 67.4003 11.3397L68.2003 8.71973H69.3003Z" fill="white"/>
<path d="M71.12 10.6799H71.6C71.95 10.6799 72.23 10.6199 72.42 10.4899C72.61 10.3599 72.71 10.1999 72.71 10.0099C72.71 9.81988 72.63 9.65988 72.46 9.54988C72.3 9.42988 72.07 9.37988 71.78 9.37988C71.59 9.37988 71.4 9.40988 71.21 9.46988C71.02 9.52988 70.84 9.60988 70.68 9.69988L70.41 9.01988C70.68 8.86988 70.95 8.76988 71.22 8.70988C71.49 8.64988 71.76 8.62988 72.03 8.62988C72.24 8.62988 72.46 8.64988 72.68 8.68988C72.89 8.72988 73.09 8.79988 73.26 8.89988C73.43 8.99988 73.57 9.12988 73.67 9.28988C73.78 9.44988 73.83 9.64988 73.83 9.88988C73.83 10.0399 73.8 10.1699 73.74 10.2799C73.68 10.3899 73.61 10.4899 73.51 10.5799C73.41 10.6699 73.3 10.7399 73.19 10.7899C73.07 10.8499 72.95 10.8899 72.83 10.9099V10.9399C72.98 10.9599 73.13 10.9999 73.28 11.0599C73.43 11.1199 73.56 11.1899 73.67 11.2899C73.79 11.3799 73.88 11.4999 73.95 11.6299C74.02 11.7599 74.05 11.9099 74.05 12.0799C74.05 12.3599 73.98 12.5899 73.85 12.7799C73.72 12.9699 73.54 13.1199 73.33 13.2299C73.12 13.3399 72.89 13.4199 72.64 13.4699C72.39 13.5199 72.14 13.5399 71.9 13.5399C71.61 13.5399 71.32 13.5099 71.04 13.4499C70.75 13.3899 70.5 13.2899 70.27 13.1599L70.54 12.4699C70.71 12.5599 70.9 12.6399 71.12 12.6999C71.34 12.7599 71.56 12.7899 71.78 12.7899C72.14 12.7899 72.41 12.7199 72.6 12.5799C72.79 12.4399 72.89 12.2699 72.89 12.0599C72.89 11.9199 72.86 11.8099 72.79 11.7199C72.72 11.6299 72.63 11.5499 72.52 11.4899C72.4 11.4299 72.27 11.3899 72.11 11.3699C71.96 11.3499 71.79 11.3399 71.61 11.3399H71.12V10.6799Z" fill="white"/>
<path d="M76.7104 8.71973V10.3897C76.7104 10.7697 76.7005 11.1097 76.6905 11.4197C76.6805 11.7197 76.6604 12.0397 76.6404 12.3797L76.6605 12.3997C76.7805 12.1497 76.9004 11.9097 77.0204 11.6797C77.1404 11.4397 77.2604 11.1997 77.3904 10.9597L78.5505 8.72973H79.9105V13.4397H78.9204V11.7697C78.9204 11.4197 78.9304 11.0697 78.9504 10.7197C78.9704 10.3697 78.9805 10.0197 79.0005 9.65973H78.9504C78.8404 9.94973 78.7305 10.1997 78.6205 10.4197C78.5105 10.6297 78.4005 10.8497 78.2905 11.0797C78.0905 11.4697 77.8905 11.8597 77.6905 12.2397C77.4905 12.6297 77.2804 13.0297 77.0704 13.4297H75.7104V8.71973H76.7104Z" fill="white"/>
<path d="M85.4503 8.71973V9.57973H84.0103V13.4297H82.9803V9.57973H81.5503V8.71973H85.4503Z" fill="white"/>
<path d="M90.7903 10.8501C90.7903 10.9401 90.7903 11.0301 90.7803 11.1101C90.7703 11.1901 90.7603 11.2601 90.7503 11.3301H87.6103C87.6203 11.7801 87.7603 12.1201 88.0303 12.3601C88.3003 12.6001 88.6503 12.7201 89.0903 12.7201C89.5503 12.7201 89.9703 12.6501 90.3603 12.5001L90.5203 13.2301C90.0703 13.4201 89.5503 13.5201 88.9403 13.5201C88.5703 13.5201 88.2403 13.4601 87.9503 13.3501C87.6603 13.2401 87.4103 13.0801 87.2103 12.8701C87.0103 12.6601 86.8603 12.4101 86.7503 12.1201C86.6503 11.8301 86.5903 11.5001 86.5903 11.1401C86.5903 10.7801 86.6403 10.4401 86.7503 10.1401C86.8603 9.83012 87.0103 9.57012 87.2003 9.34012C87.3903 9.11012 87.6303 8.94012 87.9003 8.81012C88.1703 8.68012 88.4803 8.62012 88.8203 8.62012C89.1203 8.62012 89.3903 8.67012 89.6303 8.78012C89.8703 8.89012 90.0803 9.04012 90.2503 9.24012C90.4203 9.44012 90.5503 9.67012 90.6403 9.95012C90.7403 10.2101 90.7903 10.5201 90.7903 10.8501ZM89.7903 10.5801C89.7903 10.2101 89.7003 9.91012 89.5203 9.68012C89.3403 9.45012 89.0803 9.33012 88.7503 9.33012C88.4503 9.33012 88.1903 9.45012 87.9703 9.68012C87.7603 9.91012 87.6303 10.2101 87.6003 10.5701H89.7903V10.5801Z" fill="white"/>
<path d="M95.0103 8.76039C95.2003 8.73039 95.4403 8.70039 95.7303 8.68039C96.0203 8.66039 96.3203 8.65039 96.6203 8.65039C96.8103 8.65039 97.0302 8.66039 97.2702 8.68039C97.5102 8.70039 97.7503 8.75039 97.9603 8.83039C98.1803 8.91039 98.3603 9.03039 98.5103 9.19039C98.6603 9.35039 98.7402 9.57039 98.7402 9.85039C98.7402 9.99039 98.7103 10.1204 98.6603 10.2304C98.6103 10.3404 98.5402 10.4404 98.4502 10.5304C98.3602 10.6104 98.2603 10.6804 98.1503 10.7404C98.0403 10.8004 97.9203 10.8404 97.8003 10.8604L97.8102 10.8904C98.1502 10.9504 98.4303 11.0704 98.6403 11.2604C98.8503 11.4504 98.9603 11.7104 98.9603 12.0404C98.9603 12.3704 98.8703 12.6304 98.6903 12.8304C98.5103 13.0204 98.2902 13.1704 98.0202 13.2704C97.7502 13.3704 97.4803 13.4304 97.1803 13.4504C96.8903 13.4704 96.6203 13.4904 96.3903 13.4904C96.1303 13.4904 95.8802 13.4804 95.6302 13.4704C95.3802 13.4604 95.1703 13.4404 95.0103 13.4304V8.76039ZM96.0202 10.6404H96.5503C96.7103 10.6404 96.8703 10.6304 97.0103 10.6104C97.1603 10.5904 97.2803 10.5504 97.3903 10.5004C97.5003 10.4504 97.5903 10.3904 97.6503 10.3104C97.7103 10.2304 97.7402 10.1304 97.7402 10.0104C97.7402 9.80039 97.6503 9.64039 97.4703 9.54039C97.2903 9.44039 97.0102 9.39039 96.6302 9.39039C96.5202 9.39039 96.4202 9.39039 96.3402 9.40039C96.2602 9.41039 96.1503 9.42039 96.0103 9.43039V10.6404H96.0202ZM96.0202 12.7304C96.1502 12.7404 96.2602 12.7504 96.3402 12.7604C96.4302 12.7704 96.5303 12.7704 96.6503 12.7704C96.7903 12.7704 96.9402 12.7604 97.0902 12.7404C97.2402 12.7204 97.3803 12.6804 97.5003 12.6304C97.6203 12.5804 97.7203 12.5004 97.7903 12.4104C97.8603 12.3204 97.9003 12.1904 97.9003 12.0404C97.9003 11.7704 97.7803 11.5804 97.5403 11.4804C97.3003 11.3804 96.9803 11.3304 96.5703 11.3304H96.0202V12.7304Z" fill="white"/>
</svg>
