<svg width="155" height="60" viewBox="0 0 155 60" fill="none" xmlns="http://www.w3.org/2000/svg">
<path d="M140 50H15C12.25 50 10 47.75 10 45V15C10 12.25 12.25 10 15 10H140C142.75 10 145 12.25 145 15V45C145 47.75 142.75 50 140 50Z" fill="black"/>
<path d="M140 10.8C142.32 10.8 144.2 12.68 144.2 15V45C144.2 47.32 142.32 49.2 140 49.2H15C12.68 49.2 10.8 47.32 10.8 45V15C10.8 12.68 12.68 10.8 15 10.8H140ZM140 10H15C12.25 10 10 12.25 10 15V45C10 47.75 12.25 50 15 50H140C142.75 50 145 47.75 145 45V15C145 12.25 142.75 10 140 10Z" fill="#A6A6A6"/>
<path d="M78.1398 31.7498C75.7898 31.7498 73.8698 33.5398 73.8698 35.9998C73.8698 38.4498 75.7898 40.2498 78.1398 40.2498C80.4898 40.2498 82.4098 38.4498 82.4098 35.9998C82.3998 33.5398 80.4898 31.7498 78.1398 31.7498ZM78.1398 38.5798C76.8498 38.5798 75.7398 37.5198 75.7398 35.9998C75.7398 34.4698 76.8498 33.4198 78.1398 33.4198C79.4298 33.4198 80.5398 34.4698 80.5398 35.9998C80.5398 37.5198 79.4198 38.5798 78.1398 38.5798ZM68.8198 31.7498C66.4698 31.7498 64.5498 33.5398 64.5498 35.9998C64.5498 38.4498 66.4698 40.2498 68.8198 40.2498C71.1698 40.2498 73.0898 38.4498 73.0898 35.9998C73.0898 33.5398 71.1698 31.7498 68.8198 31.7498ZM68.8198 38.5798C67.5298 38.5798 66.4198 37.5198 66.4198 35.9998C66.4198 34.4698 67.5298 33.4198 68.8198 33.4198C70.1098 33.4198 71.2198 34.4698 71.2198 35.9998C71.2198 37.5198 70.1098 38.5798 68.8198 38.5798ZM57.7398 33.0598V34.8598H62.0598C61.9298 35.8698 61.5898 36.6198 61.0798 37.1298C60.4498 37.7598 59.4698 38.4498 57.7398 38.4498C55.0798 38.4498 52.9998 36.3098 52.9998 33.6498C52.9998 30.9898 55.0798 28.8498 57.7398 28.8498C59.1698 28.8498 60.2198 29.4098 60.9898 30.1398L62.2598 28.8698C61.1798 27.8398 59.7498 27.0498 57.7298 27.0498C54.0898 27.0498 51.0298 30.0098 51.0298 33.6598C51.0298 37.2998 54.0898 40.2598 57.7298 40.2598C59.6898 40.2598 61.1798 39.6098 62.3398 38.4098C63.5298 37.2198 63.8998 35.5398 63.8998 34.1898C63.8998 33.7698 63.8698 33.3798 63.7998 33.0598H57.7398ZM103.05 34.4598C102.7 33.5098 101.62 31.7498 99.4098 31.7498C97.2198 31.7498 95.3998 33.4698 95.3998 35.9998C95.3998 38.3798 97.2098 40.2498 99.6198 40.2498C101.57 40.2498 102.7 39.0598 103.16 38.3698L101.71 37.3998C101.23 38.1098 100.57 38.5798 99.6198 38.5798C98.6698 38.5798 97.9898 38.1498 97.5598 37.2898L103.25 34.9398L103.05 34.4598ZM97.2498 35.8798C97.1998 34.2398 98.5198 33.3998 99.4698 33.3998C100.21 33.3998 100.84 33.7698 101.05 34.2998L97.2498 35.8798ZM92.6298 39.9998H94.4998V27.4998H92.6298V39.9998ZM89.5698 32.6998H89.4998C89.0798 32.1998 88.2698 31.7498 87.2598 31.7498C85.1298 31.7498 83.1798 33.6198 83.1798 36.0198C83.1798 38.3998 85.1298 40.2598 87.2598 40.2598C88.2798 40.2598 89.0798 39.8098 89.4998 39.2898H89.5598V39.8998C89.5598 41.5298 88.6898 42.3998 87.2898 42.3998C86.1498 42.3998 85.4398 41.5798 85.1498 40.8898L83.5198 41.5698C83.9898 42.6998 85.2298 44.0798 87.2898 44.0798C89.4798 44.0798 91.3298 42.7898 91.3298 39.6498V32.0098H89.5598L89.5698 32.6998ZM87.4198 38.5798C86.1298 38.5798 85.0498 37.4998 85.0498 36.0198C85.0498 34.5198 86.1298 33.4298 87.4198 33.4298C88.6898 33.4298 89.6898 34.5198 89.6898 36.0198C89.6998 37.4998 88.6998 38.5798 87.4198 38.5798ZM111.81 27.4998H107.34V39.9998H109.21V35.2598H111.81C113.88 35.2598 115.91 33.7598 115.91 31.3798C115.91 28.9998 113.87 27.4998 111.81 27.4998ZM111.85 33.5198H109.2V29.2398H111.85C113.25 29.2398 114.04 30.3998 114.04 31.3798C114.04 32.3498 113.25 33.5198 111.85 33.5198ZM123.39 31.7298C122.04 31.7298 120.64 32.3298 120.06 33.6398L121.72 34.3298C122.07 33.6398 122.73 33.4098 123.43 33.4098C124.39 33.4098 125.38 33.9898 125.39 35.0198V35.1498C125.05 34.9598 124.33 34.6698 123.44 34.6698C121.65 34.6698 119.84 35.6498 119.84 37.4798C119.84 39.1498 121.3 40.2298 122.94 40.2298C124.19 40.2298 124.89 39.6698 125.32 39.0098H125.38V39.9698H127.18V35.1798C127.18 32.9698 125.52 31.7298 123.39 31.7298ZM123.16 38.5798C122.55 38.5798 121.7 38.2698 121.7 37.5198C121.7 36.5598 122.76 36.1898 123.68 36.1898C124.5 36.1898 124.89 36.3698 125.38 36.6098C125.23 37.7598 124.24 38.5798 123.16 38.5798ZM133.74 31.9998L131.6 37.4198H131.54L129.32 31.9998H127.31L130.64 39.5798L128.74 43.7898H130.69L135.82 31.9998H133.74ZM116.94 39.9998H118.8V27.4998H116.94V39.9998Z" fill="white"/>
<path d="M20.44 17.5409C20.15 17.8509 19.98 18.3309 19.98 18.9409V41.0609C19.98 41.6809 20.15 42.1609 20.44 42.4709L20.51 42.5409L32.9 30.1509V30.0009V29.8509L20.51 17.4609L20.44 17.5409Z" fill="url(#paint0_linear_125_1196)"/>
<path d="M37.0304 34.2807L32.9004 30.1507V30.0007V29.8507L37.0304 25.7207L37.1204 25.7707L42.0104 28.5507C43.4104 29.3407 43.4104 30.6407 42.0104 31.4407L37.1204 34.2207L37.0304 34.2807Z" fill="url(#paint1_linear_125_1196)"/>
<path d="M37.1204 34.22L32.9004 30L20.4404 42.46C20.9004 42.95 21.6604 43.01 22.5204 42.52L37.1204 34.22Z" fill="url(#paint2_linear_125_1196)"/>
<path d="M37.1202 25.7805L22.5102 17.4805C21.6502 16.9905 20.8902 17.0505 20.4302 17.5405L32.9002 30.0005L37.1202 25.7805Z" fill="url(#paint3_linear_125_1196)"/>
<path opacity="0.2" d="M37.0302 34.1309L22.5202 42.3809C21.7102 42.8409 20.9802 42.8109 20.5202 42.3909L20.4502 42.4609L20.5202 42.5309C20.9902 42.9509 21.7102 42.9809 22.5202 42.5209L37.1302 34.2209L37.0302 34.1309Z" fill="black"/>
<path opacity="0.12" d="M20.44 42.3211C20.15 42.0111 19.98 41.5311 19.98 40.9111V41.0611C19.98 41.6811 20.15 42.1611 20.44 42.4711L20.51 42.4011L20.44 42.3211Z" fill="black"/>
<path opacity="0.12" d="M42.0203 31.3L37.0303 34.13L37.1203 34.22L42.0103 31.44C42.7103 31.04 43.0603 30.52 43.0603 30C43.0003 30.48 42.6503 30.94 42.0203 31.3Z" fill="black"/>
<path opacity="0.25" d="M22.5102 17.6204L42.0102 28.7004C42.6402 29.0604 43.0002 29.5204 43.0602 30.0004C43.0602 29.4804 42.7102 28.9504 42.0102 28.5604L22.5102 17.4804C21.1102 16.6904 19.9702 17.3504 19.9702 18.9504V19.1004C19.9702 17.4904 21.1202 16.8304 22.5102 17.6204Z" fill="white"/>
<path d="M52.1101 24.27H51.3701V22.26H51.9601C52.4801 21.81 52.7301 21.05 52.7201 19.96V17H56.7301V22.26H57.4001V24.27H56.6601V23H52.1101V24.27ZM53.5001 19.97C53.5101 20.92 53.3201 21.69 52.9301 22.27H55.9601V17.74H53.5001V19.97Z" fill="white" stroke="white" stroke-width="0.2" stroke-miterlimit="10"/>
<path d="M63.4201 22.2294C62.8301 22.8394 62.1001 23.1394 61.2201 23.1394C60.3401 23.1394 59.6101 22.8394 59.0201 22.2294C58.4301 21.6194 58.1401 20.8794 58.1401 19.9994C58.1401 19.1194 58.4301 18.3794 59.0201 17.7694C59.6101 17.1594 60.3401 16.8594 61.2201 16.8594C62.0901 16.8594 62.8201 17.1694 63.4201 17.7694C64.0001 18.3894 64.3001 19.1294 64.3001 19.9994C64.3001 20.8794 64.0001 21.6194 63.4201 22.2294ZM59.5801 21.7194C60.0201 22.1694 60.5701 22.3894 61.2101 22.3894C61.8501 22.3894 62.4001 22.1594 62.8401 21.7194C63.2801 21.2694 63.5101 20.6994 63.5101 19.9994C63.5101 19.2994 63.2901 18.7294 62.8401 18.2794C62.4001 17.8294 61.8501 17.6094 61.2101 17.6094C60.5701 17.6094 60.0201 17.8394 59.5801 18.2794C59.1401 18.7294 58.9101 19.2994 58.9101 19.9994C58.9201 20.6994 59.1401 21.2694 59.5801 21.7194Z" fill="white" stroke="white" stroke-width="0.2" stroke-miterlimit="10"/>
<path d="M68.1801 23.1296C67.3001 23.1296 66.5601 22.8296 65.9601 22.2296C65.3601 21.6296 65.0601 20.8896 65.0601 19.9896C65.0601 19.0896 65.3601 18.3496 65.9601 17.7496C66.5601 17.1496 67.3001 16.8496 68.1801 16.8496C69.0801 16.8496 69.8201 17.1796 70.3801 17.8296L69.8401 18.3496C69.4301 17.8396 68.8801 17.5896 68.1701 17.5896C67.5201 17.5896 66.9601 17.8096 66.5101 18.2496C66.0601 18.6896 65.8401 19.2696 65.8401 19.9796C65.8401 20.6896 66.0701 21.2696 66.5101 21.7096C66.9601 22.1496 67.5101 22.3696 68.1701 22.3696C68.8901 22.3696 69.5001 22.0796 70.0101 21.4996L70.5501 22.0396C70.2801 22.3696 69.9301 22.6296 69.5201 22.8196C69.1201 23.0396 68.6701 23.1296 68.1801 23.1296Z" fill="white" stroke="white" stroke-width="0.2" stroke-miterlimit="10"/>
<path d="M73.68 23H72.91V17.74H71.23V17H75.35V17.74H73.67V23H73.68Z" fill="white" stroke="white" stroke-width="0.2" stroke-miterlimit="10"/>
<path d="M80.6501 17L78.3801 22.06C78.0701 22.77 77.6001 23.13 76.9801 23.13C76.7901 23.13 76.6001 23.09 76.3801 23L76.5801 22.29C76.7101 22.36 76.8401 22.4 76.9801 22.4C77.1601 22.4 77.3001 22.36 77.4001 22.3C77.5001 22.23 77.5901 22.1 77.6701 21.92L77.8901 21.44L75.8701 17H76.7701L78.2501 20.44H78.2801L79.7401 17H80.6501Z" fill="white" stroke="white" stroke-width="0.2" stroke-miterlimit="10"/>
<path d="M81.52 23V17H85.86V23H85.09V17.74H82.29V23H81.52Z" fill="white" stroke="white" stroke-width="0.2" stroke-miterlimit="10"/>
<path d="M87.23 23V17H88V19.57H91V17H91.77V23H91V20.29H88V23H87.23Z" fill="white" stroke="white" stroke-width="0.2" stroke-miterlimit="10"/>
<path d="M98.0603 22.2294C97.4703 22.8394 96.7403 23.1394 95.8603 23.1394C94.9803 23.1394 94.2503 22.8394 93.6603 22.2294C93.0703 21.6194 92.7803 20.8794 92.7803 19.9994C92.7803 19.1194 93.0703 18.3794 93.6603 17.7694C94.2503 17.1594 94.9803 16.8594 95.8603 16.8594C96.7303 16.8594 97.4603 17.1694 98.0603 17.7694C98.6503 18.3794 98.9503 19.1194 98.9503 19.9894C98.9403 20.8794 98.6503 21.6194 98.0603 22.2294ZM94.2303 21.7194C94.6703 22.1694 95.2203 22.3894 95.8603 22.3894C96.5003 22.3894 97.0503 22.1594 97.4903 21.7194C97.9303 21.2694 98.1603 20.6994 98.1603 19.9994C98.1603 19.2994 97.9403 18.7294 97.4903 18.2794C97.0503 17.8294 96.5003 17.6094 95.8603 17.6094C95.2203 17.6094 94.6703 17.8394 94.2303 18.2794C93.7903 18.7294 93.5603 19.2994 93.5603 19.9994C93.5603 20.6994 93.7803 21.2694 94.2303 21.7194Z" fill="white" stroke="white" stroke-width="0.2" stroke-miterlimit="10"/>
<path d="M102.09 23V17H104.26C104.73 17 105.14 17.15 105.48 17.46C105.82 17.77 106 18.16 106 18.63C106 18.92 105.93 19.17 105.78 19.38C105.63 19.6 105.43 19.76 105.19 19.87V19.9C105.49 20 105.73 20.17 105.92 20.42C106.11 20.67 106.21 20.95 106.21 21.27C106.21 21.76 106.03 22.17 105.67 22.49C105.31 22.81 104.88 22.98 104.39 22.98H102.09V23ZM102.86 19.57H104.26C104.55 19.57 104.78 19.47 104.96 19.28C105.14 19.09 105.22 18.88 105.22 18.65C105.22 18.42 105.14 18.21 104.96 18.02C104.79 17.83 104.57 17.73 104.29 17.73H102.86V19.57ZM102.86 22.26H104.41C104.71 22.26 104.95 22.16 105.13 21.95C105.31 21.74 105.41 21.52 105.41 21.27C105.41 21.02 105.31 20.8 105.12 20.6C104.93 20.4 104.68 20.29 104.37 20.29H102.85V22.26H102.86Z" fill="white" stroke="white" stroke-width="0.2" stroke-miterlimit="10"/>
<defs>
<linearGradient id="paint0_linear_125_1196" x1="31.8006" y1="18.7101" x2="15.0185" y2="35.4922" gradientUnits="userSpaceOnUse">
<stop stop-color="#00A0FF"/>
<stop offset="0.0066" stop-color="#00A1FF"/>
<stop offset="0.2601" stop-color="#00BEFF"/>
<stop offset="0.5122" stop-color="#00D2FF"/>
<stop offset="0.7604" stop-color="#00DFFF"/>
<stop offset="1" stop-color="#00E3FF"/>
</linearGradient>
<linearGradient id="paint1_linear_125_1196" x1="43.8337" y1="30.0019" x2="19.6382" y2="30.0019" gradientUnits="userSpaceOnUse">
<stop stop-color="#FFE000"/>
<stop offset="0.4087" stop-color="#FFBD00"/>
<stop offset="0.7754" stop-color="#FFA500"/>
<stop offset="1" stop-color="#FF9C00"/>
</linearGradient>
<linearGradient id="paint2_linear_125_1196" x1="34.8287" y1="32.2946" x2="12.0697" y2="55.0535" gradientUnits="userSpaceOnUse">
<stop stop-color="#FF3A44"/>
<stop offset="1" stop-color="#C31162"/>
</linearGradient>
<linearGradient id="paint3_linear_125_1196" x1="17.2978" y1="10.1771" x2="27.4601" y2="20.3394" gradientUnits="userSpaceOnUse">
<stop stop-color="#32A071"/>
<stop offset="0.0685" stop-color="#2DA771"/>
<stop offset="0.4762" stop-color="#15CF74"/>
<stop offset="0.8009" stop-color="#06E775"/>
<stop offset="1" stop-color="#00F076"/>
</linearGradient>
</defs>
</svg>
