<svg width="216" height="63" viewBox="0 0 216 63" fill="none" xmlns="http://www.w3.org/2000/svg">
<g clip-path="url(#clip0_125_872)">
<path d="M41.2306 0C37.0536 0 33.6319 3.40305 33.6319 7.55723C33.6319 11.7114 37.0536 15.0378 41.2306 15.0378C45.4077 15.0378 48.7523 11.7114 48.7523 7.55723C48.7523 3.40305 45.4077 0 41.2306 0ZM10.142 16.7547C8.87807 16.7547 7.8608 17.7664 7.8608 19.0234C7.8608 20.2804 8.87807 21.2921 10.142 21.2921H34.9266C35.7743 21.2461 38.2405 21.4454 39.3502 22.871C40.5216 24.3886 39.9822 27.0405 39.3502 28.9873C39.3502 28.9873 32.1522 51.9349 31.6127 53.6518C30.4721 57.3154 26.8963 59.6148 23.4591 58.1125C20.623 56.8709 20.4381 54.1883 21.3937 51.5823C21.517 51.2604 21.6711 51.0305 21.8099 50.7546C21.8099 50.7546 27.9752 39.2118 29.3316 35.9927C30.3334 33.632 29.0387 32.0071 25.9406 32.0071H11.8528C10.589 32.0071 9.57168 33.0188 9.57168 34.2758C9.57168 35.5328 10.589 36.5445 11.8528 36.5445H15.8603C16.708 36.4985 19.2358 36.6058 20.2069 38.1234C22.0256 40.944 20.7772 41.8637 18.0644 51.2451C17.8949 51.7356 17.7407 52.2415 17.6483 52.7627C17.6483 52.7627 15.7832 59.3235 21.7174 62.0368C27.2045 64.5354 33.5702 61.8681 35.4661 55.9205C36.7916 51.7356 43.6814 30.3669 43.6814 30.3669C45.084 26.0134 44.8528 22.5337 42.9261 20.0658C40.2596 16.6627 35.4969 16.7394 34.7725 16.77H10.142V16.7547ZM2.28117 24.2506C1.01728 24.2506 0 25.2623 0 26.5193C0 27.7763 1.01728 28.8493 2.28117 28.8493H31.4278C32.6917 28.8493 33.7089 27.7763 33.7089 26.5193C33.7089 25.2623 32.6917 24.2506 31.4278 24.2506H2.28117Z" fill="#323941"/>
<path d="M75.0827 14.9114C71.5411 14.9114 65.2364 15.3436 65.2364 18.7117C65.2364 23.6148 75.846 23.6595 75.846 26.4613C75.846 27.3108 74.9606 28.0708 72.9761 28.0708C70.1977 28.0708 68.6254 27.9069 66.0607 27.4747C64.9769 27.2959 64.6105 29.3823 65.5112 29.6058C67.1904 30.038 69.8161 30.4106 74.5484 30.4106C78.0901 30.4106 84.2574 29.7847 84.2574 26.4017C84.2574 21.4986 73.7241 21.4688 73.7241 18.8608C73.7241 18.0113 74.6095 17.2512 76.594 17.2512H83.2956C84.6543 17.2512 84.6543 14.9114 83.2956 14.9114H75.0827ZM100.195 14.9114C96.3478 14.9114 89.8599 15.135 89.8599 20.3212V25.0604C89.8599 30.2616 96.3478 30.4702 100.195 30.4702C104.271 30.4702 106.454 30.0976 108.133 29.6655C109.049 29.4419 108.667 27.3406 107.583 27.5343C105.019 27.9665 103.462 28.1304 100.668 28.1304C98.0728 28.1304 97.3858 27.5492 97.3858 25.9993V24.196C97.3858 23.585 97.5385 23.4658 98.2102 23.4658H103.477C104.5 23.4658 104.5 21.4688 103.477 21.4688H98.2102C97.5385 21.4688 97.3858 21.3496 97.3858 20.7385V19.3973C97.3858 17.8324 98.0728 17.2661 100.668 17.2661H107.308C108.667 17.2661 108.667 14.9263 107.308 14.9263H100.195V14.9114ZM123.933 14.9114C120.086 14.9114 113.598 15.135 113.598 20.3212V25.2691C113.598 30.0976 119.811 30.351 123.658 30.351C126.925 30.351 134.054 30.1871 134.054 25.6714V24.196C134.054 22.3481 132.817 21.8563 130.36 21.8563H124.956C124.223 21.8563 124.223 23.8533 124.956 23.8533H126.604C127.276 23.8533 127.352 23.9874 127.352 24.5835V25.8503C127.352 27.4151 125.871 28.2497 123.658 28.2497C121.444 28.2497 120.651 27.4002 120.651 25.8503V19.3675C120.651 17.8026 121.811 17.2363 124.406 17.2363H131.047C132.405 17.2363 132.405 14.8965 131.047 14.8965H123.933V14.9114ZM138.221 14.9114C137.29 14.9114 137.305 15.284 137.534 16.0441L141.503 27.8026C142.038 29.2482 143.198 30.202 145.473 30.202C147.747 30.202 148.831 29.2333 149.365 27.9367C149.365 27.9367 150.938 23.3466 151.212 22.5269C151.396 21.9606 151.854 21.9606 152.037 22.5269C152.266 23.2273 153.823 27.8026 153.823 27.8026C154.586 29.3227 155.395 30.202 157.716 30.202C160.448 30.202 161.639 29.114 162.097 27.8026C162.387 26.9829 164.494 19.9636 165.791 15.91C166.051 15.1201 165.974 14.9114 165.242 14.9114H162.845C162.097 17.3854 159.792 24.822 159.7 25.1349C159.532 25.7012 159.105 25.6863 158.876 25.1349C158.723 24.7474 156.143 17.8622 155.731 16.7892C155.304 15.7162 154.128 14.9263 152.785 14.9263C151.579 14.9263 150.449 15.5672 150.052 16.7892C149.655 18.0113 147.488 24.8071 147.381 25.1349C147.213 25.7012 146.74 25.7012 146.556 25.1349C146.434 24.7922 144.083 17.281 143.335 14.9114H138.221ZM180.293 14.9114C176.569 14.9114 170.646 14.8816 170.646 19.3824V28.7266C170.646 29.6655 171.363 30.202 173.79 30.202C176.218 30.202 176.935 29.5462 176.935 28.7266V24.4494C176.935 23.8384 177.088 23.7191 177.759 23.7191H182.69C183.362 23.7191 183.515 23.8533 183.515 24.4494V28.7266C183.515 29.5462 184.232 30.202 186.659 30.202C189.086 30.202 189.804 29.6804 189.804 28.7266V19.3824C189.804 14.8816 184.018 14.9114 180.293 14.9114ZM193.91 14.9114C193.3 14.9114 193.04 15.3585 193.498 15.91C195.04 17.7877 198.658 22.2139 198.902 22.5269C199.208 22.8995 199.65 23.4211 199.65 24.0023V28.7415C199.65 29.5611 200.444 30.2169 202.871 30.2169C205.299 30.2169 206.153 29.6953 206.153 28.7415V23.5999C206.153 22.9889 206.566 22.661 206.901 22.2586C207.146 21.9457 210.565 17.8473 212.168 15.91C212.626 15.3436 212.382 14.9114 211.756 14.9114H208.886C208.886 14.9114 205.207 19.6208 204.917 19.9934C204.627 20.366 204.047 20.3511 203.757 19.9934C203.467 19.6357 199.925 14.9114 199.925 14.9114H193.91ZM214.565 14.9114C213.771 14.9114 213.13 15.5523 213.13 16.3123C213.13 17.0724 213.771 17.7132 214.565 17.7132C215.343 17.7132 216 17.0724 216 16.3123C216 15.5374 215.359 14.9114 214.565 14.9114ZM214.565 15.2393C215.145 15.2393 215.664 15.746 215.664 16.3123C215.664 16.8786 215.145 17.3108 214.565 17.3108C213.985 17.3108 213.542 16.8786 213.542 16.3123C213.542 15.746 213.985 15.2393 214.565 15.2393ZM213.954 15.7758C213.908 15.7758 213.893 15.7907 213.893 15.8354V16.6998C213.893 16.7594 213.939 16.7594 214.092 16.7594C214.26 16.7594 214.29 16.7445 214.29 16.6998V15.9696C214.29 15.9249 214.305 15.91 214.351 15.91H214.55C214.687 15.91 214.748 15.9845 214.748 16.0441C214.748 16.1484 214.58 16.1782 214.412 16.1782H214.351C214.275 16.1782 214.29 16.4018 214.351 16.4465C214.519 16.5806 214.672 16.7147 214.763 16.7743C214.794 16.8041 214.855 16.7743 214.901 16.7743H215.313C215.359 16.7743 215.359 16.7445 215.313 16.7147L214.763 16.3123C214.901 16.3123 215.313 16.3272 215.313 16.0441C215.313 15.8503 215.053 15.7758 214.702 15.7758H213.954ZM180.293 16.9085C182.812 16.9085 183.515 17.5642 183.515 19.1141V20.977C183.515 21.6327 183.377 21.7072 182.767 21.7072H177.775C177.103 21.7072 176.95 21.5731 176.95 20.977V19.1141C176.95 17.5642 177.775 16.9085 180.293 16.9085Z" fill="#323941"/>
<path d="M72.6006 37.5664C71.5579 37.5664 70.7589 37.8847 70.2036 38.5211C69.6484 39.1576 69.3708 40.0582 69.3708 41.2228C69.3708 42.401 69.6755 43.3084 70.2849 43.9448C70.9078 44.5813 71.7407 44.8996 72.7834 44.8996C73.3387 44.8996 73.8059 44.8251 74.1851 44.6761C74.5778 44.5272 74.9502 44.3579 75.3023 44.1683C75.5325 44.3579 75.7086 44.5881 75.8305 44.8589C75.9659 45.1163 76.0336 45.421 76.0336 45.7731C76.0336 46.3283 75.7221 46.8023 75.0992 47.195C74.4898 47.5742 73.5554 47.7638 72.2959 47.7638C71.3886 47.7638 70.5354 47.6351 69.7364 47.3778C68.9374 47.1205 68.24 46.7278 67.6441 46.1996C67.0483 45.6579 66.5743 44.9808 66.2222 44.1683C65.8836 43.3422 65.7144 42.3604 65.7144 41.2228C65.7144 40.1665 65.8769 39.2389 66.2019 38.4399C66.5404 37.6273 66.9941 36.9435 67.5629 36.3882C68.1452 35.833 68.8223 35.4132 69.5942 35.1288C70.3661 34.8444 71.1922 34.7022 72.0725 34.7022C73.3184 34.7022 74.2799 34.9053 74.957 35.3116C75.6476 35.7179 75.993 36.2393 75.993 36.8758C75.993 37.2279 75.905 37.5326 75.7289 37.7899C75.5529 38.0472 75.3497 38.2503 75.1195 38.3993C74.7674 38.169 74.3882 37.9727 73.9819 37.8102C73.5892 37.6477 73.1288 37.5664 72.6006 37.5664Z" fill="#323941"/>
<path d="M80.8466 35.4538C81.0768 35.3184 81.4222 35.1897 81.8826 35.0679C82.3566 34.946 82.8306 34.885 83.3046 34.885C83.9817 34.885 84.5775 34.9866 85.0921 35.1897C85.6203 35.3793 85.9589 35.684 86.1078 36.1038C86.3516 36.808 86.6157 37.6274 86.9 38.5618C87.1844 39.4962 87.4688 40.4645 87.7532 41.4666C88.0376 42.4552 88.3152 43.437 88.5861 44.4121C88.8569 45.3736 89.0939 46.2267 89.297 46.9716C89.1345 47.1611 88.8908 47.3101 88.5657 47.4184C88.2407 47.5403 87.8548 47.6013 87.4079 47.6013C87.0829 47.6013 86.8052 47.5742 86.575 47.52C86.3584 47.4658 86.1755 47.3846 86.0266 47.2763C85.8911 47.1679 85.776 47.0257 85.6812 46.8497C85.6 46.6736 85.5255 46.4705 85.4578 46.2403L85.0921 44.8386H81.4154C81.3071 45.2449 81.1987 45.6647 81.0904 46.0981C80.9821 46.5314 80.8737 46.9512 80.7654 47.3575C80.5758 47.4252 80.3726 47.4794 80.156 47.52C79.9528 47.5742 79.7023 47.6013 79.4044 47.6013C78.7137 47.6013 78.1991 47.4862 77.8605 47.2559C77.5355 47.0122 77.373 46.6804 77.373 46.2606C77.373 46.071 77.4001 45.8814 77.4543 45.6918C77.5084 45.5022 77.5694 45.2788 77.6371 45.0215C77.7319 44.6558 77.8605 44.2021 78.0231 43.6605C78.1991 43.1188 78.3887 42.5364 78.5918 41.9135C78.795 41.277 79.0116 40.627 79.2419 39.9634C79.4721 39.2998 79.6888 38.6769 79.8919 38.0946C80.095 37.4987 80.2779 36.9705 80.4404 36.5101C80.6164 36.0497 80.7518 35.6976 80.8466 35.4538ZM83.2842 38.0742C83.0947 38.643 82.878 39.2795 82.6342 39.9837C82.404 40.6744 82.1941 41.3786 82.0045 42.0963H84.5234C84.3338 41.365 84.1374 40.6541 83.9343 39.9634C83.7447 39.2592 83.5686 38.6295 83.4061 38.0742H83.2842Z" fill="#323941"/>
<path d="M92.8509 47.4591C92.2686 47.4591 91.8082 47.2898 91.4696 46.9512C91.1311 46.6127 90.9618 46.1522 90.9618 45.5699V35.0679C91.1108 35.0408 91.3477 35.0069 91.6728 34.9663C91.9978 34.9121 92.3092 34.885 92.6072 34.885C92.9187 34.885 93.1895 34.9121 93.4197 34.9663C93.6635 35.0069 93.8666 35.0882 94.0291 35.21C94.1916 35.3319 94.3135 35.5012 94.3948 35.7179C94.476 35.9346 94.5166 36.2189 94.5166 36.571V44.5949H99.1684C99.2632 44.7438 99.3513 44.947 99.4325 45.2043C99.5138 45.448 99.5544 45.7053 99.5544 45.9762C99.5544 46.5179 99.4393 46.9038 99.2091 47.1341C98.9788 47.3507 98.6741 47.4591 98.295 47.4591H92.8509Z" fill="#323941"/>
<path d="M104.931 47.3169C104.782 47.3575 104.545 47.3981 104.22 47.4388C103.909 47.4794 103.597 47.4997 103.286 47.4997C102.974 47.4997 102.697 47.4726 102.453 47.4184C102.223 47.3778 102.026 47.2966 101.864 47.1747C101.701 47.0528 101.58 46.8835 101.498 46.6668C101.417 46.4502 101.376 46.1658 101.376 45.8137V35.0882C101.525 35.0611 101.762 35.0272 102.087 34.9866C102.412 34.9324 102.724 34.9053 103.022 34.9053C103.333 34.9053 103.604 34.9324 103.834 34.9866C104.078 35.0272 104.281 35.1085 104.444 35.2304C104.606 35.3522 104.728 35.5215 104.809 35.7382C104.891 35.9549 104.931 36.2393 104.931 36.5914V47.3169Z" fill="#323941"/>
<path d="M116.219 35.0882C116.314 35.2371 116.395 35.4403 116.463 35.6976C116.544 35.9413 116.585 36.1986 116.585 36.4695C116.585 36.9976 116.47 37.3768 116.24 37.607C116.023 37.8237 115.725 37.9321 115.346 37.9321H111.08V40.2275H115.529C115.637 40.3764 115.725 40.5728 115.793 40.8166C115.874 41.0603 115.915 41.3176 115.915 41.5885C115.915 42.1031 115.799 42.4755 115.569 42.7057C115.353 42.9224 115.055 43.0307 114.675 43.0307H111.121V47.3169C110.972 47.3575 110.735 47.3981 110.41 47.4388C110.098 47.4794 109.787 47.4997 109.475 47.4997C109.164 47.4997 108.886 47.4726 108.642 47.4184C108.412 47.3778 108.216 47.2966 108.053 47.1747C107.891 47.0528 107.769 46.8835 107.688 46.6668C107.606 46.4502 107.566 46.1658 107.566 45.8137V36.9773C107.566 36.395 107.735 35.9346 108.074 35.596C108.412 35.2574 108.873 35.0882 109.455 35.0882H116.219Z" fill="#323941"/>
<path d="M117.649 41.2228C117.649 40.1665 117.811 39.2321 118.136 38.4196C118.475 37.607 118.928 36.9299 119.497 36.3882C120.079 35.833 120.757 35.4132 121.528 35.1288C122.314 34.8444 123.16 34.7022 124.068 34.7022C124.975 34.7022 125.815 34.8444 126.587 35.1288C127.372 35.4132 128.056 35.833 128.638 36.3882C129.221 36.9299 129.674 37.607 129.999 38.4196C130.338 39.2321 130.507 40.1665 130.507 41.2228C130.507 42.2791 130.345 43.2203 130.02 44.0464C129.695 44.8589 129.241 45.5428 128.659 46.0981C128.09 46.6398 127.413 47.0528 126.627 47.3372C125.842 47.6216 124.989 47.7638 124.068 47.7638C123.147 47.7638 122.294 47.6216 121.508 47.3372C120.723 47.0393 120.046 46.6127 119.477 46.0574C118.908 45.5022 118.461 44.8183 118.136 44.0058C117.811 43.1932 117.649 42.2656 117.649 41.2228ZM121.305 41.2228C121.305 42.4552 121.556 43.3761 122.057 43.9855C122.558 44.5949 123.228 44.8996 124.068 44.8996C124.921 44.8996 125.598 44.5949 126.099 43.9855C126.6 43.3761 126.851 42.4552 126.851 41.2228C126.851 40.004 126.6 39.0899 126.099 38.4805C125.612 37.8711 124.941 37.5664 124.088 37.5664C123.248 37.5664 122.571 37.8711 122.057 38.4805C121.556 39.0764 121.305 39.9905 121.305 41.2228Z" fill="#323941"/>
<path d="M136.075 43.4167V47.3169C135.927 47.3575 135.69 47.3981 135.365 47.4388C135.053 47.4794 134.742 47.4997 134.43 47.4997C134.119 47.4997 133.841 47.4726 133.597 47.4184C133.367 47.3778 133.171 47.2966 133.008 47.1747C132.859 47.0528 132.744 46.8835 132.663 46.6668C132.582 46.4502 132.541 46.1658 132.541 45.8137V36.246C132.541 35.9616 132.615 35.745 132.764 35.596C132.927 35.4335 133.144 35.3048 133.414 35.21C133.875 35.0475 134.41 34.9324 135.019 34.8647C135.629 34.7835 136.279 34.7428 136.969 34.7428C138.838 34.7428 140.247 35.1356 141.194 35.921C142.142 36.7065 142.616 37.7695 142.616 39.1102C142.616 39.9499 142.4 40.6676 141.966 41.2635C141.533 41.8593 141.018 42.3198 140.423 42.6448C140.91 43.3084 141.391 43.9313 141.865 44.5136C142.339 45.0959 142.711 45.6241 142.982 46.0981C142.847 46.5721 142.596 46.9377 142.23 47.195C141.878 47.4388 141.479 47.5606 141.032 47.5606C140.734 47.5606 140.477 47.5268 140.26 47.4591C140.043 47.3914 139.854 47.2966 139.691 47.1747C139.529 47.0528 139.38 46.9038 139.244 46.7278C139.109 46.5517 138.98 46.3621 138.858 46.159L137.152 43.4167H136.075ZM137.355 40.715C137.87 40.715 138.276 40.5863 138.574 40.329C138.872 40.0582 139.021 39.6655 139.021 39.1509C139.021 38.6363 138.852 38.2503 138.513 37.993C138.188 37.7221 137.667 37.5867 136.949 37.5867C136.746 37.5867 136.583 37.5935 136.461 37.607C136.34 37.6206 136.204 37.6409 136.055 37.668V40.715H137.355Z" fill="#323941"/>
<path d="M156.072 46.9716C155.882 47.1611 155.604 47.3033 155.239 47.3981C154.887 47.5065 154.46 47.5606 153.959 47.5606C153.458 47.5606 152.984 47.4862 152.537 47.3372C152.09 47.1882 151.724 46.8294 151.44 46.2606L149.429 42.1573C149.226 41.7374 149.043 41.3447 148.881 40.9791C148.718 40.5999 148.542 40.1665 148.352 39.679L148.231 39.6993C148.285 40.4306 148.312 41.1754 148.312 41.9338C148.325 42.6922 148.332 43.437 148.332 44.1683V47.3169C148.183 47.3575 147.953 47.3981 147.641 47.4388C147.344 47.4794 147.046 47.4997 146.748 47.4997C146.45 47.4997 146.186 47.4794 145.955 47.4388C145.725 47.3981 145.536 47.3169 145.387 47.195C145.238 47.0731 145.123 46.9106 145.041 46.7075C144.96 46.4908 144.919 46.2132 144.919 45.8746V35.7179C145.109 35.447 145.4 35.2439 145.793 35.1085C146.186 34.9731 146.605 34.9053 147.052 34.9053C147.553 34.9053 148.027 34.9866 148.474 35.1491C148.935 35.2981 149.3 35.6502 149.571 36.2054L151.603 40.3087C151.806 40.7285 151.989 41.128 152.151 41.5072C152.314 41.8729 152.49 42.2995 152.679 42.787L152.781 42.7667C152.727 42.0354 152.693 41.3041 152.679 40.5728C152.666 39.8415 152.659 39.1102 152.659 38.3789V35.0882C152.808 35.0475 153.031 35.0069 153.329 34.9663C153.641 34.9257 153.945 34.9053 154.243 34.9053C154.839 34.9053 155.293 35.0137 155.604 35.2304C155.916 35.4335 156.072 35.8668 156.072 36.5304V46.9716Z" fill="#323941"/>
<path d="M162.261 47.3169C162.112 47.3575 161.875 47.3981 161.55 47.4388C161.239 47.4794 160.927 47.4997 160.616 47.4997C160.304 47.4997 160.027 47.4726 159.783 47.4184C159.553 47.3778 159.356 47.2966 159.194 47.1747C159.031 47.0528 158.91 46.8835 158.828 46.6668C158.747 46.4502 158.706 46.1658 158.706 45.8137V35.0882C158.855 35.0611 159.092 35.0272 159.417 34.9866C159.742 34.9324 160.054 34.9053 160.352 34.9053C160.663 34.9053 160.934 34.9324 161.164 34.9866C161.408 35.0272 161.611 35.1085 161.774 35.2304C161.936 35.3522 162.058 35.5215 162.139 35.7382C162.221 35.9549 162.261 36.2393 162.261 36.5914V47.3169Z" fill="#323941"/>
<path d="M167.516 35.4538C167.746 35.3184 168.092 35.1897 168.552 35.0679C169.026 34.946 169.5 34.885 169.974 34.885C170.651 34.885 171.247 34.9866 171.762 35.1897C172.29 35.3793 172.628 35.684 172.777 36.1038C173.021 36.808 173.285 37.6274 173.57 38.5618C173.854 39.4962 174.138 40.4645 174.423 41.4666C174.707 42.4552 174.985 43.437 175.256 44.4121C175.526 45.3736 175.763 46.2267 175.967 46.9716C175.804 47.1611 175.56 47.3101 175.235 47.4184C174.91 47.5403 174.524 47.6013 174.077 47.6013C173.752 47.6013 173.475 47.5742 173.245 47.52C173.028 47.4658 172.845 47.3846 172.696 47.2763C172.561 47.1679 172.446 47.0257 172.351 46.8497C172.27 46.6736 172.195 46.4705 172.127 46.2403L171.762 44.8386H168.085C167.977 45.2449 167.868 45.6647 167.76 46.0981C167.652 46.5314 167.543 46.9512 167.435 47.3575C167.245 47.4252 167.042 47.4794 166.825 47.52C166.622 47.5742 166.372 47.6013 166.074 47.6013C165.383 47.6013 164.869 47.4862 164.53 47.2559C164.205 47.0122 164.043 46.6804 164.043 46.2606C164.043 46.071 164.07 45.8814 164.124 45.6918C164.178 45.5022 164.239 45.2788 164.307 45.0215C164.401 44.6558 164.53 44.2021 164.693 43.6605C164.869 43.1188 165.058 42.5364 165.261 41.9135C165.464 41.277 165.681 40.627 165.911 39.9634C166.142 39.2998 166.358 38.6769 166.561 38.0946C166.765 37.4987 166.947 36.9705 167.11 36.5101C167.286 36.0497 167.421 35.6976 167.516 35.4538ZM169.954 38.0742C169.764 38.643 169.548 39.2795 169.304 39.9837C169.074 40.6744 168.864 41.3786 168.674 42.0963H171.193C171.003 41.365 170.807 40.6541 170.604 39.9634C170.414 39.2592 170.238 38.6295 170.076 38.0742H169.954Z" fill="#323941"/>
</g>
<defs>
<clipPath id="clip0_125_872">
<rect width="216" height="62.9718" fill="white"/>
</clipPath>
</defs>
</svg>
