<svg width="174" height="51" viewBox="0 0 174 51" fill="none" xmlns="http://www.w3.org/2000/svg">
<g opacity="0.2" clip-path="url(#clip0_136_6967)">
<path d="M33.2136 0C29.8488 0 27.0923 2.74135 27.0923 6.08777C27.0923 9.4342 29.8488 12.1138 33.2136 12.1138C36.5784 12.1138 39.2727 9.4342 39.2727 6.08777C39.2727 2.74135 36.5784 0 33.2136 0ZM8.16992 13.4968C7.15178 13.4968 6.33231 14.3118 6.33231 15.3244C6.33231 16.337 7.15178 17.152 8.16992 17.152H28.1353C28.8182 17.1149 30.8048 17.2754 31.6988 18.4238C32.6424 19.6463 32.2079 21.7826 31.6988 23.3509C31.6988 23.3509 25.9004 41.8365 25.4658 43.2195C24.547 46.1708 21.6664 48.023 18.8976 46.8129C16.613 45.8126 16.464 43.6517 17.2338 41.5524C17.3331 41.2931 17.4573 41.1079 17.5691 40.8856C17.5691 40.8856 22.5356 31.5873 23.6282 28.9941C24.4353 27.0924 23.3923 25.7835 20.8966 25.7835H9.54813C8.52999 25.7835 7.71052 26.5985 7.71052 27.6111C7.71052 28.6236 8.52999 29.4386 9.54813 29.4386H12.7764C13.4593 29.4016 15.4955 29.488 16.2778 30.7105C17.7429 32.9826 16.7372 33.7235 14.5519 41.2808C14.4153 41.6759 14.2912 42.0834 14.2167 42.5033C14.2167 42.5033 12.7143 47.7884 17.4946 49.9741C21.9148 51.9869 27.0427 49.8382 28.5699 45.047C29.6377 41.6759 35.1878 24.4622 35.1878 24.4622C36.3177 20.9553 36.1314 18.1522 34.5794 16.1641C32.4314 13.4227 28.5947 13.4845 28.0112 13.5092H8.16992V13.4968ZM1.83761 19.5352C0.819474 19.5352 0 20.3502 0 21.3628C0 22.3753 0.819474 23.2397 1.83761 23.2397H25.3168C26.335 23.2397 27.1544 22.3753 27.1544 21.3628C27.1544 20.3502 26.335 19.5352 25.3168 19.5352H1.83761Z" fill="white"/>
<path d="M60.4836 12.012C57.6306 12.012 52.5518 12.3602 52.5518 15.0733C52.5518 19.0231 61.0985 19.0591 61.0985 21.3161C61.0985 22.0004 60.3852 22.6126 58.7866 22.6126C56.5485 22.6126 55.2818 22.4806 53.2159 22.1324C52.3428 21.9883 52.0476 23.6691 52.7732 23.8492C54.1259 24.1973 56.241 24.4974 60.0532 24.4974C62.9062 24.4974 67.8743 23.9932 67.8743 21.268C67.8743 17.3183 59.3891 17.2943 59.3891 15.1934C59.3891 14.5091 60.1024 13.8968 61.701 13.8968H67.0996C68.194 13.8968 68.194 12.012 67.0996 12.012H60.4836ZM80.7127 12.012C77.6138 12.012 72.3874 12.1921 72.3874 16.3699V20.1876C72.3874 24.3774 77.6138 24.5455 80.7127 24.5455C83.9961 24.5455 85.7546 24.2453 87.1073 23.8972C87.8451 23.7171 87.5377 22.0244 86.6646 22.1804C84.5986 22.5286 83.3443 22.6606 81.0939 22.6606C79.0034 22.6606 78.45 22.1924 78.45 20.9439V19.4913C78.45 18.999 78.573 18.903 79.114 18.903H83.3566C84.1805 18.903 84.1805 17.2943 83.3566 17.2943H79.114C78.573 17.2943 78.45 17.1983 78.45 16.706V15.6256C78.45 14.365 79.0034 13.9088 81.0939 13.9088H86.4432C87.5377 13.9088 87.5377 12.024 86.4432 12.024H80.7127V12.012ZM99.835 12.012C96.7361 12.012 91.5097 12.1921 91.5097 16.3699V20.3556C91.5097 24.2453 96.5147 24.4494 99.6137 24.4494C102.245 24.4494 107.988 24.3174 107.988 20.6798V19.4913C107.988 18.0026 106.992 17.6064 105.012 17.6064H100.659C100.069 17.6064 100.069 19.2151 100.659 19.2151H101.987C102.528 19.2151 102.59 19.3232 102.59 19.8034V20.8238C102.59 22.0844 101.397 22.7567 99.6137 22.7567C97.8306 22.7567 97.1911 22.0724 97.1911 20.8238V15.6016C97.1911 14.341 98.1257 13.8848 100.216 13.8848H105.566C106.66 13.8848 106.66 12 105.566 12H99.835V12.012ZM111.345 12.012C110.595 12.012 110.607 12.3121 110.792 12.9244L113.989 22.3965C114.42 23.561 115.354 24.3294 117.187 24.3294C119.019 24.3294 119.892 23.549 120.322 22.5046C120.322 22.5046 121.589 18.807 121.81 18.1467C121.958 17.6905 122.327 17.6905 122.474 18.1467C122.659 18.7109 123.913 22.3965 123.913 22.3965C124.528 23.6211 125.18 24.3294 127.049 24.3294C129.25 24.3294 130.209 23.453 130.578 22.3965C130.812 21.7362 132.509 16.0818 133.554 12.8164C133.763 12.1801 133.702 12.012 133.112 12.012H131.181C130.578 14.0049 128.721 19.9955 128.648 20.2476C128.512 20.7038 128.168 20.6918 127.984 20.2476C127.861 19.9355 125.782 14.389 125.45 13.5247C125.106 12.6603 124.159 12.024 123.077 12.024C122.105 12.024 121.195 12.5402 120.876 13.5247C120.556 14.5091 118.81 19.9835 118.724 20.2476C118.588 20.7038 118.207 20.7038 118.06 20.2476C117.961 19.9715 116.067 13.9208 115.465 12.012H111.345ZM145.237 12.012C142.236 12.012 137.465 11.988 137.465 15.6136V23.1408C137.465 23.8972 138.043 24.3294 139.998 24.3294C141.953 24.3294 142.531 23.8011 142.531 23.1408V19.6953C142.531 19.2031 142.654 19.1071 143.195 19.1071H147.167C147.708 19.1071 147.831 19.2151 147.831 19.6953V23.1408C147.831 23.8011 148.409 24.3294 150.365 24.3294C152.32 24.3294 152.898 23.9092 152.898 23.1408V15.6136C152.898 11.988 148.237 12.012 145.237 12.012ZM156.206 12.012C155.714 12.012 155.505 12.3722 155.874 12.8164C157.116 14.329 160.03 17.8946 160.227 18.1467C160.473 18.4468 160.83 18.867 160.83 19.3352V23.1529C160.83 23.8131 161.469 24.3414 163.424 24.3414C165.38 24.3414 166.068 23.9212 166.068 23.1529V19.011C166.068 18.5188 166.4 18.2547 166.671 17.9306C166.868 17.6785 169.622 14.377 170.914 12.8164C171.282 12.3602 171.086 12.012 170.581 12.012H168.27C168.27 12.012 165.306 15.8057 165.072 16.1058C164.839 16.4059 164.371 16.3939 164.138 16.1058C163.904 15.8177 161.051 12.012 161.051 12.012H156.206ZM172.844 12.012C172.205 12.012 171.688 12.5282 171.688 13.1405C171.688 13.7528 172.205 14.269 172.844 14.269C173.471 14.269 174 13.7528 174 13.1405C174 12.5162 173.484 12.012 172.844 12.012ZM172.844 12.2761C173.311 12.2761 173.73 12.6843 173.73 13.1405C173.73 13.5967 173.311 13.9448 172.844 13.9448C172.377 13.9448 172.02 13.5967 172.02 13.1405C172.02 12.6843 172.377 12.2761 172.844 12.2761ZM172.352 12.7083C172.315 12.7083 172.303 12.7203 172.303 12.7563V13.4526C172.303 13.5007 172.34 13.5007 172.463 13.5007C172.598 13.5007 172.623 13.4886 172.623 13.4526V12.8644C172.623 12.8284 172.635 12.8164 172.672 12.8164H172.832C172.943 12.8164 172.992 12.8764 172.992 12.9244C172.992 13.0084 172.856 13.0324 172.721 13.0324H172.672C172.611 13.0324 172.623 13.2125 172.672 13.2485C172.807 13.3566 172.93 13.4646 173.004 13.5127C173.029 13.5367 173.078 13.5127 173.115 13.5127H173.447C173.484 13.5127 173.484 13.4886 173.447 13.4646L173.004 13.1405C173.115 13.1405 173.447 13.1525 173.447 12.9244C173.447 12.7683 173.238 12.7083 172.955 12.7083H172.352ZM145.237 13.6207C147.266 13.6207 147.831 14.1489 147.831 15.3975V16.8981C147.831 17.4264 147.721 17.4864 147.229 17.4864H143.208C142.667 17.4864 142.544 17.3783 142.544 16.8981V15.3975C142.544 14.1489 143.208 13.6207 145.237 13.6207Z" fill="white"/>
<path d="M58.4838 30.2614C57.6438 30.2614 57.0002 30.5177 56.5529 31.0305C56.1056 31.5432 55.882 32.2686 55.882 33.2068C55.882 34.1559 56.1274 34.8868 56.6183 35.3996C57.1202 35.9123 57.7911 36.1686 58.6311 36.1686C59.0783 36.1686 59.4547 36.1086 59.7602 35.9886C60.0765 35.8686 60.3765 35.7323 60.6602 35.5796C60.8456 35.7323 60.9874 35.9177 61.0856 36.1359C61.1947 36.3432 61.2493 36.5886 61.2493 36.8723C61.2493 37.3196 60.9983 37.7014 60.4965 38.0177C60.0056 38.3232 59.2529 38.4759 58.2383 38.4759C57.5074 38.4759 56.8202 38.3723 56.1765 38.165C55.5329 37.9577 54.9711 37.6414 54.4911 37.2159C54.0111 36.7796 53.6293 36.2341 53.3456 35.5796C53.0729 34.9141 52.9365 34.1232 52.9365 33.2068C52.9365 32.3559 53.0674 31.6086 53.3293 30.965C53.602 30.3105 53.9674 29.7596 54.4256 29.3123C54.8947 28.865 55.4402 28.5268 56.062 28.2977C56.6838 28.0686 57.3493 27.9541 58.0583 27.9541C59.062 27.9541 59.8365 28.1177 60.382 28.445C60.9383 28.7723 61.2165 29.1923 61.2165 29.705C61.2165 29.9886 61.1456 30.2341 61.0038 30.4414C60.862 30.6486 60.6983 30.8123 60.5129 30.9323C60.2293 30.7468 59.9238 30.5886 59.5965 30.4577C59.2802 30.3268 58.9093 30.2614 58.4838 30.2614Z" fill="white"/>
<path d="M65.1264 28.5596C65.3119 28.4505 65.59 28.3468 65.961 28.2486C66.3428 28.1505 66.7246 28.1014 67.1064 28.1014C67.6519 28.1014 68.1319 28.1832 68.5464 28.3468C68.9719 28.4996 69.2446 28.745 69.3646 29.0832C69.561 29.6505 69.7737 30.3105 70.0028 31.0632C70.2319 31.8159 70.461 32.5959 70.69 33.4032C70.9191 34.1996 71.1428 34.9905 71.361 35.7759C71.5791 36.5505 71.77 37.2377 71.9337 37.8377C71.8028 37.9905 71.6064 38.1105 71.3446 38.1977C71.0828 38.2959 70.7719 38.345 70.4119 38.345C70.15 38.345 69.9264 38.3232 69.741 38.2796C69.5664 38.2359 69.4191 38.1705 69.2991 38.0832C69.19 37.9959 69.0973 37.8814 69.021 37.7396C68.9555 37.5977 68.8955 37.4341 68.841 37.2486L68.5464 36.1196H65.5846C65.4973 36.4468 65.41 36.785 65.3228 37.1341C65.2355 37.4832 65.1482 37.8214 65.061 38.1486C64.9082 38.2032 64.7446 38.2468 64.57 38.2796C64.4064 38.3232 64.2046 38.345 63.9646 38.345C63.4082 38.345 62.9937 38.2523 62.721 38.0668C62.4591 37.8705 62.3282 37.6032 62.3282 37.265C62.3282 37.1123 62.35 36.9596 62.3937 36.8068C62.4373 36.6541 62.4864 36.4741 62.541 36.2668C62.6173 35.9723 62.721 35.6068 62.8519 35.1705C62.9937 34.7341 63.1464 34.265 63.31 33.7632C63.4737 33.2505 63.6482 32.7268 63.8337 32.1923C64.0191 31.6577 64.1937 31.1559 64.3573 30.6868C64.521 30.2068 64.6682 29.7814 64.7991 29.4105C64.941 29.0396 65.05 28.7559 65.1264 28.5596ZM67.09 30.6705C66.9373 31.1286 66.7628 31.6414 66.5664 32.2086C66.381 32.765 66.2119 33.3323 66.0591 33.9105H68.0882C67.9355 33.3214 67.7773 32.7486 67.6137 32.1923C67.461 31.625 67.3191 31.1177 67.1882 30.6705H67.09Z" fill="white"/>
<path d="M74.7966 38.2305C74.3275 38.2305 73.9566 38.0941 73.6838 37.8214C73.4111 37.5486 73.2747 37.1777 73.2747 36.7086V28.2486C73.3947 28.2268 73.5856 28.1996 73.8475 28.1668C74.1093 28.1232 74.3602 28.1014 74.6002 28.1014C74.8511 28.1014 75.0693 28.1232 75.2547 28.1668C75.4511 28.1996 75.6147 28.265 75.7456 28.3632C75.8766 28.4614 75.9747 28.5977 76.0402 28.7723C76.1056 28.9468 76.1384 29.1759 76.1384 29.4596V35.9232H79.8856C79.962 36.0432 80.0329 36.2068 80.0984 36.4141C80.1638 36.6105 80.1966 36.8177 80.1966 37.0359C80.1966 37.4723 80.1038 37.7832 79.9184 37.9686C79.7329 38.1432 79.4875 38.2305 79.182 38.2305H74.7966Z" fill="white"/>
<path d="M84.5279 38.1159C84.4079 38.1486 84.217 38.1814 83.9552 38.2141C83.7043 38.2468 83.4534 38.2632 83.2025 38.2632C82.9516 38.2632 82.7279 38.2414 82.5316 38.1977C82.3461 38.165 82.1879 38.0996 82.057 38.0014C81.9261 37.9032 81.8279 37.7668 81.7625 37.5923C81.697 37.4177 81.6643 37.1886 81.6643 36.905V28.265C81.7843 28.2432 81.9752 28.2159 82.237 28.1832C82.4988 28.1396 82.7498 28.1177 82.9897 28.1177C83.2407 28.1177 83.4588 28.1396 83.6443 28.1832C83.8407 28.2159 84.0043 28.2814 84.1352 28.3796C84.2661 28.4777 84.3643 28.6141 84.4297 28.7886C84.4952 28.9632 84.5279 29.1923 84.5279 29.4759V38.1159Z" fill="white"/>
<path d="M93.621 28.265C93.6974 28.385 93.7628 28.5486 93.8174 28.7559C93.8828 28.9523 93.9155 29.1596 93.9155 29.3777C93.9155 29.8032 93.8228 30.1086 93.6374 30.2941C93.4628 30.4686 93.2228 30.5559 92.9174 30.5559H89.481V32.405H93.0646C93.1519 32.525 93.2228 32.6832 93.2774 32.8796C93.3428 33.0759 93.3755 33.2832 93.3755 33.5014C93.3755 33.9159 93.2828 34.2159 93.0974 34.4014C92.9228 34.5759 92.6828 34.6632 92.3774 34.6632H89.5137V38.1159C89.3937 38.1486 89.2028 38.1814 88.941 38.2141C88.6901 38.2468 88.4392 38.2632 88.1883 38.2632C87.9374 38.2632 87.7137 38.2414 87.5174 38.1977C87.3319 38.165 87.1737 38.0996 87.0428 38.0014C86.9119 37.9032 86.8137 37.7668 86.7483 37.5923C86.6828 37.4177 86.6501 37.1886 86.6501 36.905V29.7868C86.6501 29.3177 86.7865 28.9468 87.0592 28.6741C87.3319 28.4014 87.7028 28.265 88.1719 28.265H93.621Z" fill="white"/>
<path d="M94.7725 33.2068C94.7725 32.3559 94.9034 31.6032 95.1652 30.9486C95.4379 30.2941 95.8034 29.7486 96.2616 29.3123C96.7306 28.865 97.2761 28.5268 97.8979 28.2977C98.5306 28.0686 99.2125 27.9541 99.9434 27.9541C100.674 27.9541 101.351 28.0686 101.972 28.2977C102.605 28.5268 103.156 28.865 103.625 29.3123C104.094 29.7486 104.46 30.2941 104.722 30.9486C104.994 31.6032 105.131 32.3559 105.131 33.2068C105.131 34.0577 105 34.8159 104.738 35.4814C104.476 36.1359 104.111 36.6868 103.642 37.1341C103.183 37.5705 102.638 37.9032 102.005 38.1323C101.372 38.3614 100.685 38.4759 99.9434 38.4759C99.2016 38.4759 98.5143 38.3614 97.8815 38.1323C97.2488 37.8923 96.7034 37.5486 96.2452 37.1014C95.787 36.6541 95.427 36.1032 95.1652 35.4486C94.9034 34.7941 94.7725 34.0468 94.7725 33.2068ZM97.7179 33.2068C97.7179 34.1996 97.9197 34.9414 98.3234 35.4323C98.727 35.9232 99.267 36.1686 99.9434 36.1686C100.631 36.1686 101.176 35.9232 101.58 35.4323C101.983 34.9414 102.185 34.1996 102.185 33.2068C102.185 32.225 101.983 31.4886 101.58 30.9977C101.187 30.5068 100.647 30.2614 99.9597 30.2614C99.2834 30.2614 98.7379 30.5068 98.3234 30.9977C97.9197 31.4777 97.7179 32.2141 97.7179 33.2068Z" fill="white"/>
<path d="M109.616 34.9741V38.1159C109.496 38.1486 109.305 38.1814 109.044 38.2141C108.793 38.2468 108.542 38.2632 108.291 38.2632C108.04 38.2632 107.816 38.2414 107.62 38.1977C107.435 38.165 107.276 38.0996 107.145 38.0014C107.025 37.9032 106.933 37.7668 106.867 37.5923C106.802 37.4177 106.769 37.1886 106.769 36.905V29.1977C106.769 28.9686 106.829 28.7941 106.949 28.6741C107.08 28.5432 107.255 28.4396 107.473 28.3632C107.844 28.2323 108.275 28.1396 108.765 28.085C109.256 28.0196 109.78 27.9868 110.336 27.9868C111.842 27.9868 112.976 28.3032 113.74 28.9359C114.504 29.5686 114.885 30.425 114.885 31.505C114.885 32.1814 114.711 32.7596 114.362 33.2396C114.013 33.7196 113.598 34.0905 113.118 34.3523C113.511 34.8868 113.898 35.3886 114.28 35.8577C114.662 36.3268 114.962 36.7523 115.18 37.1341C115.071 37.5159 114.869 37.8105 114.575 38.0177C114.291 38.2141 113.969 38.3123 113.609 38.3123C113.369 38.3123 113.162 38.285 112.987 38.2305C112.813 38.1759 112.66 38.0996 112.529 38.0014C112.398 37.9032 112.278 37.7832 112.169 37.6414C112.06 37.4996 111.956 37.3468 111.858 37.1832L110.484 34.9741H109.616ZM110.647 32.7977C111.062 32.7977 111.389 32.6941 111.629 32.4868C111.869 32.2686 111.989 31.9523 111.989 31.5377C111.989 31.1232 111.853 30.8123 111.58 30.605C111.318 30.3868 110.898 30.2777 110.32 30.2777C110.156 30.2777 110.025 30.2832 109.927 30.2941C109.829 30.305 109.72 30.3214 109.6 30.3432V32.7977H110.647Z" fill="white"/>
<path d="M125.724 37.8377C125.572 37.9905 125.348 38.105 125.053 38.1814C124.77 38.2686 124.426 38.3123 124.022 38.3123C123.619 38.3123 123.237 38.2523 122.877 38.1323C122.517 38.0123 122.222 37.7232 121.993 37.265L120.373 33.9596C120.21 33.6214 120.062 33.305 119.932 33.0105C119.801 32.705 119.659 32.3559 119.506 31.9632L119.408 31.9796C119.452 32.5686 119.473 33.1686 119.473 33.7796C119.484 34.3905 119.49 34.9905 119.49 35.5796V38.1159C119.37 38.1486 119.184 38.1814 118.933 38.2141C118.693 38.2468 118.453 38.2632 118.213 38.2632C117.973 38.2632 117.761 38.2468 117.575 38.2141C117.39 38.1814 117.237 38.1159 117.117 38.0177C116.997 37.9196 116.904 37.7886 116.839 37.625C116.773 37.4505 116.741 37.2268 116.741 36.9541V28.7723C116.893 28.5541 117.128 28.3905 117.444 28.2814C117.761 28.1723 118.099 28.1177 118.459 28.1177C118.862 28.1177 119.244 28.1832 119.604 28.3141C119.975 28.4341 120.27 28.7177 120.488 29.165L122.124 32.4705C122.288 32.8086 122.435 33.1305 122.566 33.4359C122.697 33.7305 122.839 34.0741 122.992 34.4668L123.073 34.4505C123.03 33.8614 123.002 33.2723 122.992 32.6832C122.981 32.0941 122.975 31.505 122.975 30.9159V28.265C123.095 28.2323 123.275 28.1996 123.515 28.1668C123.766 28.1341 124.012 28.1177 124.252 28.1177C124.732 28.1177 125.097 28.205 125.348 28.3796C125.599 28.5432 125.724 28.8923 125.724 29.4268V37.8377Z" fill="white"/>
<path d="M130.71 38.1159C130.59 38.1486 130.4 38.1814 130.138 38.2141C129.887 38.2468 129.636 38.2632 129.385 38.2632C129.134 38.2632 128.91 38.2414 128.714 38.1977C128.529 38.165 128.37 38.0996 128.24 38.0014C128.109 37.9032 128.01 37.7668 127.945 37.5923C127.88 37.4177 127.847 37.1886 127.847 36.905V28.265C127.967 28.2432 128.158 28.2159 128.42 28.1832C128.681 28.1396 128.932 28.1177 129.172 28.1177C129.423 28.1177 129.641 28.1396 129.827 28.1832C130.023 28.2159 130.187 28.2814 130.318 28.3796C130.449 28.4777 130.547 28.6141 130.612 28.7886C130.678 28.9632 130.71 29.1923 130.71 29.4759V38.1159Z" fill="white"/>
<path d="M134.944 28.5596C135.129 28.4505 135.407 28.3468 135.778 28.2486C136.16 28.1505 136.542 28.1014 136.924 28.1014C137.469 28.1014 137.949 28.1832 138.364 28.3468C138.789 28.4996 139.062 28.745 139.182 29.0832C139.378 29.6505 139.591 30.3105 139.82 31.0632C140.049 31.8159 140.278 32.5959 140.507 33.4032C140.736 34.1996 140.96 34.9905 141.178 35.7759C141.396 36.5505 141.587 37.2377 141.751 37.8377C141.62 37.9905 141.424 38.1105 141.162 38.1977C140.9 38.2959 140.589 38.345 140.229 38.345C139.967 38.345 139.744 38.3232 139.558 38.2796C139.384 38.2359 139.236 38.1705 139.116 38.0832C139.007 37.9959 138.914 37.8814 138.838 37.7396C138.773 37.5977 138.713 37.4341 138.658 37.2486L138.364 36.1196H135.402C135.314 36.4468 135.227 36.785 135.14 37.1341C135.053 37.4832 134.965 37.8214 134.878 38.1486C134.725 38.2032 134.562 38.2468 134.387 38.2796C134.224 38.3232 134.022 38.345 133.782 38.345C133.225 38.345 132.811 38.2523 132.538 38.0668C132.276 37.8705 132.145 37.6032 132.145 37.265C132.145 37.1123 132.167 36.9596 132.211 36.8068C132.254 36.6541 132.304 36.4741 132.358 36.2668C132.434 35.9723 132.538 35.6068 132.669 35.1705C132.811 34.7341 132.964 34.265 133.127 33.7632C133.291 33.2505 133.465 32.7268 133.651 32.1923C133.836 31.6577 134.011 31.1559 134.174 30.6868C134.338 30.2068 134.485 29.7814 134.616 29.4105C134.758 29.0396 134.867 28.7559 134.944 28.5596ZM136.907 30.6705C136.754 31.1286 136.58 31.6414 136.384 32.2086C136.198 32.765 136.029 33.3323 135.876 33.9105H137.905C137.753 33.3214 137.594 32.7486 137.431 32.1923C137.278 31.625 137.136 31.1177 137.005 30.6705H136.907Z" fill="white"/>
</g>
<defs>
<clipPath id="clip0_136_6967">
<rect width="174" height="50.7273" fill="white"/>
</clipPath>
</defs>
</svg>
