<svg width="22" height="22" viewBox="0 0 22 22" fill="none" xmlns="http://www.w3.org/2000/svg">
<g clip-path="url(#clip0_195_2542)">
<path d="M11.2165 22.0004C11.1437 22.0004 11.0708 22.0004 10.9975 22C9.27303 22.0042 7.67966 21.9604 6.1301 21.8661C4.70944 21.7797 3.41266 21.2887 2.37973 20.4464C1.38306 19.6337 0.702438 18.5348 0.356842 17.1807C0.0560608 16.0017 0.0401154 14.8444 0.0248413 13.725C0.0137634 12.9219 0.00234985 11.9702 0 11.0024C0.00234985 10.0306 0.0137634 9.07886 0.0248413 8.27571C0.0401154 7.15651 0.0560608 5.99921 0.356842 4.82008C0.702438 3.4659 1.38306 2.367 2.37973 1.55429C3.41266 0.712036 4.70944 0.221084 6.13026 0.134643C7.67982 0.0404809 9.27353 -0.00349495 11.0017 0.00070122C12.7266 -0.00299141 14.3195 0.0404809 15.8691 0.134643C17.2897 0.221084 18.5865 0.712036 19.6194 1.55429C20.6163 2.367 21.2967 3.4659 21.6423 4.82008C21.9431 5.99904 21.959 7.15651 21.9743 8.27571C21.9854 9.07886 21.997 10.0306 21.9992 10.9984V11.0024C21.997 11.9702 21.9854 12.9219 21.9743 13.725C21.959 14.8442 21.9433 16.0015 21.6423 17.1807C21.2967 18.5348 20.6163 19.6337 19.6194 20.4464C18.5865 21.2887 17.2897 21.7797 15.8691 21.8661C14.3851 21.9564 12.8607 22.0004 11.2165 22.0004ZM10.9975 20.2813C12.6939 20.2853 14.2515 20.2425 15.7647 20.1505C16.8389 20.0852 17.7703 19.7366 18.5333 19.1144C19.2386 18.5392 19.7243 17.7456 19.9769 16.7557C20.2274 15.7743 20.2418 14.7205 20.2557 13.7015C20.2666 12.9038 20.2781 11.9588 20.2804 11.0004C20.2781 10.0418 20.2666 9.09699 20.2557 8.29921C20.2418 7.28021 20.2274 6.22647 19.9769 5.2449C19.7243 4.25494 19.2386 3.46136 18.5333 2.88615C17.7703 2.26411 16.8389 1.9155 15.7647 1.8502C14.2515 1.75806 12.6939 1.71559 11.0015 1.71928C9.30542 1.71526 7.74763 1.75806 6.2345 1.8502C5.16028 1.9155 4.2289 2.26411 3.46587 2.88615C2.76057 3.46136 2.27483 4.25494 2.02222 5.2449C1.77179 6.22647 1.75735 7.28005 1.74342 8.29921C1.73251 9.09766 1.7211 10.0431 1.71875 11.0024C1.7211 11.9574 1.73251 12.9031 1.74342 13.7015C1.75735 14.7205 1.77179 15.7743 2.02222 16.7557C2.27483 17.7456 2.76057 18.5392 3.46587 19.1144C4.2289 19.7365 5.16028 20.0851 6.2345 20.1504C7.74763 20.2425 9.30576 20.2855 10.9975 20.2813ZM10.9565 16.3715C7.99504 16.3715 5.58543 13.962 5.58543 11.0004C5.58543 8.03871 7.99504 5.62927 10.9565 5.62927C13.9182 5.62927 16.3276 8.03871 16.3276 11.0004C16.3276 13.962 13.9182 16.3715 10.9565 16.3715ZM10.9565 7.34802C8.9427 7.34802 7.30418 8.98654 7.30418 11.0004C7.30418 13.0142 8.9427 14.6527 10.9565 14.6527C12.9705 14.6527 14.6089 13.0142 14.6089 11.0004C14.6089 8.98654 12.9705 7.34802 10.9565 7.34802ZM16.9292 3.91052C16.2173 3.91052 15.6401 4.48758 15.6401 5.19959C15.6401 5.91159 16.2173 6.48865 16.9292 6.48865C17.6412 6.48865 18.2182 5.91159 18.2182 5.19959C18.2182 4.48758 17.6412 3.91052 16.9292 3.91052Z" fill="white"/>
</g>
<defs>
<clipPath id="clip0_195_2542">
<rect width="22" height="22" fill="white"/>
</clipPath>
</defs>
</svg>
