<svg width="12" height="15" viewBox="0 0 12 15" fill="none" xmlns="http://www.w3.org/2000/svg">
<path d="M3.96805 5.68455C4.00954 5.713 4.05601 5.72723 4.10248 5.72723C4.14715 5.72723 4.19202 5.71393 4.23251 5.68758C4.83062 5.29603 5.5111 5.08894 6.20016 5.08894C6.88922 5.08894 7.5699 5.29603 8.16781 5.68758C8.25018 5.74145 8.3507 5.74029 8.43227 5.68455C8.51364 5.62881 8.5637 5.52667 8.5637 5.41636V4.13955C8.5637 3.06003 7.91106 2.77246 6.98787 2.77246H5.60915C4.68596 2.77246 3.83643 3.06003 3.83643 4.13955V5.4166C3.83663 5.52667 3.88668 5.62881 3.96805 5.68455Z" stroke="#009EFF"/>
<path d="M10.1681 5.99523V3.97641C10.1681 2.33526 8.7402 1 6.98517 1H5.41483C3.6598 1 2.23188 2.33526 2.23188 3.97641V5.99523C1.4366 6.87252 1 7.9841 1 9.13732C1 11.8187 3.33269 14 6.19989 14C9.06708 14 11.4 11.8187 11.4 9.13732C11.4 7.9841 10.9634 6.87252 10.1681 5.99523Z" stroke="#009EFF"/>
</svg>
