<svg width="13" height="13" viewBox="0 0 13 13" fill="none" xmlns="http://www.w3.org/2000/svg">
<path d="M2.84375 7.3125H10.1562C11.7244 7.3125 13 6.03687 13 4.46875C13 2.90062 11.7244 1.625 10.1562 1.625H3.25C3.25 0.727188 2.52281 0 1.625 0C0.727188 0 0 0.727188 0 1.625C0 2.52281 0.727188 3.25 1.625 3.25C2.22462 3.25 2.743 2.92094 3.02494 2.4375H10.1562C11.2759 2.4375 12.1875 3.34912 12.1875 4.46875C12.1875 5.58838 11.2759 6.5 10.1562 6.5H2.84375C1.27562 6.5 0 7.77563 0 9.34375C0 10.9119 1.27562 12.1875 2.84375 12.1875H9.97506C10.2562 12.6709 10.7746 13 11.375 13C12.2728 13 13 12.2728 13 11.375C13 10.4772 12.2728 9.75 11.375 9.75C10.4772 9.75 9.75 10.4772 9.75 11.375H2.84375C1.72413 11.375 0.8125 10.4634 0.8125 9.34375C0.8125 8.22412 1.72413 7.3125 2.84375 7.3125Z" fill="#009EFF"/>
</svg>
