<svg width="12" height="15" viewBox="0 0 12 15" fill="none" xmlns="http://www.w3.org/2000/svg">
<path d="M9.625 5.10487V4.25C9.625 3.26163 9.24766 2.30998 8.57013 1.60535C7.89195 0.90005 6.96788 0.5 6 0.5C5.03212 0.5 4.10805 0.90005 3.42987 1.60535C2.75234 2.30998 2.375 3.26163 2.375 4.25V5.10487C1.927 5.20438 1.51421 5.43612 1.18876 5.77459C0.745648 6.23542 0.5 6.85641 0.5 7.5V12.05C0.5 12.6936 0.745648 13.3146 1.18876 13.7754C1.63251 14.2369 2.23864 14.5 2.875 14.5H9.125C9.76136 14.5 10.3675 14.2369 10.8112 13.7754C11.2544 13.3146 11.5 12.6936 11.5 12.05V7.5C11.5 6.85641 11.2544 6.23542 10.8112 5.77459C10.4858 5.43612 10.073 5.20438 9.625 5.10487ZM5.17417 3.56237C5.17417 3.2863 5.39807 3.06237 5.67429 3.06237H5.67508H5.67587H5.67666H5.67745H5.67824H5.67903H5.67982H5.68061H5.68139H5.68218H5.68297H5.68375H5.68454H5.68533H5.68611H5.68689H5.68768H5.68846H5.68924H5.69003H5.69081H5.69159H5.69237H5.69315H5.69393H5.69471H5.69549H5.69627H5.69705H5.69783H5.69861H5.69939H5.70016H5.70094H5.70172H5.70249H5.70327H5.70404H5.70482H5.70559H5.70636H5.70714H5.70791H5.70868H5.70945H5.71022H5.71099H5.71176H5.71253H5.7133H5.71407H5.71484H5.71561H5.71638H5.71714H5.71791H5.71867H5.71944H5.7202H5.72097H5.72173H5.7225H5.72326H5.72402H5.72479H5.72555H5.72631H5.72707H5.72783H5.72859H5.72935H5.73011H5.73087H5.73162H5.73238H5.73314H5.73389H5.73465H5.7354H5.73616H5.73691H5.73767H5.73842H5.73917H5.73993H5.74068H5.74143H5.74218H5.74293H5.74368H5.74443H5.74518H5.74593H5.74667H5.74742H5.74817H5.74891H5.74966H5.7504H5.75115H5.75189H5.75264H5.75338H5.75412H5.75486H5.75561H5.75635H5.75709H5.75783H5.75857H5.75931H5.76004H5.76078H5.76152H5.76225H5.76299H5.76373H5.76446H5.7652H5.76593H5.76666H5.7674H5.76813H5.76886H5.76959H5.77032H5.77105H5.77178H5.77251H5.77324H5.77397H5.77469H5.77542H5.77615H5.77687H5.7776H5.77832H5.77905H5.77977H5.78049H5.78121H5.78194H5.78266H5.78338H5.7841H5.78482H5.78554H5.78625H5.78697H5.78769H5.7884H5.78912H5.78984H5.79055H5.79126H5.79198H5.79269H5.7934H5.79412H5.79483H5.79554H5.79625H5.79696H5.79767H5.79837H5.79908H5.79979H5.80049H5.8012H5.80191H5.80261H5.80331H5.80402H5.80472H5.80542H5.80612H5.80683H5.80753H5.80823H5.80892H5.80962H5.81032H5.81102H5.81171H5.81241H5.81311H5.8138H5.8145H5.81519H5.81588H5.81657H5.81727H5.81796H5.81865H5.81934H5.82003H5.82071H5.8214H5.82209H5.82278H5.82346H5.82415H5.82483H5.82552H5.8262H5.82688H5.82756H5.82825H5.82893H5.82961H5.83029H5.83097H5.83164H5.83232H5.833H5.83367H5.83435H5.83502H5.8357H5.83637H5.83705H5.83772H5.83839H5.83906H5.83973H5.8404H5.84107H5.84174H5.84241H5.84307H5.84374H5.8444H5.84507H5.84573H5.8464H5.84706H5.84772H5.84838H5.84904H5.8497H5.85036H5.85102H5.85168H5.85234H5.853H5.85365H5.85431H5.85496H5.85562H5.85627H5.85692H5.85757H5.85822H5.85887H5.85952H5.86017H5.86082H5.86147H5.86212H5.86276H5.86341H5.86405H5.8647H5.86534H5.86598H5.86663H5.86727H5.86791H5.86855H5.86919H5.86983H5.87046H5.8711H5.87174H5.87237H5.87301H5.87364H5.87427H5.87491H5.87554H5.87617H5.8768H5.87743H5.87806H5.87869H5.87931H5.87994H5.88057H5.88119H5.88182H5.88244H5.88306H5.88369H5.88431H5.88493H5.88555H5.88617H5.88679H5.8874H5.88802H5.88864H5.88925H5.88987H5.89048H5.8911H5.89171H5.89232H5.89293H5.89354H5.89415H5.89476H5.89537H5.89598H5.89658H5.89719H5.89779H5.8984H5.899H5.8996H5.9002H5.9008H5.9014H5.902H5.9026H5.9032H5.9038H5.90439H5.90499H5.90558H5.90618H5.90677H5.90736H5.90796H5.90855H5.90914H5.90973H5.91031H5.9109H5.91149H5.91208H5.91266H5.91324H5.91383H5.91441H5.91499H5.91557H5.91615H5.91673H5.91731H5.91789H5.91847H5.91904H5.91962H5.9202H5.92077H5.92134H5.92191H5.92249H5.92306H5.92363H5.9242H5.92476H5.92533H5.9259H5.92646H5.92703H5.92759H5.92816H5.92872H5.92928H5.92984H5.9304H5.93096H5.93152H5.93207H5.93263H5.93319H5.93374H5.9343H5.93485H5.9354H5.93595H5.9365H5.93705H5.9376H5.93815H5.9387H5.93924H5.93979H5.94033H5.94088H5.94142H5.94196H5.9425H5.94304H5.94358H5.94412H5.94466H5.9452H5.94573H5.94627H5.9468H5.94734H5.94787H5.9484H5.94893H5.94946H5.94999H5.95052H5.95105H5.95157H5.9521H5.95262H5.95315H5.95367H5.95419H5.95471H5.95523H5.95575H5.95627H5.95679H5.9573H5.95782H5.95833H5.95885H5.95936H5.95987H5.96038H5.9609H5.9614H5.96191H5.96242H5.96293H5.96343H5.96394H5.96444H5.96495H5.96545H5.96595H5.96645H5.96695H5.96745H5.96794H5.96844H5.96894H5.96943H5.96993H5.97042H5.97091H5.9714H5.97189H5.97238H5.97287H5.97336H5.97384H5.97433H5.97481H5.9753H5.97578H5.97626H5.97674H5.97722H5.9777H5.97818H5.97866H5.97913H5.97961H5.98008H5.98056H5.98103H5.9815H5.98197H5.98244H5.98291H5.98338H5.98384H5.98431H5.98478H5.98524H5.9857H5.98616H5.98662H5.98708H5.98754H5.988H5.98846H5.98891H5.98937H5.98982H5.99028H5.99073H5.99118H5.99163H5.99208H5.99253H5.99298H5.99342H5.99387H5.99431H5.99476H5.9952H5.99564H5.99608H5.99652H5.99696H5.9974H5.99783H5.99827H5.9987H5.99914H5.99957H6H6.00081H6.00162H6.00244H6.00325H6.00406H6.00488H6.0057H6.00651H6.00733H6.00815H6.00897H6.00979H6.01061H6.01144H6.01226H6.01308H6.01391H6.01474H6.01556H6.01639H6.01722H6.01805H6.01888H6.01971H6.02054H6.02138H6.02221H6.02305H6.02388H6.02472H6.02555H6.02639H6.02723H6.02807H6.02891H6.02975H6.0306H6.03144H6.03228H6.03313H6.03397H6.03482H6.03567H6.03652H6.03737H6.03822H6.03907H6.03992H6.04077H6.04162H6.04248H6.04333H6.04419H6.04505H6.0459H6.04676H6.04762H6.04848H6.04934H6.0502H6.05106H6.05193H6.05279H6.05366H6.05452H6.05539H6.05625H6.05712H6.05799H6.05886H6.05973H6.0606H6.06147H6.06235H6.06322H6.06409H6.06497H6.06584H6.06672H6.0676H6.06848H6.06935H6.07023H6.07111H6.072H6.07288H6.07376H6.07464H6.07553H6.07641H6.0773H6.07819H6.07907H6.07996H6.08085H6.08174H6.08263H6.08352H6.08441H6.08531H6.0862H6.08709H6.08799H6.08888H6.08978H6.09068H6.09157H6.09247H6.09337H6.09427H6.09517H6.09608H6.09698H6.09788H6.09878H6.09969H6.10059H6.1015H6.10241H6.10331H6.10422H6.10513H6.10604H6.10695H6.10786H6.10877H6.10968H6.1106H6.11151H6.11243H6.11334H6.11426H6.11517H6.11609H6.11701H6.11793H6.11885H6.11977H6.12069H6.12161H6.12253H6.12346H6.12438H6.1253H6.12623H6.12715H6.12808H6.12901H6.12993H6.13086H6.13179H6.13272H6.13365H6.13458H6.13551H6.13645H6.13738H6.13831H6.13925H6.14018H6.14112H6.14206H6.14299H6.14393H6.14487H6.14581H6.14675H6.14769H6.14863H6.14957H6.15051H6.15146H6.1524H6.15334H6.15429H6.15523H6.15618H6.15713H6.15807H6.15902H6.15997H6.16092H6.16187H6.16282H6.16377H6.16472H6.16568H6.16663H6.16758H6.16854H6.16949H6.17045H6.1714H6.17236H6.17332H6.17428H6.17523H6.17619H6.17715H6.17811H6.17908H6.18004H6.181H6.18196H6.18293H6.18389H6.18485H6.18582H6.18679H6.18775H6.18872H6.18969H6.19065H6.19162H6.19259H6.19356H6.19453H6.1955H6.19648H6.19745H6.19842H6.19939H6.20037H6.20134H6.20232H6.20329H6.20427H6.20525H6.20622H6.2072H6.20818H6.20916H6.21014H6.21112H6.2121H6.21308H6.21406H6.21505H6.21603H6.21701H6.218H6.21898H6.21997H6.22095H6.22194H6.22293H6.22391H6.2249H6.22589H6.22688H6.22787H6.22886H6.22985H6.23084H6.23183H6.23282H6.23382H6.23481H6.2358H6.2368H6.23779H6.23879H6.23978H6.24078H6.24178H6.24277H6.24377H6.24477H6.24577H6.24677H6.24777H6.24877H6.24977H6.25077H6.25177H6.25277H6.25378H6.25478H6.25578H6.25679H6.25779H6.2588H6.2598H6.26081H6.26182H6.26282H6.26383H6.26484H6.26585H6.26686H6.26787H6.26888H6.26989H6.2709H6.27191H6.27292H6.27393H6.27495H6.27596H6.27697H6.27799H6.279H6.28002H6.28103H6.28205H6.28307H6.28408H6.2851H6.28612H6.28714H6.28816H6.28918H6.29019H6.29121H6.29224H6.29326H6.29428H6.2953H6.29632H6.29734H6.29837H6.29939H6.30042H6.30144H6.30246H6.30349H6.30452H6.30554H6.30657H6.3076H6.30862H6.30965H6.31068H6.31171H6.31274H6.31377H6.3148H6.31583H6.31686H6.31789H6.31892H6.31995H6.32098H6.32202H6.32305H6.32408H6.32512H6.32615H6.32718H6.32822H6.32926H6.33029H6.33133H6.33236H6.3334H6.33444H6.33548H6.33651H6.33755H6.33859H6.33963H6.34067H6.34171H6.34275H6.34379H6.34483H6.34587H6.34691H6.34796H6.349H6.35004H6.35109H6.35213H6.35317H6.35422H6.35526H6.35631H6.35735H6.3584H6.35944H6.36049H6.36154H6.36258H6.36363H6.36468H6.36573H6.36677H6.36782H6.36887H6.36992H6.37097H6.37202H6.37307H6.37412H6.37517H6.37622H6.37728H6.37833H6.37938H6.38043H6.38149H6.38254H6.38359H6.38465H6.3857H6.38676H6.38781H6.38887H6.38992H6.39098H6.39203H6.39309H6.39415H6.3952H6.39626H6.39732H6.39837H6.39943H6.40049H6.40155H6.40261H6.40367H6.40473H6.40579H6.40685H6.40791H6.40897H6.41003H6.41109H6.41215H6.41321H6.41427H6.41534H6.4164H6.41746H6.41852H6.41959H6.42065H6.42172H6.42278H6.42384H6.42491H6.42597H6.42704H6.4281H6.42917H6.43023H6.4313H6.43237H6.43343H6.4345H6.43557H6.43664H6.4377H6.43877H6.43984H6.44091H6.44197H6.44304H6.44411H6.44518H6.44625H6.44732H6.44839H6.44946H6.45053H6.4516H6.45267H6.45374H6.45481H6.45588H6.45696H6.45803H6.4591H6.46017H6.46124H6.46232H6.46339H6.46446H6.46554H6.46661H6.46768H6.46876H6.46983H6.4709H6.47198H6.47305H6.47413H6.4752H6.47628H6.47735H6.47843H6.47951H6.48058H6.48166H6.48273H6.48381H6.48489H6.48596H6.48704H6.48812H6.48919H6.49027H6.49135H6.49243H6.4935H6.49458H6.49566H6.49674H6.49782H6.4989H6.49997C6.77613 3.06237 7 3.28624 7 3.56237V5.05H5.17417V3.56237Z" stroke="#009EFF" stroke-linejoin="round"/>
</svg>
