<svg width="18" height="18" viewBox="0 0 18 18" fill="none" xmlns="http://www.w3.org/2000/svg">
<mask id="path-1-inside-1_135_3570" fill="white">
<path d="M4.83323 2.76398C6.0666 1.93987 7.51664 1.5 9 1.5C9.98492 1.5 10.9602 1.69399 11.8701 2.0709C12.7801 2.44781 13.6069 3.00026 14.3033 3.6967C14.9997 4.39314 15.5522 5.21993 15.9291 6.12987C16.306 7.03982 16.5 8.01509 16.5 9C16.5 10.4834 16.0601 11.9334 15.236 13.1668C14.4119 14.4001 13.2406 15.3614 11.8701 15.9291C10.4997 16.4968 8.99168 16.6453 7.53683 16.3559C6.08197 16.0665 4.7456 15.3522 3.6967 14.3033C2.64781 13.2544 1.9335 11.918 1.64411 10.4632C1.35472 9.00832 1.50325 7.50032 2.07091 6.12987C2.63856 4.75943 3.59986 3.58809 4.83323 2.76398Z"/>
</mask>
<path d="M8.5 12C8.5 12.2761 8.72386 12.5 9 12.5C9.27614 12.5 9.5 12.2761 9.5 12H8.5ZM9 6.5L9.35355 6.14645C9.15829 5.95118 8.84171 5.95118 8.64645 6.14645L9 6.5ZM11.1464 9.35355C11.3417 9.54882 11.6583 9.54882 11.8536 9.35355C12.0488 9.15829 12.0488 8.84171 11.8536 8.64645L11.1464 9.35355ZM6.14645 8.64645C5.95118 8.84171 5.95118 9.15829 6.14645 9.35355C6.34171 9.54882 6.65829 9.54882 6.85355 9.35355L6.14645 8.64645ZM9.5 12V6.5H8.5V12H9.5ZM8.64645 6.85355L11.1464 9.35355L11.8536 8.64645L9.35355 6.14645L8.64645 6.85355ZM8.64645 6.14645L6.14645 8.64645L6.85355 9.35355L9.35355 6.85355L8.64645 6.14645ZM4.83323 2.76398L5.3888 3.59545H5.3888L4.83323 2.76398ZM3.6967 14.3033L2.9896 15.0104L3.6967 14.3033ZM15.9291 6.12987L15.0052 6.51256L15.9291 6.12987ZM14.3033 3.6967L13.5962 4.40381L14.3033 3.6967ZM9 0.5C7.31886 0.5 5.67547 0.998516 4.27766 1.93251L5.3888 3.59545C6.45772 2.88122 7.71442 2.5 9 2.5V0.5ZM4.27766 1.93251C2.87984 2.8665 1.79037 4.19402 1.14703 5.74719L2.99479 6.51256C3.48676 5.32484 4.31988 4.30968 5.3888 3.59545L4.27766 1.93251ZM1.14703 5.74719C0.503682 7.30036 0.335354 9.00943 0.663328 10.6583L2.6249 10.2681C2.3741 9.00721 2.50282 7.70028 2.99479 6.51256L1.14703 5.74719ZM0.663328 10.6583C0.991303 12.3071 1.80085 13.8217 2.9896 15.0104L4.40381 13.5962C3.49477 12.6872 2.8757 11.529 2.6249 10.2681L0.663328 10.6583ZM2.9896 15.0104C4.17834 16.1992 5.6929 17.0087 7.34174 17.3367L7.73192 15.3751C6.47104 15.1243 5.31285 14.5052 4.40381 13.5962L2.9896 15.0104ZM7.34174 17.3367C8.99057 17.6646 10.6996 17.4963 12.2528 16.853L11.4874 15.0052C10.2997 15.4972 8.99279 15.6259 7.73192 15.3751L7.34174 17.3367ZM12.2528 16.853C13.806 16.2096 15.1335 15.1202 16.0675 13.7223L14.4046 12.6112C13.6903 13.6801 12.6752 14.5132 11.4874 15.0052L12.2528 16.853ZM16.0675 13.7223C17.0015 12.3245 17.5 10.6811 17.5 9H15.5C15.5 10.2856 15.1188 11.5423 14.4046 12.6112L16.0675 13.7223ZM17.5 9C17.5 7.88376 17.2801 6.77846 16.853 5.74719L15.0052 6.51256C15.3319 7.30117 15.5 8.14641 15.5 9H17.5ZM16.853 5.74719C16.4258 4.71592 15.7997 3.77889 15.0104 2.98959L13.5962 4.40381C14.1998 5.00739 14.6786 5.72394 15.0052 6.51256L16.853 5.74719ZM15.0104 2.98959C14.2211 2.20029 13.2841 1.57419 12.2528 1.14702L11.4874 2.99478C12.2761 3.32144 12.9926 3.80022 13.5962 4.40381L15.0104 2.98959ZM12.2528 1.14702C11.2215 0.719859 10.1162 0.5 9 0.5V2.5C9.8536 2.5 10.6988 2.66813 11.4874 2.99478L12.2528 1.14702Z" fill="#009EFF" mask="url(#path-1-inside-1_135_3570)"/>
</svg>
