<svg width="17" height="17" viewBox="0 0 17 17" fill="none" xmlns="http://www.w3.org/2000/svg">
<path d="M13.6424 6.98926L13.6436 6.99154C13.661 7.02569 13.6687 7.06399 13.6658 7.10222C13.6628 7.14022 13.6495 7.17668 13.6273 7.20765C13.6272 7.20783 13.6271 7.20802 13.6269 7.2082L7.96192 14.9976C7.96187 14.9977 7.96182 14.9977 7.96176 14.9978C7.94239 15.0243 7.91705 15.0458 7.8878 15.0606C7.85964 15.0748 7.82863 15.0825 7.79711 15.083C7.77234 15.0821 7.74778 15.0781 7.72401 15.0711C7.68362 15.0572 7.64845 15.0312 7.62331 14.9966C7.59749 14.961 7.58357 14.9182 7.58354 14.8743V10.6247V10.1247H7.08354H3.55593C3.51812 10.1216 3.4818 10.1083 3.45092 10.0861C3.41799 10.0625 3.39268 10.0297 3.37811 9.99181L3.37108 9.97352L3.36263 9.95584C3.34681 9.92272 3.34002 9.88601 3.34295 9.84943C3.34577 9.81422 3.35749 9.78032 3.37698 9.75092L9.03853 1.9663C9.0386 1.9662 9.03867 1.9661 9.03874 1.966C9.06471 1.93059 9.10119 1.90429 9.143 1.89085C9.18492 1.87738 9.23003 1.87753 9.27186 1.8913L9.27186 1.8913L9.27372 1.8919C9.31723 1.90603 9.35488 1.93408 9.38086 1.97174C9.40684 2.00939 9.41971 2.05455 9.41747 2.10024L9.41687 2.11245V2.12467V6.37467V6.87467H9.91687H13.4576C13.4959 6.87489 13.5333 6.88565 13.5659 6.90578C13.5986 6.92601 13.6251 6.9549 13.6424 6.98926Z" stroke="#009EFF"/>
</svg>
