<svg width="13" height="13" viewBox="0 0 13 13" fill="none" xmlns="http://www.w3.org/2000/svg">
<path d="M6.5 0C5.21442 0 3.95772 0.381218 2.8888 1.09545C1.81988 1.80968 0.986755 2.82484 0.494786 4.01256C0.00281635 5.20028 -0.125905 6.50721 0.124899 7.76808C0.375702 9.02896 0.994767 10.1872 1.90381 11.0962C2.81285 12.0052 3.97104 12.6243 5.23191 12.8751C6.49279 13.1259 7.79972 12.9972 8.98744 12.5052C10.1752 12.0132 11.1903 11.1801 11.9046 10.1112C12.6188 9.04228 13 7.78558 13 6.5C12.998 4.7767 12.3126 3.12454 11.094 1.90598C9.87546 0.687424 8.2233 0.00197152 6.5 0ZM6.5 11.7C5.47154 11.7 4.46617 11.395 3.61104 10.8236C2.7559 10.2523 2.0894 9.44013 1.69583 8.48995C1.30225 7.53978 1.19928 6.49423 1.39992 5.48553C1.60056 4.47683 2.09581 3.55028 2.82305 2.82304C3.55028 2.09581 4.47683 1.60056 5.48553 1.39992C6.49423 1.19927 7.53978 1.30225 8.48995 1.69583C9.44013 2.0894 10.2523 2.7559 10.8236 3.61103C11.395 4.46617 11.7 5.47154 11.7 6.5C11.6984 7.87864 11.1501 9.20036 10.1752 10.1752C9.20037 11.1501 7.87864 11.6984 6.5 11.7ZM7.15 6.33685V3.25C7.15 3.07761 7.08152 2.91228 6.95962 2.79038C6.83772 2.66848 6.67239 2.6 6.5 2.6C6.32761 2.6 6.16228 2.66848 6.04038 2.79038C5.91848 2.91228 5.85 3.07761 5.85 3.25V6.5C5.85009 6.60705 5.87647 6.71244 5.92681 6.80691L6.90181 8.62615C6.9832 8.77817 7.12166 8.89163 7.28671 8.94157C7.45176 8.9915 7.62989 8.97383 7.78191 8.89243C7.93393 8.81104 8.04739 8.67258 8.09733 8.50753C8.14727 8.34248 8.12959 8.16435 8.0482 8.01233L7.15 6.33685Z" fill="#009EFF"/>
</svg>
