<svg width="18" height="18" viewBox="0 0 18 18" fill="none" xmlns="http://www.w3.org/2000/svg">
<path d="M8.5 7.5C8.5 7.77614 8.72386 8 9 8C9.27614 8 9.5 7.77614 9.5 7.5H8.5ZM9 2L9.35355 1.64645C9.25979 1.55268 9.13261 1.5 9 1.5C8.86739 1.5 8.74021 1.55268 8.64645 1.64645L9 2ZM11.1464 4.85355C11.3417 5.04882 11.6583 5.04882 11.8536 4.85355C12.0488 4.65829 12.0488 4.34171 11.8536 4.14645L11.1464 4.85355ZM6.14645 4.14645C5.95118 4.34171 5.95118 4.65829 6.14645 4.85355C6.34171 5.04882 6.65829 5.04882 6.85355 4.85355L6.14645 4.14645ZM9.5 7.5V2H8.5V7.5H9.5ZM8.64645 2.35355L11.1464 4.85355L11.8536 4.14645L9.35355 1.64645L8.64645 2.35355ZM8.64645 1.64645L6.14645 4.14645L6.85355 4.85355L9.35355 2.35355L8.64645 1.64645Z" fill="#009EFF"/>
<path d="M5.80626 6.65254C5.01269 7.28095 4.42328 8.13056 4.11257 9.09395C3.80186 10.0573 3.78381 11.0912 4.06069 12.0649C4.33758 13.0385 4.89696 13.9082 5.66811 14.5639C6.43926 15.2196 7.38753 15.632 8.39302 15.7488C9.39851 15.8656 10.4161 15.6816 11.317 15.2201C12.2179 14.7585 12.9617 14.0402 13.4544 13.156C13.9471 12.2717 14.1665 11.2612 14.0849 10.2523C14.0307 9.58235 13.8451 8.92966 13.5387 8.33147C13.2322 7.73329 12.811 7.20131 12.299 6.76592" stroke="#009EFF" stroke-linecap="round"/>
</svg>
