<svg width="90" height="90" viewBox="0 0 90 90" fill="none" xmlns="http://www.w3.org/2000/svg">
<path d="M61.6922 57.417C60.4699 58.3442 59.4724 59.535 58.7737 60.9008C58.0749 62.2666 57.693 63.7723 57.6562 65.3061" stroke="#009EFF" stroke-width="2" stroke-linecap="round" stroke-linejoin="round"/>
<path d="M49.2188 76.5845V80.1563C49.2188 80.9023 48.9224 81.6176 48.395 82.1451C47.8675 82.6725 47.1522 82.9688 46.4062 82.9688H43.5938C42.8478 82.9688 42.1325 82.6725 41.605 82.1451C41.0776 81.6176 40.7812 80.9023 40.7812 80.1563V76.5845C41.6358 77.0802 42.6058 77.3421 43.5938 77.3438H46.4062C47.3942 77.3421 48.3642 77.0802 49.2188 76.5845V76.5845Z" stroke="#999999" stroke-width="2" stroke-linecap="round" stroke-linejoin="round"/>
<path d="M52.0312 66.0938V71.7188C52.0312 73.2106 51.4386 74.6413 50.3837 75.6962C49.3288 76.7511 47.8981 77.3438 46.4062 77.3438H43.5938C42.1019 77.3438 40.6712 76.7511 39.6163 75.6962C38.5614 74.6413 37.9688 73.2106 37.9688 71.7188V66.0938H52.0312Z" stroke="#999999" stroke-width="2" stroke-linecap="round" stroke-linejoin="round"/>
<path d="M66.0937 36.3093C66.1312 39.5147 65.4378 42.6865 64.0659 45.5837C62.694 48.481 60.6799 51.0274 58.1765 53.0296C56.295 54.4822 54.7654 56.3404 53.7014 58.4659C52.6374 60.5914 52.0665 62.9295 52.0312 65.3062V66.0937H37.9687V65.3062C37.9941 63.0071 37.4897 60.733 36.4947 58.6601C35.4998 56.5873 34.0409 54.7714 32.2312 53.3531C29.3828 51.1865 27.1325 48.3308 25.692 45.0548C24.2515 41.7788 23.6682 38.1902 23.9969 34.6266C24.3256 31.063 25.5556 27.6416 27.5711 24.6844C29.5866 21.7272 32.3214 19.3314 35.518 17.7225C38.7147 16.1135 42.2681 15.3444 45.844 15.4873C49.4198 15.6302 52.9006 16.6806 55.9586 18.5396C59.0166 20.3985 61.5514 23.005 63.3244 26.1136C65.0975 29.2222 66.0504 32.7309 66.0937 36.3093V36.3093Z" stroke="#999999" stroke-width="2" stroke-linecap="round" stroke-linejoin="round"/>
<path d="M42.1875 66.0938V49.2188" stroke="#999999" stroke-width="2" stroke-linecap="round" stroke-linejoin="round"/>
<path d="M47.8125 66.0938V49.2188" stroke="#999999" stroke-width="2" stroke-linecap="round" stroke-linejoin="round"/>
<path d="M42.1875 49.2188L33.75 40.7812" stroke="#999999" stroke-width="2" stroke-linecap="round" stroke-linejoin="round"/>
<path d="M47.8125 49.2188L56.25 40.7812" stroke="#999999" stroke-width="2" stroke-linecap="round" stroke-linejoin="round"/>
<path d="M36.5625 21.9516C39.126 20.4656 42.037 19.6845 45 19.6875" stroke="#009EFF" stroke-width="2" stroke-linecap="round" stroke-linejoin="round"/>
<path d="M28.125 36.5623C28.1254 32.7773 29.3983 29.1023 31.7391 26.1279" stroke="#009EFF" stroke-width="2" stroke-linecap="round" stroke-linejoin="round"/>
<path d="M45 11.25V5.625" stroke="#009EFF" stroke-width="2" stroke-linecap="round" stroke-linejoin="round"/>
<path d="M27.0983 18.6608L23.1187 14.6812" stroke="#009EFF" stroke-width="2" stroke-linecap="round" stroke-linejoin="round"/>
<path d="M19.6875 36.5625H14.0625" stroke="#009EFF" stroke-width="2" stroke-linecap="round" stroke-linejoin="round"/>
<path d="M70.3125 36.5625H75.9375" stroke="#009EFF" stroke-width="2" stroke-linecap="round" stroke-linejoin="round"/>
<path d="M62.9014 18.6608L66.8811 14.6812" stroke="#009EFF" stroke-width="2" stroke-linecap="round" stroke-linejoin="round"/>
<path d="M37.9688 70.3125H52.0312" stroke="#999999" stroke-width="2" stroke-linecap="round" stroke-linejoin="round"/>
</svg>
