<svg width="100" height="100" viewBox="0 0 100 100" fill="none" xmlns="http://www.w3.org/2000/svg">
<path d="M50 48C45.578 48 42 51.584 42 56C42 60.416 45.578 64 50 64C54.422 64 58 60.416 58 56C58 51.582 54.422 48 50 48Z" stroke="#009EFF" stroke-width="2" stroke-miterlimit="10" stroke-linecap="round" stroke-linejoin="round"/>
<path d="M89.918 82.676C92.6312 78.6201 94.7436 74.129 96.1273 69.328C97.3466 65.0974 98 60.6261 98 56C98 54.8796 97.9617 53.7682 97.8863 52.667C97.6505 49.2206 97.0515 45.8746 96.1273 42.667C95.6352 40.9592 95.051 39.2906 94.3803 37.667C94.0309 36.8212 93.6581 35.9876 93.2626 35.167C92.6019 33.7961 91.8779 32.4615 91.0945 31.167C82.6881 17.2761 67.4362 8 50 8C23.472 8 2 29.472 2 56C2 65.872 4.976 75.042 10.074 82.664" stroke="#999999" stroke-width="2" stroke-miterlimit="10" stroke-linecap="round" stroke-linejoin="round"/>
<path d="M86 78.6386C86.3466 78.1269 86.6817 77.607 87.0049 77.0792C87.5899 76.124 88.1362 75.1431 88.6415 74.1386C89.2931 72.8431 89.8766 71.5083 90.3874 70.1386C90.7251 69.2331 91.031 68.3123 91.3038 67.3776C91.5665 66.4771 91.7985 65.5637 91.9985 64.6386C92.1768 63.8143 92.3296 62.9807 92.4562 62.1386C92.6144 61.0866 92.7316 60.0214 92.8063 58.9444C92.8707 58.0158 92.9034 57.0785 92.9034 56.1335M89.8116 40.667C90.3844 42.0368 90.8835 43.4444 91.3038 44.8852C91.5665 45.786 91.7985 46.6997 91.9985 47.6252C92.2128 48.6166 92.3904 49.6216 92.5298 50.6386" stroke="#009EFF" stroke-width="2" stroke-miterlimit="10" stroke-linecap="round" stroke-linejoin="round"/>
<path d="M80.6216 26.6035C81.6246 27.6982 82.5709 28.8537 83.4544 30.0669C84.0068 30.8254 84.5346 31.6065 85.0363 32.4095C85.5737 33.2698 86.0812 34.1552 86.5569 35.0648" stroke="#009EFF" stroke-width="2" stroke-miterlimit="10" stroke-linecap="round" stroke-linejoin="round"/>
<path d="M45.3804 49.4567L77.9891 33.6958L55.7065 61.6849" stroke="#009EFF" stroke-width="2"/>
</svg>
