<svg width="104" height="104" viewBox="0 0 104 104" fill="none" xmlns="http://www.w3.org/2000/svg">
<g clip-path="url(#clip0_125_993)">
<path d="M43.68 6.24017L43.68 12.4802L35.36 12.4802C30.7653 12.4802 27.04 16.2054 27.04 20.8002L27.04 87.3602C27.04 91.9549 30.7653 95.6802 35.36 95.6802L68.64 95.6802C73.2348 95.6802 76.96 91.9549 76.96 87.3602L76.96 20.8002C76.96 16.2054 73.2348 12.4802 68.64 12.4802L60.32 12.4802L60.32 6.24017L43.68 6.24017Z" stroke="#999999" stroke-width="2" stroke-miterlimit="10" stroke-linecap="round" stroke-linejoin="round"/>
<path d="M53.1698 75.2937C53.3732 75.7412 53.8717 75.9745 54.3456 75.844C54.8195 75.7135 55.1283 75.258 55.0741 74.7695L53.1174 57.1599L60.3202 57.1599C60.6602 57.1599 60.9769 56.9871 61.161 56.7013C61.345 56.4154 61.3712 56.0556 61.2305 55.7461L50.8305 32.8661C50.6271 32.4186 50.1287 32.1853 49.6548 32.3158C49.1808 32.4462 48.872 32.9018 48.9263 33.3903L50.8829 50.9999L43.6802 50.9999C43.3402 50.9999 43.0235 51.1726 42.8394 51.4585C42.6553 51.7444 42.6291 52.1042 42.7698 52.4137L53.1698 75.2937Z" stroke="#009EFF" stroke-width="2" stroke-linejoin="round"/>
<path d="M32 22V52" stroke="#009EFF" stroke-width="2" stroke-linecap="round"/>
<path d="M32 58V69" stroke="#009EFF" stroke-width="2" stroke-linecap="round"/>
</g>
<defs>
<clipPath id="clip0_125_993">
<rect width="104" height="104" fill="white" transform="translate(0 104) rotate(-90)"/>
</clipPath>
</defs>
</svg>
