<svg width="25" height="35" viewBox="0 0 25 35" fill="none" xmlns="http://www.w3.org/2000/svg">
<path d="M24.3126 0H0.687406C0.307985 0 0 0.312402 0 0.697266V34.3027C0 34.6876 0.307985 35 0.687406 35H18.6516C18.8336 35 19.0088 34.9262 19.1375 34.7956L24.7985 29.0534C24.9272 28.9229 25 28.7451 25 28.5605V0.697266C25 0.312402 24.692 0 24.3126 0ZM19.3377 32.6211L19.335 29.2537L22.6547 29.2571L19.3377 32.6211ZM23.6252 27.8633L18.6476 27.8585H18.6469C18.4649 27.8585 18.2897 27.9323 18.161 28.0629C18.0323 28.1941 17.9595 28.3712 17.9595 28.5564L17.9642 33.6055H1.37481V1.39453H23.6252V27.8633Z" fill="white"/>
<path d="M7.04264 25.1549C5.31402 25.1549 3.9082 26.5809 3.9082 28.3343C3.9082 30.0877 5.31469 31.5137 7.04264 31.5137C8.77126 31.5137 10.1771 30.0877 10.1771 28.3343C10.1777 26.5809 8.77126 25.1549 7.04264 25.1549ZM7.04264 30.1198C6.07218 30.1198 5.28234 29.3187 5.28234 28.3343C5.28234 27.3499 6.07151 26.5494 7.04264 26.5494C8.01377 26.5494 8.80294 27.3499 8.80294 28.3343C8.80294 29.3187 8.01309 30.1198 7.04264 30.1198Z" fill="white"/>
<path d="M16.005 27.7491H12.2243C11.8448 27.7491 11.5369 28.0615 11.5369 28.4464C11.5369 28.8312 11.8448 29.1436 12.2243 29.1436H16.005C16.3844 29.1436 16.6924 28.8312 16.6924 28.4464C16.6924 28.0615 16.3851 27.7491 16.005 27.7491Z" fill="white"/>
<path d="M6.79447 4.18292H4.80166C4.42224 4.18292 4.11426 4.49533 4.11426 4.88019C4.11426 5.26505 4.42224 5.57746 4.80166 5.57746H6.79514C7.17456 5.57746 7.48255 5.26505 7.48255 4.88019C7.48255 4.49533 7.17456 4.18292 6.79447 4.18292Z" fill="white"/>
<path d="M20.4733 4.18292H14.4936C14.1141 4.18292 13.8062 4.49533 13.8062 4.88019C13.8062 5.26505 14.1141 5.57746 14.4936 5.57746H20.4733C20.8527 5.57746 21.1607 5.26505 21.1607 4.88019C21.1607 4.49533 20.8527 4.18292 20.4733 4.18292Z" fill="white"/>
<path d="M20.4731 7.18115H10.3002C9.92078 7.18115 9.61279 7.49355 9.61279 7.87842C9.61279 8.26328 9.92078 8.57568 10.3002 8.57568H20.4731C20.8525 8.57568 21.1605 8.26328 21.1605 7.87842C21.1605 7.49355 20.8525 7.18115 20.4731 7.18115Z" fill="white"/>
<path d="M20.5075 12.6888H4.49234C4.11292 12.6888 3.80493 13.0012 3.80493 13.3861C3.80493 13.771 4.11292 14.0834 4.49234 14.0834H20.5075C20.887 14.0834 21.1949 13.771 21.1949 13.3861C21.1949 13.0012 20.887 12.6888 20.5075 12.6888Z" fill="white"/>
<path d="M20.5075 15.0596H4.49234C4.11292 15.0596 3.80493 15.372 3.80493 15.7568C3.80493 16.1417 4.11292 16.4541 4.49234 16.4541H20.5075C20.887 16.4541 21.1949 16.1417 21.1949 15.7568C21.1949 15.372 20.887 15.0596 20.5075 15.0596Z" fill="white"/>
<path d="M20.5075 17.6394H4.49234C4.11292 17.6394 3.80493 17.9518 3.80493 18.3367C3.80493 18.7215 4.11292 19.0339 4.49234 19.0339H20.5075C20.887 19.0339 21.1949 18.7215 21.1949 18.3367C21.1949 17.9518 20.887 17.6394 20.5075 17.6394Z" fill="white"/>
<path d="M20.5076 20.0102H20.1295C19.7501 20.0102 19.4421 20.3226 19.4421 20.7075C19.4421 21.0923 19.7501 21.4047 20.1295 21.4047H20.5076C20.887 21.4047 21.195 21.0923 21.195 20.7075C21.195 20.3219 20.887 20.0102 20.5076 20.0102Z" fill="white"/>
<path d="M17.7236 20.0102H4.49234C4.11292 20.0102 3.80493 20.3226 3.80493 20.7075C3.80493 21.0923 4.11292 21.4047 4.49234 21.4047H17.7242C18.1036 21.4047 18.4116 21.0923 18.4116 20.7075C18.411 20.3219 18.103 20.0102 17.7236 20.0102Z" fill="white"/>
</svg>
