<svg width="37" height="37" viewBox="0 0 37 37" fill="none" xmlns="http://www.w3.org/2000/svg">
<g clip-path="url(#clip0_259_6014)">
<path d="M35.8429 3.36829L33.604 1.14467C32.1444 -0.304975 29.6843 -0.389526 28.1199 0.956782L24.1863 4.34387C24.1361 4.38723 24.0924 4.43854 24.0582 4.49491L20.228 10.8312L17.7686 11.6449C17.5605 11.7135 17.4041 11.8848 17.3531 12.0958C17.3022 12.3068 17.3662 12.5301 17.5212 12.684L24.2234 19.3397C24.3435 19.4589 24.5043 19.5233 24.6702 19.5233C24.7189 19.5233 24.767 19.5175 24.815 19.5066C25.0282 19.4568 25.1999 19.3007 25.269 19.094L26.0891 16.6507L32.5621 12.7686C32.6188 12.7346 32.6705 12.6913 32.7134 12.6414L36.043 8.80916C37.3928 7.25907 37.3026 4.81793 35.8429 3.36829ZM35.0884 7.99039L31.8242 11.7468L25.2377 15.6968C25.1089 15.7741 25.0122 15.8941 24.9649 16.0357L24.3944 17.7347L22.8838 16.2345L22.8831 16.2337L20.6493 14.0152L20.6486 14.0145L19.138 12.5142L20.8487 11.9477C20.992 11.9 21.1128 11.8038 21.1907 11.6752L25.0893 5.22623L28.9479 1.90491C30.0212 0.98063 31.7093 1.03772 32.7105 2.03209L34.9494 4.25571C35.9514 5.2508 36.0132 6.92592 35.0884 7.99039Z" fill="#009EFF"/>
<path d="M34.0518 25.2149C32.1963 23.3729 29.4663 22.7319 26.9923 23.529L13.5639 10.1923C14.3657 7.73531 13.7211 5.02318 11.8663 3.18113C9.91192 1.24007 6.98611 0.632319 4.41176 1.63464C4.21311 1.71197 4.06759 1.88324 4.02393 2.09064C3.98027 2.29804 4.04503 2.51267 4.19565 2.66298L8.21508 6.65494L5.53449 9.3172L1.51506 5.32453C1.36444 5.17494 1.14761 5.11062 0.938778 5.15398C0.729948 5.19734 0.557499 5.34187 0.479643 5.53916C-0.528853 8.09519 0.0823565 11.001 2.03677 12.9428C3.89223 14.7848 6.6223 15.4258 9.09624 14.6295L14.1176 19.6165L7.86436 25.827L3.88714 28.0355C3.77654 28.0969 3.68704 28.1901 3.63028 28.3028L1.84322 31.8525C1.72171 32.0939 1.769 32.3858 1.96183 32.5766L4.19565 34.7952C4.31717 34.9159 4.4787 34.9787 4.64242 34.9787C4.73846 34.9787 4.83524 34.9571 4.92474 34.9123L8.49886 33.1374C8.61237 33.081 8.70623 32.9922 8.76808 32.8823L10.9917 28.9323L17.245 22.7225L22.5247 27.9661C21.7228 30.4231 22.3675 33.1345 24.223 34.9773C25.5516 36.2969 27.3299 37 29.141 37C29.9938 37 30.8538 36.8439 31.6775 36.5238C31.8762 36.4465 32.0217 36.2752 32.0654 36.0678C32.109 35.8604 32.0443 35.6457 31.8936 35.4954L27.8742 31.5035L30.5548 28.8412L34.5742 32.8332C34.7248 32.9828 34.9417 33.0471 35.1505 33.0037C35.3593 32.9604 35.5318 32.8158 35.6096 32.6185C36.6174 30.0618 36.0062 27.156 34.0518 25.2149ZM10.0363 28.1063C9.99487 28.1475 9.95994 28.193 9.93156 28.2436L7.76031 32.1011L4.76757 33.5876L3.1777 32.0086L4.67443 29.0363L8.55852 26.8799C8.60946 26.8517 8.65603 26.8171 8.69677 26.7759L15.0119 20.5039L16.3522 21.8351L10.0363 28.1063ZM34.7161 31.1992L31.0016 27.5101C30.7549 27.2651 30.3547 27.2651 30.108 27.5101L26.5339 31.0598C26.4153 31.1776 26.3491 31.3373 26.3491 31.5035C26.3491 31.6697 26.416 31.8294 26.5339 31.9472L30.2485 35.6364C28.4068 35.9999 26.475 35.4383 25.1165 34.0899C23.5171 32.5015 23.0173 30.1239 23.8424 28.0318C23.9341 27.7999 23.8788 27.5354 23.7012 27.359L9.70745 13.4609C9.58667 13.341 9.42513 13.2774 9.26069 13.2774C9.18356 13.2774 9.10497 13.2918 9.03003 13.3207C6.92427 14.1402 4.52963 13.6437 2.9303 12.0554C1.57182 10.7062 1.00645 8.7875 1.37317 6.95845L5.08773 10.6476C5.33439 10.8926 5.73459 10.8926 5.98126 10.6476L9.55538 7.09793C9.80204 6.85295 9.80204 6.45549 9.55538 6.2105L5.84082 2.52134C7.68246 2.15712 9.61432 2.71935 10.9728 4.06783C12.5721 5.65623 13.072 8.03377 12.2469 10.1259C12.1552 10.3578 12.2105 10.6223 12.388 10.7987L26.3818 24.6968C26.5594 24.8731 26.8257 24.928 27.0593 24.837C29.1657 24.0175 31.5596 24.5139 33.159 26.1023C34.5167 27.4515 35.0821 29.3702 34.7161 31.1992Z" fill="#999999"/>
</g>
<defs>
<clipPath id="clip0_259_6014">
<rect width="37" height="37" fill="white"/>
</clipPath>
</defs>
</svg>
