<svg width="25" height="35" viewBox="0 0 25 35" fill="none" xmlns="http://www.w3.org/2000/svg">
<path d="M24.3126 0H0.687406C0.307985 0 0 0.312402 0 0.697266V34.3027C0 34.6876 0.307985 35 0.687406 35H18.6516C18.8336 35 19.0088 34.9262 19.1375 34.7956L24.7985 29.0534C24.9272 28.9229 25 28.7451 25 28.5605V0.697266C25 0.312402 24.692 0 24.3126 0ZM19.3377 32.6211L19.335 29.2537L22.6547 29.2571L19.3377 32.6211ZM23.6252 27.8633L18.6476 27.8585H18.6469C18.4649 27.8585 18.2897 27.9323 18.161 28.0629C18.0323 28.1941 17.9595 28.3712 17.9595 28.5564L17.9642 33.6055H1.37481V1.39453H23.6252V27.8633Z" fill="#999999"/>
<path d="M7.04264 25.1549C5.31402 25.1549 3.9082 26.5809 3.9082 28.3343C3.9082 30.0877 5.31469 31.5137 7.04264 31.5137C8.77126 31.5137 10.1771 30.0877 10.1771 28.3343C10.1777 26.5809 8.77126 25.1549 7.04264 25.1549ZM7.04264 30.1198C6.07218 30.1198 5.28234 29.3187 5.28234 28.3343C5.28234 27.3499 6.07151 26.5494 7.04264 26.5494C8.01377 26.5494 8.80294 27.3499 8.80294 28.3343C8.80294 29.3187 8.01309 30.1198 7.04264 30.1198Z" fill="#00A0FF"/>
<path d="M16.0052 27.7491H12.2245C11.8451 27.7491 11.5371 28.0615 11.5371 28.4464C11.5371 28.8312 11.8451 29.1436 12.2245 29.1436H16.0052C16.3847 29.1436 16.6927 28.8312 16.6927 28.4464C16.6927 28.0615 16.3853 27.7491 16.0052 27.7491Z" fill="#999999"/>
<path d="M6.79447 4.18292H4.80166C4.42224 4.18292 4.11426 4.49533 4.11426 4.88019C4.11426 5.26505 4.42224 5.57746 4.80166 5.57746H6.79514C7.17456 5.57746 7.48255 5.26505 7.48255 4.88019C7.48255 4.49533 7.17456 4.18292 6.79447 4.18292Z" fill="#999999"/>
<path d="M20.4733 4.18292H14.4936C14.1141 4.18292 13.8062 4.49533 13.8062 4.88019C13.8062 5.26505 14.1141 5.57746 14.4936 5.57746H20.4733C20.8527 5.57746 21.1607 5.26505 21.1607 4.88019C21.1607 4.49533 20.8527 4.18292 20.4733 4.18292Z" fill="#00A0FF"/>
<path d="M20.4731 7.18115H10.3002C9.92078 7.18115 9.61279 7.49355 9.61279 7.87842C9.61279 8.26328 9.92078 8.57568 10.3002 8.57568H20.4731C20.8525 8.57568 21.1605 8.26328 21.1605 7.87842C21.1605 7.49355 20.8525 7.18115 20.4731 7.18115Z" fill="#00A0FF"/>
<path d="M20.5078 12.6888H4.49258C4.11316 12.6888 3.80518 13.0012 3.80518 13.3861C3.80518 13.771 4.11316 14.0834 4.49258 14.0834H20.5078C20.8872 14.0834 21.1952 13.771 21.1952 13.3861C21.1952 13.0012 20.8872 12.6888 20.5078 12.6888Z" fill="#999999"/>
<path d="M20.5078 15.0596H4.49258C4.11316 15.0596 3.80518 15.372 3.80518 15.7568C3.80518 16.1417 4.11316 16.4541 4.49258 16.4541H20.5078C20.8872 16.4541 21.1952 16.1417 21.1952 15.7568C21.1952 15.372 20.8872 15.0596 20.5078 15.0596Z" fill="#999999"/>
<path d="M20.5078 17.6394H4.49258C4.11316 17.6394 3.80518 17.9518 3.80518 18.3367C3.80518 18.7215 4.11316 19.0339 4.49258 19.0339H20.5078C20.8872 19.0339 21.1952 18.7215 21.1952 18.3367C21.1952 17.9518 20.8872 17.6394 20.5078 17.6394Z" fill="#999999"/>
<path d="M20.5079 20.0102H20.1298C19.7504 20.0102 19.4424 20.3226 19.4424 20.7075C19.4424 21.0923 19.7504 21.4047 20.1298 21.4047H20.5079C20.8873 21.4047 21.1953 21.0923 21.1953 20.7075C21.1953 20.3219 20.8873 20.0102 20.5079 20.0102Z" fill="#999999"/>
<path d="M17.7238 20.0102H4.49258C4.11316 20.0102 3.80518 20.3226 3.80518 20.7075C3.80518 21.0923 4.11316 21.4047 4.49258 21.4047H17.7245C18.1039 21.4047 18.4119 21.0923 18.4119 20.7075C18.4112 20.3219 18.1032 20.0102 17.7238 20.0102Z" fill="#999999"/>
</svg>
