<svg width="37" height="37" viewBox="0 0 37 37" fill="none" xmlns="http://www.w3.org/2000/svg">
<g clip-path="url(#clip0_405_10137)">
<path d="M35.8429 3.36829L33.604 1.14467C32.1444 -0.304975 29.6843 -0.389526 28.1199 0.956782L24.1863 4.34387C24.1361 4.38723 24.0924 4.43854 24.0582 4.49491L20.228 10.8312L17.7686 11.6449C17.5605 11.7135 17.4041 11.8848 17.3531 12.0958C17.3022 12.3068 17.3662 12.5301 17.5212 12.684L24.2234 19.3397C24.3435 19.4589 24.5043 19.5233 24.6702 19.5233C24.7189 19.5233 24.767 19.5175 24.815 19.5066C25.0282 19.4568 25.1999 19.3007 25.269 19.094L26.0891 16.6507L32.5621 12.7686C32.6188 12.7346 32.6705 12.6913 32.7134 12.6414L36.043 8.80916C37.3928 7.25907 37.3026 4.81793 35.8429 3.36829ZM35.0884 7.99039L31.8242 11.7468L25.2377 15.6968C25.1089 15.7741 25.0122 15.8941 24.9649 16.0357L24.3944 17.7347L22.8838 16.2345L22.8831 16.2337L20.6493 14.0152L20.6486 14.0145L19.138 12.5142L20.8487 11.9477C20.992 11.9 21.1128 11.8039 21.1907 11.6752L25.0893 5.22623L28.9479 1.90491C30.0212 0.98063 31.7093 1.03772 32.7105 2.03209L34.9494 4.25571C35.9514 5.2508 36.0132 6.92592 35.0884 7.99039Z" fill="white"/>
<path d="M34.0515 25.2149C32.1961 23.3729 29.466 22.7319 26.9921 23.529L13.5636 10.1923C14.3655 7.73531 13.7208 5.02318 11.8661 3.18113C9.91167 1.24007 6.98587 0.632319 4.41151 1.63464C4.21287 1.71197 4.06734 1.88324 4.02369 2.09064C3.98003 2.29804 4.04479 2.51267 4.19541 2.66298L8.21484 6.65494L5.53425 9.3172L1.51482 5.32453C1.3642 5.17494 1.14736 5.11062 0.938533 5.15398C0.729703 5.19734 0.557255 5.34187 0.479399 5.53916C-0.529097 8.09519 0.0821124 11.001 2.03653 12.9428C3.89199 14.7848 6.62205 15.4258 9.096 14.6295L14.1174 19.6165L7.86412 25.827L3.88689 28.0355C3.77629 28.0969 3.68679 28.1901 3.63004 28.3028L1.84298 31.8525C1.72146 32.0939 1.76876 32.3858 1.96158 32.5766L4.19541 34.7952C4.31692 34.9159 4.47846 34.9787 4.64217 34.9787C4.73822 34.9787 4.83499 34.9571 4.92449 34.9123L8.49861 33.1374C8.61212 33.081 8.70599 32.9922 8.76784 32.8823L10.9915 28.9323L17.2447 22.7225L22.5244 27.9661C21.7226 30.4231 22.3673 33.1345 24.2227 34.9773C25.5514 36.2969 27.3297 37 29.1408 37C29.9935 37 30.8536 36.8439 31.6773 36.5238C31.8759 36.4465 32.0215 36.2752 32.0651 36.0678C32.1088 35.8604 32.044 35.6457 31.8934 35.4954L27.874 31.5035L30.5545 28.8412L34.574 32.8332C34.7246 32.9828 34.9414 33.0471 35.1503 33.0037C35.3591 32.9604 35.5315 32.8158 35.6094 32.6185C36.6172 30.0618 36.006 27.156 34.0515 25.2149ZM10.0361 28.1063C9.99462 28.1475 9.9597 28.193 9.93132 28.2436L7.76007 32.1011L4.76732 33.5876L3.17745 32.0086L4.67419 29.0363L8.55828 26.8799C8.60921 26.8517 8.65578 26.8171 8.69653 26.7759L15.0116 20.5039L16.3519 21.8351L10.0361 28.1063ZM34.7159 31.1992L31.0013 27.5101C30.7546 27.2651 30.3544 27.2651 30.1078 27.5101L26.5337 31.0598C26.4151 31.1776 26.3488 31.3373 26.3488 31.5035C26.3488 31.6697 26.4158 31.8294 26.5337 31.9472L30.2482 35.6364C28.4066 35.9999 26.4747 35.4383 25.1162 34.0899C23.5169 32.5015 23.017 30.1239 23.8422 28.0318C23.9338 27.7999 23.8785 27.5354 23.701 27.359L9.70721 13.4609C9.58642 13.341 9.42489 13.2774 9.26044 13.2774C9.18331 13.2774 9.10473 13.2918 9.02978 13.3207C6.92402 14.1402 4.52939 13.6438 2.93006 12.0554C1.57157 10.7062 1.0062 8.7875 1.37293 6.95845L5.08748 10.6476C5.33415 10.8926 5.73435 10.8926 5.98101 10.6476L9.55513 7.09793C9.8018 6.85295 9.8018 6.45549 9.55513 6.21051L5.84058 2.52134C7.68221 2.15712 9.61407 2.71935 10.9726 4.06783C12.5719 5.65623 13.0718 8.03377 12.2466 10.1259C12.155 10.3578 12.2103 10.6223 12.3878 10.7986L26.3816 24.6968C26.5591 24.8731 26.8254 24.928 27.059 24.837C29.1655 24.0175 31.5594 24.5139 33.1587 26.1023C34.5165 27.4515 35.0819 29.3702 34.7159 31.1992Z" fill="white"/>
</g>
<defs>
<clipPath id="clip0_405_10137">
<rect width="37" height="37" fill="white"/>
</clipPath>
</defs>
</svg>
