<svg width="36" height="36" viewBox="0 0 36 36" fill="none" xmlns="http://www.w3.org/2000/svg">
<g clip-path="url(#clip0_125_1333)">
<path d="M17.9999 8.66602C12.8535 8.66602 8.6665 12.8524 8.6665 17.9994C8.6665 23.1458 12.8529 27.3328 17.9999 27.3328C23.1469 27.3328 27.3333 23.1458 27.3333 17.9994C27.3333 12.853 23.1463 8.66602 17.9999 8.66602ZM17.9999 25.9992C13.5888 25.9992 10 22.4105 10 17.9994C10 13.5883 13.5888 9.99952 17.9999 9.99952C22.411 9.99952 25.9997 13.5883 25.9997 17.9994C25.9997 22.4105 22.411 25.9992 17.9999 25.9992Z" fill="white"/>
<path d="M34.1459 13.9998H32.8006C32.4571 12.7251 31.9524 11.5051 31.2942 10.3616L32.2448 9.41102C32.5948 9.06103 32.7877 8.59515 32.7877 8.10046C32.7877 7.60517 32.5948 7.13988 32.2448 6.7893L29.2095 3.75406C28.5095 3.05466 27.289 3.05348 26.5878 3.75406L25.6372 4.70463C24.4931 4.0464 23.2737 3.54171 22.0002 3.19877V1.8535C21.9996 0.831163 21.1685 0 20.1461 0H15.8527C14.8309 0 13.9998 0.831163 13.9998 1.8535V3.19877C12.7257 3.5423 11.5063 4.04699 10.3616 4.70522L9.41102 3.75464C8.71045 3.05348 7.48929 3.05466 6.7893 3.75464L3.75406 6.78989C3.40406 7.13988 3.21171 7.60576 3.21171 8.10104C3.21171 8.59574 3.40465 9.06103 3.75406 9.41161L4.70463 10.3622C4.0464 11.5051 3.54112 12.7251 3.19877 13.9998H1.8535C0.831163 13.9998 0 14.8309 0 15.8533V20.1461C0 21.1685 0.831163 21.9996 1.8535 21.9996H3.19877C3.54229 23.2737 4.04699 24.4931 4.70522 25.6378L3.75464 26.5884C3.40465 26.9384 3.21171 27.4043 3.21171 27.899C3.21171 28.3942 3.40465 28.8595 3.75464 29.2101L6.78989 32.2454C7.48988 32.9459 8.71103 32.9465 9.41161 32.2454L10.3622 31.2948C11.5069 31.953 12.7263 32.4583 14.0004 32.8012V34.1465C14.0004 35.1682 14.8315 36 15.8539 36H20.1467C21.1685 36 22.0002 35.1688 22.0002 34.1465V32.8012C23.2743 32.4577 24.4937 31.953 25.6384 31.2948L26.589 32.2454C27.2901 32.9465 28.5101 32.9453 29.2107 32.2454L32.2459 29.2101C32.5959 28.8601 32.7889 28.3942 32.7889 27.899C32.7889 27.4043 32.5959 26.939 32.2459 26.5884L31.2954 25.6378C31.9536 24.4931 32.4589 23.2737 32.8018 21.9996H34.1471C35.1688 21.9996 36.0006 21.1685 36.0006 20.1461V15.8527C35.9994 14.8309 35.1682 13.9998 34.1459 13.9998ZM34.6659 20.1461C34.6659 20.4326 34.4324 20.6661 34.1459 20.6661H31.7512L31.6312 21.1814C31.2842 22.6726 30.6989 24.0878 29.8895 25.3884L29.6095 25.8378L31.3024 27.5307C31.506 27.7343 31.506 28.0642 31.3024 28.2666L28.2672 31.3018C28.0642 31.5048 27.7348 31.506 27.5313 31.3018L25.8384 29.6089L25.389 29.8889C24.089 30.6983 22.6737 31.2842 21.182 31.6307L20.6667 31.7507V34.1453C20.6667 34.4318 20.4332 34.6653 20.1467 34.6653H15.8533C15.5668 34.6653 15.3333 34.4318 15.3333 34.1453V31.7507L14.818 31.6307C13.3268 31.2836 11.9116 30.6983 10.611 29.8889L10.1616 29.6089L8.46869 31.3018C8.26457 31.506 7.93458 31.5048 7.73281 31.3018L4.69757 28.2666C4.49404 28.0631 4.49404 27.7331 4.69757 27.5307L6.39048 25.8378L6.11049 25.3884C5.30109 24.0884 4.71522 22.6732 4.36875 21.1814L4.24875 20.6661H1.8535C1.56703 20.6661 1.33351 20.4326 1.33351 20.1461V15.8527C1.33351 15.5662 1.56703 15.3327 1.8535 15.3327H4.24817L4.36816 14.8174C4.71522 13.3257 5.30109 11.9104 6.1099 10.6104L6.38989 10.161L4.69698 8.4681C4.49346 8.26457 4.49346 7.93458 4.69698 7.73223L7.73223 4.69698C7.93516 4.49404 8.26516 4.49287 8.4681 4.69698L10.161 6.3899L10.6104 6.1099C11.9104 5.3005 13.3257 4.71463 14.8174 4.36816L15.3327 4.24817V1.8535C15.3327 1.56703 15.5662 1.33351 15.8527 1.33351H20.145C20.432 1.33351 20.6655 1.56703 20.6655 1.8535V4.24817L21.1808 4.36816C22.672 4.71581 24.0873 5.30109 25.3878 6.1099L25.8372 6.3899L27.5301 4.69698C27.7343 4.49287 28.0642 4.49404 28.266 4.69698L31.3013 7.73223C31.5048 7.93575 31.5048 8.26575 31.3013 8.4681L29.6083 10.161L29.8883 10.6104C30.6977 11.9098 31.2836 13.3251 31.6301 14.8174L31.7501 15.3327H34.1447C34.4312 15.3327 34.6647 15.5662 34.6647 15.8527V20.1461H34.6659Z" fill="white"/>
<path d="M17.9999 11.333C14.324 11.333 11.3335 14.3235 11.3335 17.9994C11.3335 21.6752 14.324 24.6657 17.9999 24.6657C21.6757 24.6657 24.6662 21.6752 24.6662 17.9994C24.6662 14.3235 21.6757 11.333 17.9999 11.333ZM17.9999 23.3328C15.0593 23.3328 12.6664 20.9405 12.6664 17.9994C12.6664 15.0588 15.0593 12.6659 17.9999 12.6659C20.9404 12.6659 23.3333 15.0582 23.3333 17.9994C23.3333 20.9399 20.9404 23.3328 17.9999 23.3328Z" fill="white"/>
</g>
<defs>
<clipPath id="clip0_125_1333">
<rect width="36" height="36" fill="white"/>
</clipPath>
</defs>
</svg>
