<svg width="39" height="35" viewBox="0 0 39 35" fill="none" xmlns="http://www.w3.org/2000/svg">
<g clip-path="url(#clip0_125_1341)">
<path d="M27.7757 27.0358C28.1058 26.6917 28.1058 26.137 27.7757 25.8057C27.4341 25.4616 26.8835 25.4616 26.554 25.8057L20.3616 32.0326V11.4561C20.3616 10.9765 19.9831 10.5823 19.5064 10.5823C19.0303 10.5823 18.639 10.9759 18.639 11.4561V32.0313L12.4587 25.8044C12.1172 25.4603 11.5793 25.4603 11.2377 25.8044C10.9076 26.137 10.9076 26.6904 11.2377 27.0352L18.8965 34.7509C19.2266 35.0835 19.7759 35.0835 20.1175 34.7509L27.7757 27.0358ZM16.8929 20.8455C17.3568 20.8455 17.7481 21.2269 17.7481 21.7071C17.7481 22.1867 17.3575 22.5809 16.8929 22.5809H8.64783C6.26569 22.5809 4.10406 21.6089 2.54082 20.0218C0.964835 18.4463 0 16.2686 0 13.8688C0 11.4689 0.964836 9.29058 2.54018 7.71636C4.10406 6.14086 6.26569 5.15665 8.64783 5.15665C9.22202 5.15665 9.7962 5.21764 10.3576 5.34091C10.6756 5.4019 10.9803 5.47637 11.2734 5.57524C12.1892 3.98755 13.4969 2.65858 15.048 1.68657C16.7578 0.615691 18.7735 0 20.9351 0C23.8908 0 26.591 1.16911 28.5939 3.06369C30.4019 4.77401 31.635 7.06343 32.0142 9.64754C32.1971 9.6225 32.3927 9.6225 32.5763 9.6225C34.3472 9.6225 35.9602 10.348 37.1194 11.5171C38.292 12.6862 39 14.3105 39 16.0953C39 17.8916 38.2913 19.5044 37.1194 20.685C35.9589 21.8541 34.3466 22.5796 32.5763 22.5796H22.1205C21.6444 22.5796 21.2653 22.1861 21.2653 21.7058C21.2653 21.2256 21.6438 20.8442 22.1205 20.8442H32.5763C33.8706 20.8442 35.0559 20.3146 35.8984 19.4536C36.7536 18.5921 37.2787 17.4108 37.2787 16.094C37.2787 14.7901 36.753 13.5959 35.8984 12.7472C35.0559 11.8856 33.8706 11.3566 32.5763 11.3566C32.3806 11.3566 32.1856 11.3688 32.0142 11.3938C31.8313 11.406 31.6477 11.4426 31.4884 11.4798C31.4279 11.492 31.3661 11.5049 31.3055 11.5171C30.8288 11.5421 30.4261 11.173 30.3898 10.6927C30.2432 8.19466 29.1318 5.94248 27.4213 4.33102C25.7236 2.71893 23.4396 1.73472 20.9351 1.73472C19.103 1.73472 17.3932 2.26438 15.9516 3.16192C14.4496 4.08449 13.24 5.4263 12.4466 7.0262C12.2389 7.43259 11.7622 7.61685 11.3352 7.44479C10.9197 7.26053 10.48 7.12442 10.0288 7.0262C9.58909 6.94017 9.13662 6.89073 8.64847 6.89073C6.73091 6.89073 5.00835 7.67848 3.75037 8.93362C2.50449 10.201 1.72256 11.9485 1.72256 13.8681C1.72256 15.7999 2.50449 17.5353 3.75037 18.8026C5.00835 20.0578 6.73091 20.8455 8.64847 20.8455H16.8929Z" fill="#CCCCCC"/>
</g>
<defs>
<clipPath id="clip0_125_1341">
<rect width="39" height="35" fill="white"/>
</clipPath>
</defs>
</svg>
