<svg width="36" height="34" viewBox="0 0 36 34" fill="none" xmlns="http://www.w3.org/2000/svg">
<g clip-path="url(#clip0_125_1346)">
<path d="M25.3454 30.3752C25.0236 30.2924 24.6977 30.4918 24.6183 30.8168L24.0183 33.2454C23.9371 33.5716 24.1336 33.9008 24.4548 33.9817C24.5036 33.9942 24.5524 34.0002 24.6007 34.0002C24.8695 34.0002 25.1136 33.8162 25.1818 33.5406L25.7818 31.1121C25.8624 30.7865 25.6665 30.4567 25.3454 30.3752Z" fill="#CCCCCC"/>
<path d="M18 18.2142C18.0782 18.2142 18.1559 18.1993 18.2294 18.1684L24.8294 15.4047C25.1353 15.2767 25.2806 14.9213 25.1541 14.6118C25.0276 14.3017 24.6753 14.1559 24.37 14.2826L18 16.9499L1.2 9.91537V9.71359C1.2 9.37847 0.931176 9.10645 0.6 9.10645C0.268824 9.10704 0 9.37906 0 9.71418V10.3213C0 10.5672 0.146471 10.7886 0.370588 10.882L17.7706 18.1678C17.8441 18.1987 17.9218 18.2142 18 18.2142Z" fill="#CCCCCC"/>
<path d="M25.1377 24.4347C24.9912 24.1341 24.6324 24.0103 24.3341 24.1591C23.1947 24.7293 21.2918 25.3924 18.6 25.4829V20.0364C18.6 19.7013 18.3312 19.4293 18 19.4293C17.6688 19.4293 17.4 19.7013 17.4 20.0364V25.4775C9.95 25.237 7.54588 20.6704 7.2 19.9103V15.7859C7.2 15.4507 6.93118 15.1787 6.6 15.1787C6.26882 15.1787 6 15.4507 6 15.7859V20.0359C6 20.1126 6.01471 20.1894 6.04235 20.2614C6.14706 20.5245 8.70059 26.7144 18 26.7144C21.25 26.7144 23.5277 25.9168 24.8659 25.2478C25.1635 25.0989 25.2853 24.7353 25.1377 24.4347Z" fill="#CCCCCC"/>
<path d="M26.9999 30.9648C26.6681 30.9648 26.3999 31.2369 26.3999 31.572V33.3934C26.3999 33.7285 26.6681 34.0006 26.9999 34.0006C27.3317 34.0006 27.5999 33.7285 27.5999 33.3934V31.572C27.5999 31.2369 27.3317 30.9648 26.9999 30.9648Z" fill="#CCCCCC"/>
<path d="M35.4 9.10729C35.0682 9.10729 34.8 9.37931 34.8 9.71443V9.91503L27.6 12.9138V11.8168L35.6294 8.45432C35.8535 8.36086 36 8.13943 36 7.8936C36 7.64777 35.8535 7.42693 35.63 7.33289L18.2294 0.0459821C18.0824 -0.0153274 17.9182 -0.0153274 17.7712 0.0459821L0.370588 7.3317C0.145882 7.42574 0 7.64658 0 7.89241C0 8.13824 0.146471 8.35967 0.370588 8.45312L17.7706 15.7388C17.8441 15.7698 17.9218 15.7853 18 15.7853C18.0782 15.7853 18.1559 15.7704 18.2294 15.7388L24.5212 13.1043C24.8276 12.9769 24.9729 12.6216 24.8465 12.3115C24.72 12.0019 24.3688 11.8555 24.0629 11.9829L18 14.5216L2.16882 7.89301L18 1.26384L33.8312 7.89301L26.9424 10.7775L20.3441 8.28467C20.3788 8.15848 20.4 8.02872 20.4 7.89301C20.4 6.87158 19.3459 6.07158 18 6.07158C16.6541 6.07158 15.6 6.87158 15.6 7.89301C15.6 8.91443 16.6541 9.71443 18 9.71443C18.6006 9.71443 19.1365 9.54896 19.5529 9.2817L26.4 11.8686V13.8138V13.8144V26.8263C25.7035 27.0781 25.2 27.7454 25.2 28.5359C25.2 29.54 26.0076 30.3573 27 30.3573C27.9924 30.3573 28.8 29.54 28.8 28.5359C28.8 27.7454 28.2965 27.0781 27.6 26.8263V23.3799C29.3224 22.0644 29.94 20.3121 29.9671 20.2341C29.9888 20.1704 30 20.1031 30 20.0359V15.7859C30 15.4507 29.7318 15.1787 29.4 15.1787C29.0682 15.1787 28.8 15.4507 28.8 15.7859V19.9234C28.6965 20.1805 28.3353 20.9746 27.6 21.7573V14.2269L35.6288 10.8835C35.8541 10.79 36 10.568 36 10.3222V9.71503C36 9.37932 35.7318 9.10729 35.4 9.10729ZM18 8.50015C17.2676 8.50015 16.8 8.14062 16.8 7.89301C16.8 7.64539 17.2676 7.28586 18 7.28586C18.7329 7.28586 19.2 7.64539 19.2 7.89301C19.2 8.14062 18.7324 8.50015 18 8.50015ZM27 29.143C26.6688 29.143 26.4 28.8704 26.4 28.5359C26.4 28.2013 26.6688 27.9287 27 27.9287C27.3312 27.9287 27.6 28.2013 27.6 28.5359C27.6 28.8704 27.3312 29.143 27 29.143Z" fill="#CCCCCC"/>
<path d="M29.3819 30.8174C29.3013 30.4924 28.9748 30.2942 28.6548 30.3758C28.3331 30.4573 28.1378 30.7871 28.2183 31.1121L28.8184 33.5406C28.8866 33.8162 29.1307 34.0002 29.3995 34.0002C29.4478 34.0002 29.4966 33.9948 29.5454 33.9817C29.8672 33.9002 30.0625 33.571 29.9825 33.2454L29.3819 30.8174Z" fill="#CCCCCC"/>
</g>
<defs>
<clipPath id="clip0_125_1346">
<rect width="36" height="34" fill="white"/>
</clipPath>
</defs>
</svg>
