<svg width="49" height="35" viewBox="0 0 49 35" fill="none" xmlns="http://www.w3.org/2000/svg">
<g clip-path="url(#clip0_125_1280)">
<path d="M16.2476 12.9984H17.748C17.748 9.27539 20.7769 6.24652 24.4999 6.24652V4.74609C19.9498 4.74609 16.2476 8.44832 16.2476 12.9984Z" fill="#CCCCCC"/>
<path d="M37.5041 25.7527H36.7539V12.9983C36.7539 6.2424 31.2566 0.745117 24.4999 0.745117C17.7432 0.745117 12.2459 6.2424 12.2459 12.9983V25.7519H11.4957C9.97924 25.7519 8.74463 26.9857 8.74463 28.503V34.2549H40.2543V28.503C40.2543 26.9865 39.0205 25.7527 37.5041 25.7527ZM13.7463 12.9983C13.7463 7.06868 18.5702 2.24554 24.4999 2.24554C30.4295 2.24554 35.2535 7.06948 35.2535 12.9983V25.7519H13.7463V12.9983ZM38.7539 29.254H31.2014V30.7544H38.7539V32.7552H10.2459V30.7544H18.298V29.254H10.2459V28.5038C10.2459 27.8144 10.8063 27.2532 11.4965 27.2532H37.5041C38.1935 27.2532 38.7547 27.8136 38.7547 28.5038V29.254H38.7539Z" fill="#CCCCCC"/>
<path d="M44.3929 5.18164L43.332 6.24251C48.8894 11.8006 48.8894 20.8432 43.332 26.4014L44.3929 27.4622C50.5355 21.3188 50.5355 11.3243 44.3929 5.18164Z" fill="#CCCCCC"/>
<path d="M41.4456 8.12793L40.3848 9.1888C44.3176 13.1216 44.3176 19.5204 40.3848 23.4532L41.4456 24.5141C45.9629 19.9968 45.9629 12.646 41.4456 8.12793Z" fill="#CCCCCC"/>
<path d="M5.66783 6.24233L4.60696 5.18066C-1.53565 11.3233 -1.53565 21.3186 4.60696 27.4613L5.66783 26.4004C0.11049 20.843 0.11049 11.7997 5.66783 6.24233Z" fill="#CCCCCC"/>
<path d="M8.61485 9.1896L7.55398 8.12793C3.03669 12.6452 3.03669 19.9968 7.55398 24.5141L8.61485 23.4532C4.68204 19.5212 4.68204 13.1216 8.61485 9.1896Z" fill="#CCCCCC"/>
<path d="M26.7505 23.5731V20.0198C27.6609 19.3345 28.251 18.2456 28.251 17.0206C28.251 14.9525 26.568 13.2695 24.4999 13.2695C22.4318 13.2695 20.7488 14.9525 20.7488 17.0206C20.7488 18.2448 21.3389 19.3345 22.2493 20.0198V23.5731H20.499V25.0736H28.5016V23.5731H26.7505ZM25.2501 23.5731H23.7497V20.6972C23.9923 20.7468 24.2429 20.7725 24.4999 20.7725C24.7569 20.7725 25.0075 20.746 25.2501 20.6972V23.5731ZM24.4999 19.272C23.2589 19.272 22.2493 18.2624 22.2493 17.0214C22.2493 15.7804 23.2589 14.7708 24.4999 14.7708C25.7409 14.7708 26.7505 15.7804 26.7505 17.0214C26.7505 18.2624 25.7409 19.272 24.4999 19.272Z" fill="#CCCCCC"/>
<path d="M21.9994 29.2539H20.499V30.7543H21.9994V29.2539Z" fill="#CCCCCC"/>
<path d="M29.0014 29.2539H27.501V30.7543H29.0014V29.2539Z" fill="#CCCCCC"/>
<path d="M25.5009 29.2539H24.0005V30.7543H25.5009V29.2539Z" fill="#CCCCCC"/>
</g>
<defs>
<clipPath id="clip0_125_1280">
<rect width="49" height="33.5098" fill="white" transform="translate(0 0.745117)"/>
</clipPath>
</defs>
</svg>
