<svg width="36" height="35" viewBox="0 0 36 35" fill="none" xmlns="http://www.w3.org/2000/svg">
<g clip-path="url(#clip0_125_1254)">
<path d="M24.2303 5.89517C22.3273 3.97936 19.7973 2.92383 17.1056 2.92383C14.4144 2.92383 11.8838 3.97936 9.98084 5.89517C6.05261 9.84987 6.05261 16.2854 9.98084 20.2401C11.8838 22.1559 14.4144 23.2115 17.1056 23.2115C19.7967 23.2115 22.3267 22.1565 24.2303 20.2401C28.1579 16.2854 28.1579 9.84987 24.2303 5.89517ZM23.3691 19.3745C21.6961 21.059 19.472 21.9867 17.1061 21.9867C14.7403 21.9867 12.5161 21.059 10.8432 19.3745C7.38908 15.8967 7.38908 10.238 10.8432 6.76019C12.5161 5.07572 14.7403 4.14799 17.1061 4.14799C19.472 4.14799 21.6961 5.07572 23.3691 6.76019C26.8226 10.238 26.8226 15.8967 23.3691 19.3745Z" fill="#CCCCCC"/>
<path d="M22.3449 7.79342C20.9455 6.38407 19.0849 5.6084 17.1061 5.6084C15.1272 5.6084 13.2661 6.38467 11.8666 7.79342C11.629 8.03246 11.629 8.42059 11.8672 8.65962C12.1049 8.89866 12.4908 8.89866 12.7284 8.65903C13.8978 7.48162 15.4525 6.83315 17.1061 6.83315C18.7596 6.83315 20.3143 7.48162 21.4837 8.65903C21.6025 8.77855 21.7584 8.8389 21.9143 8.8389C22.0702 8.8389 22.2255 8.77914 22.3449 8.65962C22.5825 8.42059 22.5825 8.03305 22.3449 7.79342Z" fill="#CCCCCC"/>
<path d="M13.3729 30.1738H0.608824C0.272353 30.1738 0 30.4484 0 30.7862V34.3871C0 34.7256 0.272353 34.9995 0.608824 34.9995H3.25235C3.58882 34.9995 3.86118 34.7256 3.86118 34.3871C3.86118 34.0493 3.58882 33.7747 3.25235 33.7747H1.21765V31.3986H12.7641V33.7747H7.19412C6.85765 33.7747 6.58529 34.0487 6.58529 34.3871C6.58529 34.725 6.85765 34.9995 7.19412 34.9995H13.3729C13.7094 34.9995 13.9818 34.7256 13.9818 34.3871V30.7862C13.9818 30.4478 13.7094 30.1738 13.3729 30.1738Z" fill="#CCCCCC"/>
<path d="M35.8218 27.8386L30.6182 22.6042C30.3806 22.3651 29.9953 22.3651 29.7571 22.6042L29.4606 22.9024L27.5829 21.0143C30.6394 16.8934 31.0624 11.2465 28.4971 6.68242C28.3318 6.38777 27.96 6.28423 27.6676 6.45108C27.3747 6.61734 27.2718 6.99127 27.4371 7.28533C29.8771 11.6264 29.3353 17.0478 26.1835 20.8197C26.1729 20.8321 26.1629 20.8445 26.1524 20.857C26.1118 20.9055 26.07 20.9534 26.0288 21.0007C26.01 21.0226 25.9912 21.0439 25.9718 21.0658C25.9341 21.1084 25.8959 21.1516 25.8571 21.1936C25.8318 21.2214 25.8059 21.2492 25.78 21.277C25.7441 21.3155 25.7088 21.354 25.6724 21.3918C25.6447 21.4208 25.6165 21.4498 25.5882 21.4788C25.5547 21.5131 25.5218 21.5474 25.4882 21.5818C25.3441 21.7267 25.1971 21.8669 25.0471 22.003C25.0394 22.0095 25.0324 22.016 25.0247 22.0225C22.7753 24.0543 19.9347 25.0702 17.0929 25.0696C14.0529 25.0696 11.0124 23.9064 8.69824 21.5812C6.45588 19.3281 5.22118 16.3331 5.22118 13.147C5.22118 9.96084 6.45588 6.96583 8.69824 4.71277C13.3271 0.0616809 20.8588 0.0616809 25.4882 4.71277C25.7265 4.9518 26.1118 4.9518 26.3494 4.71218C26.5871 4.47314 26.5871 4.08501 26.3488 3.84598C21.2453 -1.28199 12.9412 -1.28199 7.83824 3.84598C5.36588 6.33038 4.00412 9.63306 4.00412 13.1464C4.00412 14.8202 4.31353 16.4455 4.90471 17.9578H0.608824C0.272353 17.9584 0 18.2323 0 18.5702V22.1711C0 22.5095 0.272353 22.7834 0.608824 22.7834H8.18706C8.65412 23.2201 9.14529 23.6159 9.65647 23.9709H0.608824C0.272353 23.9715 0 24.2454 0 24.5839V28.1847C0 28.5232 0.272353 28.7971 0.608824 28.7971H22.4553C22.7918 28.7971 23.0641 28.5232 23.0641 28.1847V24.8519C23.7135 24.5182 24.3406 24.1259 24.9382 23.6763L26.8147 25.5637L26.5182 25.8619C26.4041 25.9767 26.34 26.1323 26.34 26.295C26.34 26.4577 26.4041 26.6133 26.5182 26.7281L31.7224 31.9625C31.8365 32.0773 31.9912 32.1418 32.1529 32.1418C32.3147 32.1418 32.4694 32.0773 32.5835 31.9625L35.8224 28.7048C36.0594 28.4652 36.0594 28.0777 35.8218 27.8386ZM1.21765 21.5593V19.1831H5.45765C5.89118 20.0245 6.41706 20.8209 7.03118 21.5593H1.21765ZM21.8465 27.5724H1.21765V25.1962H11.5312C11.6088 25.1962 11.6829 25.1809 11.7518 25.1542C13.4465 25.9133 15.27 26.2938 17.0935 26.2938C18.7076 26.2938 20.3218 25.9956 21.8465 25.401V27.5724ZM25.8824 22.8947C25.9441 22.8379 26.0053 22.7805 26.0665 22.7231C26.0812 22.7095 26.0959 22.6959 26.1106 22.6817C26.1912 22.6047 26.2712 22.5266 26.35 22.4474C26.3812 22.416 26.4112 22.3841 26.4418 22.3527C26.4794 22.3142 26.5171 22.2764 26.5535 22.2373C26.59 22.1989 26.6265 22.1598 26.6624 22.1208C26.6935 22.087 26.7247 22.0539 26.7553 22.0202C26.7718 22.0018 26.7894 21.9835 26.8059 21.9652L28.5994 23.7686L27.6753 24.6981L25.8824 22.8947ZM32.1524 30.6632L27.8094 26.295L28.1041 25.9985C28.1047 25.998 28.1053 25.9974 28.1059 25.9968L29.8906 24.2017C29.8912 24.2011 29.8918 24.2005 29.8924 24.1999L30.1871 23.9035L34.53 28.2717L32.1524 30.6632Z" fill="#CCCCCC"/>
</g>
<defs>
<clipPath id="clip0_125_1254">
<rect width="36" height="35" fill="white"/>
</clipPath>
</defs>
</svg>
