<svg width="42" height="34" viewBox="0 0 42 34" fill="none" xmlns="http://www.w3.org/2000/svg">
<g clip-path="url(#clip0_125_1320)">
<path d="M25.9689 11.8639V9.08841C25.9689 8.67208 25.6889 8.39453 25.2689 8.39453H16.8689C16.4489 8.39453 16.1689 8.67208 16.1689 9.08841V11.8639C16.1689 12.2802 16.4489 12.5578 16.8689 12.5578H25.2689C25.6889 12.5578 25.9689 12.2802 25.9689 11.8639ZM24.5689 11.17H17.5689V9.78229H24.5689V11.17Z" fill="#CCCCCC"/>
<path d="M13.3689 25.7412C11.8289 25.7412 10.5688 26.9902 10.5688 28.5167C10.5688 30.0433 11.8289 31.2922 13.3689 31.2922C14.9089 31.2922 16.1689 30.0433 16.1689 28.5167C16.1689 26.9902 14.9089 25.7412 13.3689 25.7412ZM13.3689 29.9045C12.5989 29.9045 11.9689 29.28 11.9689 28.5167C11.9689 27.7535 12.5989 27.129 13.3689 27.129C14.1389 27.129 14.7689 27.7535 14.7689 28.5167C14.7689 29.28 14.1389 29.9045 13.3689 29.9045Z" fill="#CCCCCC"/>
<path d="M28.7688 25.7412C27.2288 25.7412 25.9688 26.9902 25.9688 28.5167C25.9688 30.0433 27.2288 31.2922 28.7688 31.2922C30.3088 31.2922 31.5688 30.0433 31.5688 28.5167C31.5688 26.9902 30.3088 25.7412 28.7688 25.7412ZM28.7688 29.9045C27.9988 29.9045 27.3688 29.28 27.3688 28.5167C27.3688 27.7535 27.9988 27.129 28.7688 27.129C29.5388 27.129 30.1688 27.7535 30.1688 28.5167C30.1688 29.28 29.5388 29.9045 28.7688 29.9045Z" fill="#CCCCCC"/>
<path d="M28.6989 14.2921C28.8389 14.0145 28.7689 13.737 28.5589 13.4594C28.3489 13.1819 27.9989 13.1819 27.7189 13.3206L24.3589 15.3329C23.1689 16.0268 21.9089 16.6513 20.7189 17.2064C20.3689 17.3451 19.9489 17.5533 19.5289 17.7615C18.0589 18.5247 17.2889 20.1206 17.6389 21.7166C17.9189 22.9655 18.9689 24.0063 20.2289 24.2839C20.5089 24.3533 20.7889 24.3533 21.0689 24.3533C22.3989 24.3533 23.5889 23.59 24.2189 22.4104C24.3589 22.0635 24.5689 21.6472 24.7789 21.2308C25.4089 20.0513 25.9689 18.8023 26.6689 17.6227L28.6989 14.2921ZM25.4789 16.8594C24.7089 18.1084 24.0789 19.3574 23.5189 20.6064C23.3789 21.0227 23.1689 21.3696 22.9589 21.7859C22.5389 22.688 21.5589 23.1043 20.5789 22.8961C19.8089 22.7574 19.1789 22.1329 19.0389 21.3696C18.8289 20.3982 19.2489 19.4268 20.1589 19.0104C20.5089 18.8023 20.9289 18.6635 21.3489 18.4553C22.6089 17.8308 23.9389 17.2064 25.1289 16.5125L26.0389 15.9574L25.4789 16.8594Z" fill="#CCCCCC"/>
<path d="M40.5693 13.182C40.5604 13.135 40.5474 13.0888 40.5289 13.0439C40.5103 12.9983 40.487 12.9568 40.4602 12.9187C39.4116 10.4289 37.8874 8.18128 36.0022 6.28605C35.9754 6.24659 35.9445 6.20918 35.9088 6.1738C35.8732 6.13843 35.8354 6.10782 35.7956 6.08128C31.9978 2.36904 26.7917 0.0683594 21.0688 0.0683594C18.3272 0.0683594 15.7049 0.596931 13.2982 1.55475C13.2508 1.5636 13.2041 1.57652 13.1588 1.59489C13.1136 1.61326 13.071 1.63639 13.0326 1.66292C10.5208 2.70237 8.25336 4.21326 6.3414 6.08196C6.30159 6.1085 6.26385 6.13911 6.22816 6.17448C6.19248 6.20986 6.16159 6.24727 6.13483 6.28673C2.38983 10.0514 0.0688477 15.2119 0.0688477 20.8847C0.0688477 25.6031 1.60885 30.1133 4.61885 33.7908C4.75885 33.999 4.96885 34.0684 5.17885 34.0684H36.9588C37.1688 34.0684 37.3788 33.999 37.5189 33.7908C40.5289 30.1133 42.0689 25.6031 42.0689 20.8847C42.0689 18.1677 41.5356 15.5677 40.5693 13.182ZM36.6789 32.6806H5.52885C4.58248 31.4704 3.796 30.1724 3.17493 28.8085L5.10885 28.0316C5.45885 27.8929 5.59885 27.4765 5.45885 27.1296C5.31885 26.7826 4.89885 26.6439 4.54885 26.7826L2.65336 27.5445C1.94993 25.6466 1.55463 23.6398 1.48189 21.5786H6.36885C6.78885 21.5786 7.06885 21.301 7.06885 20.8847C7.06885 20.4684 6.78885 20.1908 6.36885 20.1908H1.48257C1.56081 18.0031 2.00895 15.9044 2.76591 13.9548L4.68816 14.7786C4.75816 14.848 4.89816 14.848 4.96816 14.848C5.24816 14.848 5.45816 14.7092 5.59816 14.4316C5.73816 14.0847 5.59816 13.6684 5.24816 13.5296L3.30669 12.6969C4.18444 10.8405 5.34973 9.14183 6.74561 7.65816L8.18885 9.08877C8.32885 9.22754 8.46885 9.29693 8.67885 9.29693C8.88885 9.29693 9.02885 9.22754 9.16885 9.08877C9.44885 8.81122 9.44885 8.39489 9.16885 8.11734L7.72561 6.68673C9.29375 5.23707 11.0993 4.03775 13.0779 3.15475L13.8588 5.06428C13.9288 5.34183 14.2088 5.4806 14.4888 5.4806C14.5588 5.4806 14.6288 5.4806 14.7688 5.41122C15.1188 5.27244 15.2588 4.85611 15.1188 4.50918L14.3537 2.63775C16.2423 1.94931 18.2647 1.54387 20.3688 1.46972V6.31326C20.3688 6.72958 20.6488 7.00713 21.0688 7.00713C21.4888 7.00713 21.7689 6.72958 21.7689 6.31326V1.46972C23.9759 1.54727 26.0931 1.99149 28.0599 2.74251L27.2288 4.64795C27.0889 4.99489 27.2288 5.41122 27.5788 5.54999C27.6488 5.61938 27.7888 5.61938 27.8588 5.61938C28.1388 5.61938 28.4188 5.41122 28.4888 5.20305L29.3288 3.27856C31.2017 4.14863 32.9153 5.30373 34.4121 6.68741L32.9688 8.11802C32.6889 8.39557 32.6889 8.8119 32.9688 9.08945C33.1088 9.22822 33.2489 9.29761 33.4589 9.29761C33.5989 9.29761 33.8088 9.22822 33.9488 9.08945L35.3921 7.65884C36.8545 9.21326 38.0651 11.0031 38.9552 12.9643L37.0289 13.7384C36.6788 13.8772 36.5389 14.2935 36.6789 14.6405C36.7489 14.918 37.0289 15.0568 37.3088 15.0568C37.3788 15.0568 37.4488 14.9874 37.5888 14.9874L39.4768 14.2289C40.1713 16.101 40.5803 18.1058 40.6551 20.1915H35.7688C35.3489 20.1915 35.0688 20.469 35.0688 20.8854C35.0688 21.3017 35.3489 21.5792 35.7688 21.5792H40.6558C40.5796 23.7418 40.1493 25.8439 39.391 27.8241L37.4488 26.9915C37.0989 26.8527 36.6788 26.9915 36.5388 27.3384C36.3988 27.6854 36.5389 28.1017 36.8889 28.2405L38.8557 29.084C38.2662 30.3466 37.5388 31.552 36.6789 32.6806Z" fill="#CCCCCC"/>
</g>
<defs>
<clipPath id="clip0_125_1320">
<rect width="42" height="34" fill="white"/>
</clipPath>
</defs>
</svg>
