<svg width="27" height="17" viewBox="0 0 27 17" fill="none" xmlns="http://www.w3.org/2000/svg">
<g clip-path="url(#clip0_136_6689)">
<path opacity="0.07" d="M24.0013 0H2.50681C1.36491 0 0.491699 0.873214 0.491699 2.01511V14.1058C0.491699 15.2477 1.43208 16.1209 2.50681 16.1209H24.0013C25.1432 16.1209 26.0164 15.2477 26.0164 14.1058V2.01511C26.0164 0.873214 25.076 0 24.0013 0Z" fill="black"/>
<path d="M24.0015 0.671875C24.7404 0.671875 25.3449 1.27641 25.3449 2.01528V14.1059C25.3449 14.8448 24.7404 15.4493 24.0015 15.4493H2.50698C1.76811 15.4493 1.16357 14.8448 1.16357 14.1059V2.01528C1.16357 1.27641 1.76811 0.671875 2.50698 0.671875H24.0015Z" fill="white"/>
<path d="M8.55211 8.06032V10.5456C8.55211 10.7471 8.41776 10.7471 8.21625 10.68C6.94002 10.1426 6.20114 8.46334 6.67134 7.05277C6.94002 6.31389 7.47738 5.70936 8.21625 5.44068C8.48493 5.30634 8.55211 5.37351 8.55211 5.57502V8.06032ZM9.89551 8.06032V5.57502C9.89551 5.37351 9.89551 5.37351 10.097 5.44068C11.5076 5.97804 12.2465 7.6573 11.7091 9.06788C11.4404 9.80675 10.9031 10.4113 10.1642 10.68C9.89551 10.8143 9.89551 10.7471 9.89551 10.5456V8.06032ZM14.7318 3.3584H9.22381C11.7763 3.3584 13.7914 5.44068 13.7914 8.06032C13.7914 10.68 11.7763 12.7622 9.22381 12.7622H14.7318C17.2842 12.7622 19.2994 10.68 19.2994 8.06032C19.2994 5.44068 17.2842 3.3584 14.7318 3.3584Z" fill="#3086C8"/>
</g>
<defs>
<clipPath id="clip0_136_6689">
<rect width="25.5247" height="16.1209" fill="white" transform="translate(0.491699)"/>
</clipPath>
</defs>
</svg>
