<svg width="27" height="17" viewBox="0 0 27 17" fill="none" xmlns="http://www.w3.org/2000/svg">
<g clip-path="url(#clip0_136_6744)">
<path opacity="0.07" d="M24.1883 0H2.69382C1.55193 0 0.678711 0.873214 0.678711 2.01511V14.1058C0.678711 15.2477 1.6191 16.1209 2.69382 16.1209H24.1883C25.3302 16.1209 26.2034 15.2477 26.2034 14.1058V2.01511C26.2034 0.873214 25.2631 0 24.1883 0Z" fill="black"/>
<path d="M24.1885 0.671875C24.9274 0.671875 25.5319 1.27641 25.5319 2.01528V14.1059C25.5319 14.8448 24.9274 15.4493 24.1885 15.4493H2.69399C1.95512 15.4493 1.35059 14.8448 1.35059 14.1059V2.01528C1.35059 1.27641 1.95512 0.671875 2.69399 0.671875H24.1885Z" fill="white"/>
<path d="M13.4411 13.5687C16.483 13.5687 18.949 11.1027 18.949 8.0607C18.949 5.01873 16.483 2.55273 13.4411 2.55273C10.3991 2.55273 7.93311 5.01873 7.93311 8.0607C7.93311 11.1027 10.3991 13.5687 13.4411 13.5687Z" fill="#1652F0"/>
<path d="M14.7709 8.76861C14.7709 8.07339 14.3484 7.83897 13.5302 7.72612C12.9257 7.6388 12.8081 7.49774 12.8081 7.21563C12.8081 6.93351 13.013 6.75753 13.4046 6.75753C13.7606 6.75753 13.9668 6.88112 14.0515 7.16861C14.0604 7.19998 14.0792 7.22763 14.1051 7.24747C14.131 7.26731 14.1626 7.27829 14.1952 7.27877H14.5082C14.5287 7.27905 14.5489 7.27483 14.5675 7.26643C14.5862 7.25803 14.6027 7.24564 14.6161 7.23014C14.6294 7.21464 14.6391 7.1964 14.6446 7.17672C14.6502 7.15703 14.6513 7.13638 14.6479 7.11622C14.5485 6.66282 14.2429 6.38943 13.7633 6.30413V5.82588C13.7633 5.78644 13.7477 5.74862 13.7199 5.72067C13.692 5.69272 13.6543 5.67694 13.6149 5.67676H13.3159C13.2764 5.67676 13.2385 5.69247 13.2105 5.72043C13.1825 5.7484 13.1668 5.78633 13.1668 5.82588V6.28734C12.5717 6.3713 12.1949 6.76424 12.1949 7.26937C12.1949 7.92092 12.5925 8.17482 13.4227 8.287C13.987 8.37969 14.1482 8.50194 14.1482 8.82234C14.1482 9.14342 13.8755 9.35836 13.4899 9.35836C12.9707 9.35836 12.7947 9.13133 12.7363 8.83645C12.7295 8.80254 12.7112 8.772 12.6845 8.74998C12.6579 8.72796 12.6244 8.7158 12.5898 8.71554H12.2506C12.2304 8.71527 12.2103 8.71944 12.1918 8.72778C12.1733 8.73611 12.1569 8.7484 12.1437 8.76378C12.1305 8.77916 12.1209 8.79724 12.1154 8.81677C12.11 8.83629 12.1089 8.85677 12.1123 8.87675C12.1996 9.37381 12.518 9.73653 13.1668 9.82385V10.2954C13.1668 10.3349 13.1825 10.3729 13.2105 10.4008C13.2385 10.4288 13.2764 10.4445 13.3159 10.4445H13.6149C13.6543 10.4443 13.692 10.4285 13.7199 10.4006C13.7477 10.3726 13.7633 10.3348 13.7633 10.2954V9.8252C14.3793 9.72713 14.7709 9.30194 14.7709 8.76861Z" fill="white"/>
<path d="M12.3127 11.1485C11.68 10.9169 11.1337 10.4964 10.7477 9.94408C10.3618 9.39175 10.1548 8.73419 10.1548 8.06037C10.1548 7.38656 10.3618 6.729 10.7477 6.17667C11.1337 5.62434 11.68 5.2039 12.3127 4.97222C12.3533 4.95436 12.388 4.92553 12.4131 4.88898C12.4381 4.85242 12.4524 4.8096 12.4544 4.76533V4.45769C12.4572 4.43052 12.4527 4.40312 12.4414 4.37825C12.4301 4.35337 12.4125 4.33191 12.3903 4.31604C12.3681 4.30016 12.342 4.29043 12.3149 4.28782C12.2877 4.28521 12.2603 4.28982 12.2355 4.30119C11.438 4.5554 10.7421 5.05661 10.2483 5.73236C9.75444 6.40812 9.48828 7.2234 9.48828 8.06037C9.48828 8.89734 9.75444 9.71263 10.2483 10.3884C10.7421 11.0641 11.438 11.5653 12.2355 11.8196C12.2603 11.8309 12.2877 11.8355 12.3149 11.8329C12.342 11.8303 12.3681 11.8206 12.3903 11.8047C12.4125 11.7888 12.4301 11.7674 12.4414 11.7425C12.4527 11.7176 12.4572 11.6902 12.4544 11.6631V11.3568C12.4526 11.3124 12.4385 11.2695 12.4135 11.2329C12.3886 11.1962 12.3539 11.1672 12.3134 11.1492L12.3127 11.1485ZM14.6462 4.30186C14.6214 4.29071 14.594 4.28627 14.567 4.28897C14.5399 4.29167 14.514 4.30142 14.4918 4.31725C14.4697 4.33308 14.452 4.35444 14.4407 4.3792C14.4294 4.40396 14.4247 4.43125 14.4272 4.45837V4.76533C14.4291 4.80964 14.4434 4.85253 14.4684 4.88911C14.4935 4.9257 14.5283 4.95449 14.569 4.97222C15.2019 5.20377 15.7485 5.6242 16.1346 6.17661C16.5207 6.72902 16.7278 7.38673 16.7278 8.06071C16.7278 8.73469 16.5207 9.3924 16.1346 9.94481C15.7485 10.4972 15.2019 10.9177 14.569 11.1492C14.527 11.1652 14.491 11.1936 14.4658 11.2308C14.4405 11.2679 14.4273 11.3119 14.4279 11.3568V11.6637C14.4254 11.6908 14.4301 11.7181 14.4414 11.7429C14.4527 11.7676 14.4703 11.789 14.4925 11.8048C14.5146 11.8207 14.5405 11.8304 14.5676 11.8331C14.5947 11.8358 14.622 11.8314 14.6469 11.8202C15.4443 11.566 16.1402 11.0648 16.6341 10.3891C17.1279 9.7133 17.3941 8.89802 17.3941 8.06105C17.3941 7.22408 17.1279 6.40879 16.6341 5.73304C16.1402 5.05728 15.4443 4.55607 14.6469 4.30186H14.6462Z" fill="white"/>
</g>
<defs>
<clipPath id="clip0_136_6744">
<rect width="25.5247" height="16.1209" fill="white" transform="translate(0.678711)"/>
</clipPath>
</defs>
</svg>
