<svg width="27" height="17" viewBox="0 0 27 17" fill="none" xmlns="http://www.w3.org/2000/svg">
<g clip-path="url(#clip0_136_6750)">
<path d="M24.0868 0H2.59226C1.47934 0 0.577148 0.902195 0.577148 2.01511V14.1058C0.577148 15.2187 1.47934 16.1209 2.59226 16.1209H24.0868C25.1997 16.1209 26.1019 15.2187 26.1019 14.1058V2.01511C26.1019 0.902195 25.1997 0 24.0868 0Z" fill="black" fill-opacity="0.07"/>
<path fill-rule="evenodd" clip-rule="evenodd" d="M24.0869 0.671875C24.8258 0.671875 25.4303 1.27641 25.4303 2.01528V14.1059C25.4303 14.8448 24.8258 15.4493 24.0869 15.4493H2.59243C1.85356 15.4493 1.24902 14.8448 1.24902 14.1059V2.01528C1.24902 1.27641 1.85356 0.671875 2.59243 0.671875H24.0869Z" fill="#3D95CE"/>
<path d="M17.1516 5.61528C17.1516 7.67338 15.434 10.3474 14.0396 12.2248H10.8557L9.57812 4.41293L12.3664 4.14291L13.0414 9.70125C13.6728 8.64936 14.4513 6.99765 14.4513 5.8712C14.4513 5.25458 14.3479 4.83476 14.1867 4.48883L16.7257 3.96289C17.0193 4.45861 17.1516 4.96977 17.1516 5.61528Z" fill="white"/>
</g>
<defs>
<clipPath id="clip0_136_6750">
<rect width="25.5247" height="16.1209" fill="white" transform="translate(0.577148)"/>
</clipPath>
</defs>
</svg>
