<svg width="26" height="17" viewBox="0 0 26 17" fill="none" xmlns="http://www.w3.org/2000/svg">
<g clip-path="url(#clip0_136_6718)">
<path opacity="0.07" d="M23.5946 0H2.10007C0.958175 0 0.0849609 0.873214 0.0849609 2.01511V14.1058C0.0849609 15.2477 1.02535 16.1209 2.10007 16.1209H23.5946C24.7365 16.1209 25.6097 15.2477 25.6097 14.1058V2.01511C25.6097 0.873214 24.6693 0 23.5946 0Z" fill="black"/>
<path d="M23.5947 0.671875C24.3336 0.671875 24.9382 1.27641 24.9382 2.01528V14.1059C24.9382 14.8448 24.3336 15.4493 23.5947 15.4493H2.10024C1.36137 15.4493 0.756836 14.8448 0.756836 14.1059V2.01528C0.756836 1.27641 1.36137 0.671875 2.10024 0.671875H23.5947Z" fill="white"/>
<path fill-rule="evenodd" clip-rule="evenodd" d="M7.80963 3.3584H10.1606V11.083C10.1606 11.5284 9.98367 11.9555 9.66875 12.2704C9.35383 12.5853 8.9267 12.7622 8.48133 12.7622H6.13037V5.03766C6.13037 4.59229 6.30729 4.16516 6.62221 3.85024C6.93714 3.53532 7.36426 3.3584 7.80963 3.3584Z" fill="#006EBC"/>
<path fill-rule="evenodd" clip-rule="evenodd" d="M12.5113 3.3584H14.8623V11.083C14.8623 11.5284 14.6853 11.9555 14.3704 12.2704C14.0555 12.5853 13.6284 12.7622 13.183 12.7622H10.832V5.03766C10.832 4.59229 11.009 4.16516 11.3239 3.85024C11.6388 3.53532 12.0659 3.3584 12.5113 3.3584Z" fill="#F00036"/>
<path fill-rule="evenodd" clip-rule="evenodd" d="M17.2134 3.3584H19.5644V11.083C19.5644 11.5284 19.3875 11.9555 19.0726 12.2704C18.7576 12.5853 18.3305 12.7622 17.8851 12.7622H15.5342V5.03766C15.5342 4.59229 15.7111 4.16516 16.026 3.85024C16.3409 3.53532 16.7681 3.3584 17.2134 3.3584Z" fill="#2AB419"/>
<path d="M7.30895 9.7394C6.59694 9.7394 5.88359 9.5352 5.5249 9.07642L6.04883 8.62235C6.09451 9.38339 8.43002 9.45527 8.43002 8.49473V6.38088H9.64043V8.49473C9.64043 8.98373 9.25487 9.38272 8.58384 9.59095C8.27083 9.68767 7.66696 9.7394 7.30895 9.7394ZM12.7605 9.7394C12.3078 9.7394 11.8282 9.66752 11.4406 9.49355C10.8038 9.20808 10.5593 8.68348 10.5674 8.01648C10.5754 7.33537 10.8602 6.8195 11.5534 6.56224C12.4394 6.2331 13.7989 6.38692 14.1905 6.7436V7.39649C13.8063 7.04654 12.8754 6.79331 12.2298 7.08751C11.898 7.23932 11.7348 7.70346 11.7301 8.06014C11.7261 8.43629 11.8947 8.90111 12.2298 9.06568C12.87 9.37936 13.8352 9.09255 14.1905 8.76946V9.44788C13.9501 9.61916 13.3489 9.7394 12.7605 9.7394ZM18.5902 8.0017C18.8387 7.84385 18.9811 7.62084 18.9811 7.32664C18.9811 7.03243 18.9032 6.86518 18.7474 6.69591C18.609 6.55687 18.3578 6.38088 17.9158 6.38088H15.534V9.7394H17.9158C18.3833 9.7394 18.6527 9.5849 18.7991 9.46064C18.9892 9.29271 19.0852 9.10464 19.0852 8.8158C19.0852 8.5263 18.9811 8.2059 18.5902 8.0017ZM17.3099 7.81295H16.3507V6.84301H17.3549C17.9971 6.84301 17.989 7.81295 17.3099 7.81295ZM17.5034 9.26181H16.3507V8.24553H17.5034C18.1657 8.24553 18.2308 9.26181 17.5034 9.26181Z" fill="white"/>
</g>
<defs>
<clipPath id="clip0_136_6718">
<rect width="25.5247" height="16.1209" fill="white" transform="translate(0.0849609)"/>
</clipPath>
</defs>
</svg>
