<svg width="26" height="17" viewBox="0 0 26 17" fill="none" xmlns="http://www.w3.org/2000/svg">
<g clip-path="url(#clip0_136_6702)">
<path d="M24.2797 16.0857H2.00806C1.66385 16.0847 1.33404 15.9475 1.09065 15.7041C0.847255 15.4607 0.710047 15.1309 0.708984 14.7866V1.90942C0.710047 1.56522 0.847255 1.23541 1.09065 0.992015C1.33404 0.748622 1.66385 0.611414 2.00806 0.610352H24.2797C24.6239 0.611414 24.9537 0.748622 25.1971 0.992015C25.4405 1.23541 25.5777 1.56522 25.5788 1.90942V14.7866C25.5777 15.1309 25.4405 15.4607 25.1971 15.7041C24.9537 15.9475 24.6239 16.0847 24.2797 16.0857Z" fill="white"/>
<path opacity="0.25" d="M24.2693 16.407H2.01713C1.11436 16.407 0.380859 15.6836 0.380859 14.7949V1.89822C0.380859 1.00956 1.11436 0.286133 2.01713 0.286133H24.2693C25.1721 0.286133 25.9056 1.00956 25.9056 1.89822V14.7949C25.9056 15.6836 25.1721 16.407 24.2693 16.407ZM2.01713 0.930967C1.47574 0.930967 1.0351 1.36489 1.0351 1.89822V14.7949C1.0351 15.3283 1.47574 15.7622 2.01713 15.7622H24.2693C24.8107 15.7622 25.2513 15.3283 25.2513 14.7949V1.89822C25.2513 1.36489 24.8107 0.930967 24.2693 0.930967H2.01713Z" fill="#A7A8AB"/>
<path d="M13.0507 13.2118C15.8957 13.2118 18.202 10.9055 18.202 8.06047C18.202 5.21549 15.8957 2.90918 13.0507 2.90918C10.2057 2.90918 7.89941 5.21549 7.89941 8.06047C7.89941 10.9055 10.2057 13.2118 13.0507 13.2118Z" fill="#CBA747"/>
<path d="M16.0159 7.3919C15.8178 6.21441 14.874 5.61323 14.3964 5.45874C13.9189 5.30626 10.7605 5.3694 10.7605 5.3694C10.6893 5.45672 10.733 6.64429 10.733 6.64429L11.4524 6.64026L11.4665 7.55244H10.8458C10.8364 7.55235 10.8271 7.55413 10.8185 7.55768C10.8098 7.56122 10.8019 7.56646 10.7953 7.57309C10.7886 7.57972 10.7834 7.58761 10.7799 7.59629C10.7763 7.60496 10.7745 7.61426 10.7746 7.62364V8.52372C10.7746 8.56335 10.8062 8.59492 10.8458 8.59492H11.4766C11.4786 9.08056 11.4725 9.46948 11.453 9.47687C11.3993 9.49836 10.8149 9.44731 10.7572 9.48694C10.7014 9.52456 10.7316 10.2285 10.7316 10.4979C10.7296 10.7672 10.8028 10.7558 10.8028 10.7558C14.1513 10.6705 14.07 10.9781 15.0137 10.4126C15.9575 9.84765 16.2174 8.57074 16.0166 7.39123L16.0159 7.3919ZM12.4505 9.47351V8.5835L13.5259 8.59492C13.545 8.5951 13.5635 8.58772 13.5772 8.57439C13.5909 8.56105 13.5988 8.54284 13.5991 8.52372V7.62364C13.5988 7.60452 13.5909 7.58631 13.5772 7.57297C13.5635 7.55964 13.545 7.55226 13.5259 7.55244L12.4505 7.55445V6.561C12.4505 6.561 14.913 6.28829 14.913 8.13481C14.913 9.90945 12.4505 9.47351 12.4505 9.47351Z" fill="white"/>
</g>
<defs>
<clipPath id="clip0_136_6702">
<rect width="25.5247" height="16.1209" fill="white" transform="translate(0.288574)"/>
</clipPath>
</defs>
</svg>
