<svg width="27" height="17" viewBox="0 0 27 17" fill="none" xmlns="http://www.w3.org/2000/svg">
<g clip-path="url(#clip0_136_6663)">
<path d="M23.9961 0H3.32491C3.2388 0 3.15254 0 3.06658 0.000456402C2.99401 0.00106494 2.9216 0.00182561 2.84903 0.00380335C2.69096 0.0080631 2.53153 0.0174954 2.37544 0.0454881C2.2189 0.0723077 2.06723 0.1223 1.92543 0.193819C1.64035 0.338814 1.40864 0.570527 1.26364 0.855601C1.192 0.997461 1.142 1.14925 1.11531 1.30592C1.08702 1.46216 1.07774 1.62144 1.07348 1.77936C1.07162 1.85186 1.07051 1.92438 1.07013 1.99691C1.06982 2.08271 1.06982 2.16882 1.06982 2.25508V13.8656C1.06982 13.9519 1.06982 14.0379 1.07013 14.1241C1.07058 14.1965 1.0715 14.2691 1.07348 14.3417C1.07774 14.4993 1.08717 14.6587 1.11531 14.8148C1.14194 14.9715 1.19189 15.1233 1.26349 15.2651C1.33548 15.4068 1.42944 15.5362 1.5419 15.6485C1.65416 15.761 1.78356 15.855 1.92527 15.9269C2.06934 16.0004 2.21691 16.0471 2.37559 16.0755C2.53153 16.1034 2.69096 16.1128 2.84903 16.1171C2.9216 16.1187 2.99401 16.1197 3.06658 16.1201C3.15254 16.1207 3.2388 16.1207 3.32491 16.1207H23.9961C24.0821 16.1207 24.1683 16.1207 24.2543 16.1201C24.3267 16.1198 24.3991 16.1187 24.472 16.1171C24.6298 16.1128 24.7892 16.1034 24.9456 16.0755C25.1022 16.0487 25.2538 15.9986 25.3956 15.9269C25.6805 15.7817 25.9122 15.5501 26.0574 15.2651C26.1309 15.1211 26.1774 14.9735 26.2056 14.8148C26.2338 14.6587 26.243 14.4993 26.2472 14.3417C26.2492 14.2691 26.2503 14.1965 26.2506 14.1241C26.2512 14.0379 26.2512 13.9519 26.2512 13.8656V2.25523C26.2512 2.16897 26.2512 2.08287 26.2506 1.99676C26.2503 1.92428 26.2492 1.85181 26.2472 1.77936C26.243 1.62144 26.2338 1.46216 26.2056 1.30592C26.1791 1.14922 26.1291 0.997413 26.0574 0.855601C25.9123 0.570577 25.6806 0.338883 25.3956 0.193819C25.2538 0.122374 25.1021 0.0724337 24.9456 0.0456402C24.7892 0.0174954 24.6298 0.00821523 24.472 0.00395548C24.3994 0.00211273 24.3269 0.000997022 24.2543 0.000608536C24.1683 0 24.0821 0 23.9961 0Z" fill="black"/>
<path d="M23.9964 0.537109L24.2507 0.537566C24.3195 0.538022 24.3884 0.538783 24.4576 0.540608C24.5783 0.543955 24.7192 0.550497 24.8506 0.574078C24.9647 0.594616 25.0605 0.625803 25.1524 0.672661C25.3363 0.766156 25.4857 0.91571 25.579 1.0997C25.6256 1.19098 25.6566 1.28622 25.6771 1.40138C25.7006 1.53131 25.7071 1.67264 25.7103 1.79389C25.7123 1.86235 25.7132 1.93081 25.7134 2.00079C25.7141 2.08553 25.7141 2.17012 25.7141 2.25501V13.8656C25.7141 13.9505 25.7141 14.035 25.7135 14.1215C25.7132 14.1899 25.7123 14.2584 25.7105 14.3268C25.7071 14.4479 25.7006 14.5893 25.6768 14.7207C25.6596 14.8253 25.6265 14.9266 25.5787 15.0212C25.4852 15.2052 25.3356 15.3548 25.1515 15.4482C25.0602 15.4948 24.9647 15.526 24.8517 15.5463C24.7176 15.5702 24.5707 15.5768 24.4601 15.5798C24.3906 15.5813 24.3213 15.5824 24.2503 15.5827C24.1658 15.5833 24.081 15.5833 23.9964 15.5833H3.32182C3.23815 15.5833 3.15447 15.5833 3.06928 15.5827C3.00081 15.5824 2.93235 15.5815 2.8639 15.58C2.75071 15.5769 2.60375 15.5702 2.47078 15.5465C2.36565 15.529 2.26379 15.4956 2.16864 15.4476C2.07738 15.4012 1.99408 15.3407 1.92188 15.2681C1.84945 15.1958 1.78896 15.1124 1.74267 15.0212C1.69486 14.9261 1.66173 14.8242 1.64439 14.7192C1.62066 14.5879 1.61396 14.4472 1.61092 14.327C1.6092 14.2583 1.60819 14.1896 1.60788 14.1208L1.60742 13.919V2.20176L1.60773 2.00018C1.60804 1.93136 1.60905 1.86254 1.61077 1.79374C1.61412 1.67325 1.62066 1.53252 1.64454 1.40017C1.66191 1.29532 1.69505 1.19371 1.74282 1.09879C1.78907 1.00781 1.84931 0.924747 1.92234 0.851875C1.99472 0.779384 2.0781 0.718797 2.1694 0.672356C2.26432 0.624674 2.36586 0.591544 2.47063 0.574078C2.60223 0.550497 2.74325 0.543955 2.86405 0.540608C2.93281 0.538783 3.00173 0.538022 3.07004 0.537566L3.32517 0.537109H23.9964Z" fill="white"/>
<path d="M7.68897 5.44211C7.90256 5.17511 8.0474 4.81653 8.00921 4.4502C7.69673 4.46571 7.31548 4.65634 7.09458 4.92364C6.89635 5.15245 6.72094 5.52593 6.76658 5.87691C7.1174 5.90733 7.46792 5.70165 7.68897 5.44211Z" fill="black"/>
<path d="M8.00531 5.9454C7.49566 5.91498 7.06268 6.23446 6.81942 6.23446C6.57601 6.23446 6.20343 5.96062 5.80043 5.96807C5.27602 5.97568 4.7895 6.27234 4.52326 6.74395C3.97589 7.68718 4.37874 9.08682 4.91121 9.85509C5.16968 10.2354 5.48125 10.6538 5.89171 10.6387C6.27965 10.6235 6.43163 10.3877 6.90294 10.3877C7.3741 10.3877 7.51102 10.6387 7.92163 10.6311C8.3473 10.6235 8.61354 10.2508 8.87201 9.87046C9.16868 9.43688 9.28993 9.01851 9.29753 8.99569C9.28993 8.98808 8.47662 8.67606 8.46901 7.74043C8.4614 6.95694 9.10767 6.58421 9.1381 6.56124C8.77313 6.02147 8.20293 5.96062 8.00515 5.9454" fill="black"/>
<path d="M13.0846 4.88574C14.1919 4.88574 14.963 5.649 14.963 6.76019C14.963 7.87533 14.176 8.64254 13.0569 8.64254H11.831V10.5923H10.9453V4.88574H13.0846ZM11.831 7.89906H12.8473C13.6186 7.89906 14.0574 7.48389 14.0574 6.76414C14.0574 6.04455 13.6185 5.63318 12.8512 5.63318H11.831V7.89906Z" fill="black"/>
<path d="M15.1826 9.40975C15.1826 8.67814 15.7402 8.25901 16.7683 8.19572L17.8716 8.12848V7.81204C17.8716 7.34955 17.5672 7.0964 17.0254 7.0964C16.5784 7.0964 16.2541 7.32567 16.1872 7.67755H15.3881C15.412 6.93818 16.1079 6.40039 17.0491 6.40039C18.0614 6.40039 18.7219 6.93027 18.7219 7.75286V10.5921H17.9034V9.90799H17.8836C17.6502 10.3548 17.136 10.6355 16.5784 10.6355C15.756 10.6355 15.1826 10.1453 15.1826 9.40975ZM17.8716 9.04204V8.72165L16.887 8.78494C16.3332 8.82054 16.0448 9.02607 16.0448 9.38587C16.0448 9.73395 16.3452 9.95941 16.8158 9.95941C17.4167 9.95941 17.8716 9.57573 17.8716 9.04204Z" fill="black"/>
<path d="M19.4744 12.1188V11.4348C19.5297 11.4426 19.6641 11.4505 19.7353 11.4505C20.1267 11.4505 20.3482 11.2847 20.4827 10.8573L20.5618 10.6043L19.063 6.45215H19.9883L21.0324 9.82131H21.0521L22.0961 6.45215H22.9978L21.4436 10.8138C21.0876 11.8144 20.6803 12.1427 19.8183 12.1427C19.7511 12.1427 19.5335 12.1348 19.4744 12.1188Z" fill="black"/>
</g>
<defs>
<clipPath id="clip0_136_6663">
<rect width="25.5247" height="16.1209" fill="white" transform="translate(0.898438)"/>
</clipPath>
</defs>
</svg>
