<svg width="27" height="17" viewBox="0 0 27 17" fill="none" xmlns="http://www.w3.org/2000/svg">
<g clip-path="url(#clip0_136_6679)">
<path opacity="0.07" d="M24.2044 0H2.70993C2.17549 0 1.66294 0.212306 1.28504 0.590212C0.90713 0.968118 0.694824 1.48067 0.694824 2.01511L0.694824 14.1058C0.694824 14.6402 0.90713 15.1528 1.28504 15.5307C1.66294 15.9086 2.17549 16.1209 2.70993 16.1209H24.2044C24.7389 16.1209 25.2514 15.9086 25.6293 15.5307C26.0072 15.1528 26.2195 14.6402 26.2195 14.1058V2.01511C26.2195 1.48067 26.0072 0.968118 25.6293 0.590212C25.2514 0.212306 24.7389 0 24.2044 0V0Z" fill="black"/>
<path d="M24.2046 0.671875C24.5609 0.671875 24.9026 0.813412 25.1545 1.06535C25.4065 1.31729 25.548 1.65899 25.548 2.01528V14.1059C25.548 14.4622 25.4065 14.8039 25.1545 15.0559C24.9026 15.3078 24.5609 15.4493 24.2046 15.4493H2.71011C2.35381 15.4493 2.01211 15.3078 1.76017 15.0559C1.50824 14.8039 1.3667 14.4622 1.3667 14.1059V2.01528C1.3667 1.65899 1.50824 1.31729 1.76017 1.06535C2.01211 0.813412 2.35381 0.671875 2.71011 0.671875H24.2046Z" fill="white"/>
<path d="M13.4571 13.4338C16.4249 13.4338 18.8307 11.0279 18.8307 8.06015C18.8307 5.09238 16.4249 2.68652 13.4571 2.68652C10.4894 2.68652 8.0835 5.09238 8.0835 8.06015C8.0835 11.0279 10.4894 13.4338 13.4571 13.4338Z" fill="#8DC451"/>
<path d="M14.9484 7.67709C15.0647 7.44454 15.1024 7.18058 15.0559 6.92478C15.0522 6.74792 15.01 6.574 14.9322 6.41514C14.8543 6.25629 14.7427 6.11633 14.6052 6.00505C14.4677 5.89376 14.3076 5.81382 14.136 5.77081C13.9644 5.7278 13.7855 5.72275 13.6117 5.75602L13.4573 4.70145C13.4564 4.69261 13.4538 4.68402 13.4497 4.67619C13.4455 4.66836 13.4398 4.66143 13.4329 4.65581C13.4261 4.65019 13.4181 4.64598 13.4096 4.64344C13.4011 4.6409 13.3922 4.64007 13.3834 4.64099L12.9938 4.70145C12.977 4.70617 12.9628 4.71721 12.954 4.73225C12.9452 4.74729 12.9426 4.76514 12.9468 4.78205L13.1281 5.84334L12.6445 5.93066L12.4631 4.89624C12.4623 4.8874 12.4597 4.87882 12.4555 4.87099C12.4514 4.86315 12.4457 4.85622 12.4388 4.8506C12.4319 4.84498 12.424 4.84078 12.4155 4.83823C12.407 4.83569 12.3981 4.83486 12.3892 4.83579L12.0265 4.90296C12.0112 4.90761 11.9979 4.91763 11.9893 4.93118C11.9807 4.94474 11.9772 4.96094 11.9795 4.97684L12.1676 6.04485L11.1466 6.22621C11.1298 6.23094 11.1156 6.24198 11.1068 6.25702C11.098 6.27205 11.0954 6.28991 11.0996 6.30682L11.1667 6.71656C11.1676 6.72539 11.1702 6.73398 11.1743 6.74181C11.1785 6.74964 11.1842 6.75657 11.1911 6.76219C11.198 6.76781 11.2059 6.77202 11.2144 6.77456C11.2229 6.7771 11.2318 6.77794 11.2406 6.77701H11.3011C11.37 6.76958 11.4396 6.77588 11.506 6.79554C11.5724 6.81521 11.6343 6.84785 11.688 6.89158C11.7417 6.9353 11.7863 6.98925 11.819 7.05029C11.8517 7.11133 11.872 7.17826 11.8788 7.2472L12.2683 9.40337C12.2974 9.53136 12.2786 9.66556 12.2155 9.78064C12.1524 9.89572 12.0493 9.98373 11.9258 10.0281C11.9127 10.0321 11.9012 10.0401 11.8928 10.0509C11.8844 10.0617 11.8795 10.0748 11.8788 10.0885V10.5184C11.8709 10.5378 11.8709 10.5595 11.8788 10.5788C11.8871 10.583 11.8963 10.5851 11.9056 10.5851C11.9149 10.5851 11.9241 10.583 11.9325 10.5788L12.94 10.4042L13.1214 11.4386C13.1247 11.4553 13.1341 11.47 13.1478 11.48C13.1615 11.49 13.1785 11.4944 13.1953 11.4924L13.558 11.4252C13.5748 11.4205 13.589 11.4094 13.5978 11.3944C13.6066 11.3794 13.6092 11.3615 13.605 11.3446L13.4573 10.337L13.9342 10.2497L14.1155 11.2841C14.1188 11.3008 14.1282 11.3155 14.1419 11.3255C14.1556 11.3355 14.1726 11.3399 14.1894 11.3379L14.5521 11.2774C14.5689 11.2727 14.5832 11.2617 14.5919 11.2466C14.6007 11.2316 14.6033 11.2137 14.5992 11.1968L14.4178 10.1624L14.6596 10.1221C14.835 10.0954 15.0025 10.0305 15.15 9.93185C15.2975 9.83321 15.4215 9.70331 15.5132 9.55137C15.6049 9.39943 15.662 9.22917 15.6805 9.05268C15.6989 8.87619 15.6783 8.69779 15.6201 8.53015C15.5888 8.34218 15.5109 8.16503 15.3936 8.01485C15.2763 7.86468 15.1233 7.74625 14.9484 7.67037V7.67709ZM12.7856 6.75686L13.5043 6.62923C13.641 6.62331 13.7751 6.66725 13.8818 6.75288C13.9885 6.8385 14.0605 6.95997 14.0843 7.09469C14.1081 7.2294 14.0822 7.36819 14.0113 7.48521C13.9405 7.60223 13.8295 7.68952 13.6991 7.73083L12.9803 7.85845L12.7856 6.75686ZM14.2364 9.34292L13.2759 9.51084L13.0811 8.40925L14.0416 8.24132C14.1783 8.2354 14.3125 8.27934 14.4192 8.36497C14.5259 8.45059 14.5978 8.57206 14.6217 8.70678C14.6455 8.84149 14.6196 8.98027 14.5487 9.09729C14.4778 9.21432 14.3669 9.3016 14.2364 9.34292Z" fill="white"/>
</g>
<defs>
<clipPath id="clip0_136_6679">
<rect width="25.5247" height="16.1209" fill="white" transform="translate(0.694824)"/>
</clipPath>
</defs>
</svg>
