<svg width="27" height="17" viewBox="0 0 27 17" fill="none" xmlns="http://www.w3.org/2000/svg">
<g clip-path="url(#clip0_136_6684)">
<path opacity="0.07" d="M24.1029 0H2.60837C1.46648 0 0.593262 0.873214 0.593262 2.01511V14.1058C0.593262 15.2477 1.53365 16.1209 2.60837 16.1209H24.1029C25.2448 16.1209 26.118 15.2477 26.118 14.1058V2.01511C26.118 0.873214 25.1776 0 24.1029 0Z" fill="black"/>
<path d="M24.103 0.671875C24.8419 0.671875 25.4465 1.27641 25.4465 2.01528V14.1059C25.4465 14.8448 24.8419 15.4493 24.103 15.4493H2.60854C1.86967 15.4493 1.26514 14.8448 1.26514 14.1059V2.01528C1.26514 1.27641 1.86967 0.671875 2.60854 0.671875H24.103Z" fill="white"/>
<path d="M13.3556 13.5687C16.3976 13.5687 18.8636 11.1027 18.8636 8.0607C18.8636 5.01873 16.3976 2.55273 13.3556 2.55273C10.3137 2.55273 7.84766 5.01873 7.84766 8.0607C7.84766 11.1027 10.3137 13.5687 13.3556 13.5687Z" fill="#F5AC37"/>
<path d="M10.6703 11.0579V11.0377V10.2518V9.19256C10.6703 9.14823 10.6703 9.14151 10.6166 9.14151H9.88443C9.84412 9.14151 9.82666 9.14151 9.82666 9.08777V8.44697H10.6092C10.6535 8.44697 10.6696 8.44697 10.6696 8.3892V7.75511C10.6696 7.71481 10.6696 7.70474 10.6159 7.70474H9.88375C9.84345 7.70474 9.82666 7.70474 9.82666 7.651V7.05654C9.82666 7.0196 9.82666 7.00952 9.8804 7.00952H10.6058C10.6569 7.00952 10.6703 7.00952 10.6703 6.94571V5.12674C10.6703 5.073 10.6703 5.05957 10.7375 5.05957H13.2678C13.4513 5.06635 13.634 5.08655 13.8146 5.12002C14.1864 5.18908 14.5436 5.32154 14.8705 5.51163C15.0868 5.63912 15.2863 5.79325 15.4643 5.9704C15.5974 6.10912 15.7181 6.25927 15.825 6.4191C15.9313 6.58115 16.0196 6.75436 16.0883 6.93564C16.0924 6.95831 16.1053 6.97844 16.1241 6.99165C16.143 7.00486 16.1663 7.01008 16.189 7.00617H16.7936C16.8708 7.00617 16.8708 7.00617 16.8742 7.08005V7.63354C16.8742 7.68727 16.854 7.70071 16.8003 7.70071H16.3348C16.2878 7.70071 16.2743 7.70071 16.277 7.76183C16.2956 7.9674 16.2956 8.17423 16.277 8.3798C16.277 8.43689 16.277 8.44361 16.3415 8.44361H16.8742C16.8977 8.47384 16.8742 8.50406 16.8742 8.53429C16.8776 8.57362 16.8776 8.61318 16.8742 8.65251V9.06091C16.8742 9.118 16.8574 9.13479 16.807 9.13479H16.1689C16.1475 9.13097 16.1254 9.13553 16.1073 9.14754C16.0891 9.15954 16.0763 9.17807 16.0715 9.19928C15.9195 9.59421 15.6767 9.94786 15.3628 10.2317C15.2481 10.3351 15.1277 10.432 15.0021 10.5219C14.8671 10.5991 14.7355 10.6804 14.5971 10.7442C14.3423 10.8588 14.0753 10.9438 13.8011 10.9974C13.5405 11.0439 13.2759 11.0653 13.0112 11.0612H10.6703V11.0579ZM15.3293 9.14823C15.2721 9.1415 15.2144 9.1415 15.1573 9.14823H11.4159C11.3649 9.14823 11.3487 9.14823 11.3487 9.2154V10.3868C11.3487 10.4406 11.3487 10.454 11.4159 10.454H13.1429C13.2254 10.4602 13.3084 10.4546 13.3894 10.4372C13.64 10.4191 13.8866 10.3646 14.1215 10.2753C14.2073 10.2457 14.2899 10.2074 14.368 10.1612H14.3916C14.7963 9.95058 15.1252 9.61904 15.3326 9.21271C15.3326 9.21271 15.3561 9.15897 15.3293 9.14554V9.14823ZM15.3293 7.00281C15.3352 6.98771 15.3352 6.97089 15.3293 6.95579C15.2956 6.88124 15.2551 6.80996 15.2083 6.74286C15.1373 6.62893 15.0532 6.52366 14.9578 6.42917C14.9132 6.37201 14.8612 6.32097 14.8033 6.27737C14.5112 6.0288 14.1643 5.85314 13.7911 5.76486C13.603 5.72141 13.4105 5.69977 13.2174 5.70038H11.4058C11.3548 5.70038 11.3481 5.72053 11.3481 5.76486V6.9625C11.3481 7.01288 11.3481 7.02632 11.4126 7.02632H15.3057C15.3057 7.02632 15.3393 7.0196 15.346 6.99945L15.3293 7.00281ZM13.4398 8.44697H15.4911C15.5348 8.44697 15.5549 8.44697 15.5583 8.3892C15.5752 8.18042 15.5752 7.97062 15.5583 7.76183C15.5583 7.72153 15.5382 7.70474 15.4945 7.70474H11.4126C11.3615 7.70474 11.3481 7.72153 11.3481 7.76855V8.36636C11.3481 8.44361 11.3481 8.44361 11.4287 8.44361L13.4398 8.44697Z" fill="white"/>
</g>
<defs>
<clipPath id="clip0_136_6684">
<rect width="25.5247" height="16.1209" fill="white" transform="translate(0.593262)"/>
</clipPath>
</defs>
</svg>
