<svg width="27" height="17" viewBox="0 0 27 17" fill="none" xmlns="http://www.w3.org/2000/svg">
<g clip-path="url(#clip0_136_6738)">
<path opacity="0.07" d="M24.2899 0H2.79538C1.65349 0 0.780273 0.873214 0.780273 2.01511V14.1058C0.780273 15.2477 1.72066 16.1209 2.79538 16.1209H24.2899C25.4318 16.1209 26.305 15.2477 26.305 14.1058V2.01511C26.305 0.873214 25.3646 0 24.2899 0Z" fill="black"/>
<path d="M24.2901 0.671875C25.0289 0.671875 25.6335 1.27641 25.6335 2.01528V14.1059C25.6335 14.8448 25.0289 15.4493 24.2901 15.4493H2.79555C2.05668 15.4493 1.45215 14.8448 1.45215 14.1059V2.01528C1.45215 1.27641 2.05668 0.671875 2.79555 0.671875H24.2901Z" fill="white"/>
<path d="M16.8339 5.57502C16.9683 4.90332 16.8339 4.43312 16.4309 4.0301C16.0279 3.55991 15.289 3.3584 14.3486 3.3584H11.5947C11.3931 3.3584 11.2588 3.49274 11.1916 3.69425L10.1841 10.4785C10.1841 10.6128 10.2513 10.7471 10.3856 10.7471H12.1992L12.4679 8.46334L13.6769 6.9856L16.8339 5.57502Z" fill="#003087"/>
<path d="M16.8341 5.5752L16.6998 5.70954C16.3639 7.5903 15.222 8.26201 13.6099 8.26201H12.871C12.6695 8.26201 12.5352 8.39635 12.468 8.59786L12.065 11.2175L11.9307 11.8892C11.9307 12.0235 11.9978 12.1579 12.1322 12.1579H13.5428C13.7443 12.1579 13.8786 12.0235 13.8786 11.8892V11.822L14.1473 10.2099V10.1428C14.1473 10.0084 14.3488 9.8741 14.4831 9.8741H14.6846C16.0952 9.8741 17.1699 9.33673 17.4386 7.72465C17.573 7.05294 17.5058 6.51558 17.1699 6.11256C17.1028 5.77671 16.9684 5.64237 16.8341 5.5752Z" fill="#3086C8"/>
<path d="M16.4308 5.44077C16.3637 5.3736 16.2965 5.3736 16.2293 5.3736C16.1621 5.3736 16.095 5.3736 16.0278 5.30643C15.8263 5.23926 15.5576 5.23926 15.2889 5.23926H13.2738C13.2066 5.23926 13.1395 5.23926 13.1395 5.30643C13.0051 5.3736 12.938 5.44077 12.938 5.57511L12.4678 8.5306V8.59777C12.4678 8.39626 12.6693 8.26192 12.8708 8.26192H13.744C15.4233 8.26192 16.498 7.59022 16.8338 5.70945V5.57511C16.7667 5.50794 16.6323 5.44077 16.498 5.44077H16.4308Z" fill="#012169"/>
</g>
<defs>
<clipPath id="clip0_136_6738">
<rect width="25.5247" height="16.1209" fill="white" transform="translate(0.780273)"/>
</clipPath>
</defs>
</svg>
