<svg width="27" height="17" viewBox="0 0 27 17" fill="none" xmlns="http://www.w3.org/2000/svg">
<g clip-path="url(#clip0_136_6674)">
<path opacity="0.07" d="M24.3065 0H2.81198C1.67009 0 0.796875 0.873214 0.796875 2.01511V14.1058C0.796875 15.2477 1.73726 16.1209 2.81198 16.1209H24.3065C25.4484 16.1209 26.3216 15.2477 26.3216 14.1058V2.01511C26.3216 0.873214 25.3812 0 24.3065 0Z" fill="black"/>
<path d="M24.3067 0.671875C25.0455 0.671875 25.6501 1.27641 25.6501 2.01528V14.1059C25.6501 14.8448 25.0455 15.4493 24.3067 15.4493H2.81216C2.07328 15.4493 1.46875 14.8448 1.46875 14.1059V2.01528C1.46875 1.27641 2.07328 0.671875 2.81216 0.671875H24.3067Z" fill="white"/>
<path d="M15.3058 2.95559C12.4846 2.01521 9.46197 3.49296 8.45442 6.31411C7.44686 9.13526 8.99178 12.1579 11.8129 13.1655C14.6341 14.173 17.6568 12.6281 18.6643 9.80697C19.6047 6.98581 18.1269 3.96315 15.3058 2.95559Z" fill="#EDA024"/>
<path d="M11.6113 5.57506L11.8128 4.90336C12.2159 5.0377 12.686 5.17204 13.0891 5.37355C13.2234 5.0377 13.3578 4.70185 13.4249 4.29883L14.0295 4.50034L13.6936 5.50789L14.231 5.7094L14.5668 4.70185L15.1714 4.90336C15.037 5.23921 14.9027 5.57506 14.8355 5.97809L15.1042 6.11243C15.3057 6.24677 15.5072 6.38111 15.7087 6.58262C15.9102 6.78413 15.9774 6.98564 16.0446 7.25432C16.0446 7.45583 16.0446 7.65734 15.9102 7.85886C15.7759 8.19471 15.5744 8.39622 15.1714 8.46339H15.037C15.1714 8.53056 15.2385 8.59773 15.3057 8.73207C15.5744 9.00075 15.6415 9.26943 15.5744 9.67245C15.5744 9.73962 15.5744 9.80679 15.5072 9.87396C15.5072 9.94113 15.5072 9.94114 15.44 10.0083C15.3729 10.1426 15.3057 10.2098 15.3057 10.3442C15.1042 10.68 14.7683 10.9487 14.2981 10.9487C13.9623 10.9487 13.6264 10.9487 13.3578 10.8815L13.0891 10.8144C12.9547 11.1502 12.8204 11.4861 12.7532 11.8891L12.1487 11.6876C12.283 11.3517 12.4174 11.0159 12.4845 10.68L11.9472 10.4785C11.8128 10.8144 11.6785 11.1502 11.6113 11.4861L11.0068 11.2845C11.1411 10.9487 11.2755 10.6128 11.3426 10.2098L10.0664 9.8068L10.4694 9.06792C10.6038 9.13509 10.8053 9.20226 10.9396 9.20226C11.074 9.26943 11.2083 9.20226 11.2755 9.06792L12.2159 6.24677V6.1796C12.2159 5.97809 12.1487 5.84375 11.9472 5.84375C11.9472 5.7094 11.8128 5.64223 11.6113 5.57506ZM12.4174 9.60528C12.7532 9.73962 13.0219 9.80679 13.2906 9.87396C13.4921 9.94113 13.6264 9.94114 13.8279 9.94114C13.9623 9.94114 14.0295 9.94113 14.1638 9.87396C14.4996 9.67245 14.5668 9.20226 14.2981 8.93358L13.8951 8.59773C13.6936 8.46339 13.4249 8.39622 13.1562 8.32905C13.0891 8.32905 12.9547 8.26188 12.8876 8.19471L12.4174 9.60528ZM13.0891 7.523C13.2906 7.59017 13.4249 7.65734 13.5593 7.65734C13.7608 7.72451 13.9623 7.79169 14.1638 7.72451C14.4325 7.72451 14.634 7.65734 14.7012 7.38866C14.7683 7.18715 14.7683 6.98564 14.7012 6.8513C14.634 6.71696 14.4996 6.64979 14.3653 6.58262C14.1638 6.44828 13.9623 6.38111 13.6936 6.31394L13.4921 6.24677C13.4249 6.71696 13.2234 7.11998 13.0891 7.523Z" fill="white"/>
</g>
<defs>
<clipPath id="clip0_136_6674">
<rect width="25.5247" height="16.1209" fill="white" transform="translate(0.796875)"/>
</clipPath>
</defs>
</svg>
