<svg width="27" height="17" viewBox="0 0 27 17" fill="none" xmlns="http://www.w3.org/2000/svg">
<g clip-path="url(#clip0_136_6727)">
<path d="M24.896 16.1209H2.59549C1.72227 16.1209 0.983398 15.382 0.983398 14.5088V1.61209C0.983398 0.738873 1.72227 0 2.59549 0H24.896C25.7692 0 26.5081 0.738873 26.5081 1.61209V14.5088C26.5081 15.382 25.7692 16.1209 24.896 16.1209Z" fill="white"/>
<path opacity="0.25" d="M24.896 16.1209H2.59549C1.72227 16.1209 0.983398 15.382 0.983398 14.5088V1.61209C0.983398 0.738873 1.72227 0 2.59549 0H24.8289C25.7692 0 26.5081 0.738873 26.5081 1.61209V14.5088C26.5081 15.382 25.7692 16.1209 24.896 16.1209ZM2.59549 0.671703C2.05812 0.671703 1.6551 1.07473 1.6551 1.61209V14.5088C1.6551 15.0462 2.05812 15.4492 2.59549 15.4492H24.8289C25.3662 15.4492 25.8364 15.0462 25.8364 14.5088V1.61209C25.8364 1.07473 25.4334 0.671703 24.896 0.671703H2.59549Z" fill="#A8AAAD"/>
<path d="M13.7458 13.5687C16.7877 13.5687 19.2537 11.1027 19.2537 8.0607C19.2537 5.01874 16.7877 2.55273 13.7458 2.55273C10.7038 2.55273 8.23779 5.01874 8.23779 8.0607C8.23779 11.1027 10.7038 13.5687 13.7458 13.5687Z" fill="#58595B"/>
<path d="M13.2086 5.03809L12.4025 8.06075L11.7308 8.32943L11.5293 9.06831L12.201 8.79962L11.7308 10.6132H16.3656L16.6342 9.5385H13.7459L14.1489 8.06075L14.955 7.79207L15.1565 7.0532L14.3504 7.38905L14.955 5.03809H13.2086Z" fill="white"/>
</g>
<defs>
<clipPath id="clip0_136_6727">
<rect width="25.5247" height="16.1209" fill="white" transform="translate(0.983398)"/>
</clipPath>
</defs>
</svg>
