<svg width="26" height="17" viewBox="0 0 26 17" fill="none" xmlns="http://www.w3.org/2000/svg">
<g clip-path="url(#clip0_136_6755)">
<path opacity="0.07" d="M23.9847 0H2.49021C1.34831 0 0.475098 0.873214 0.475098 2.01511V14.1058C0.475098 15.2477 1.41548 16.1209 2.49021 16.1209H23.9847C25.1266 16.1209 25.9998 15.2477 25.9998 14.1058V2.01511C25.9998 0.873214 25.0594 0 23.9847 0Z" fill="black"/>
<path d="M23.9849 0.671875C24.7238 0.671875 25.3283 1.27641 25.3283 2.01528V14.1059C25.3283 14.8448 24.7238 15.4493 23.9849 15.4493H2.49038C1.75151 15.4493 1.14697 14.8448 1.14697 14.1059V2.01528C1.14697 1.27641 1.75151 0.671875 2.49038 0.671875H23.9849Z" fill="white"/>
<path d="M19.4842 6.7846H19.2827C19.014 7.4563 18.8125 7.79216 18.611 8.79971H19.8872C19.6857 7.79216 19.6857 7.32196 19.4842 6.7846ZM21.4321 10.7476H20.2902C20.2231 10.7476 20.2231 10.7476 20.1559 10.6805L20.0215 10.0759L19.9544 9.94161H18.3423C18.2751 9.94161 18.2079 9.94161 18.2079 10.0759L18.0064 10.6805C18.0064 10.7476 17.9393 10.7476 17.9393 10.7476H16.5287L16.663 10.4118L18.611 5.84422C18.611 5.50836 18.8125 5.37402 19.1483 5.37402H20.1559C20.2231 5.37402 20.2902 5.37402 20.2902 5.50836L21.2306 9.87444C21.2978 10.1431 21.365 10.3446 21.365 10.6133C21.4321 10.6805 21.4321 10.6805 21.4321 10.7476ZM12.4313 10.5461L12.7 9.33707C12.7671 9.33707 12.8343 9.40424 12.8343 9.40424C13.3045 9.60575 13.7747 9.74009 14.2449 9.67292C14.3792 9.67292 14.5807 9.60575 14.7151 9.53858C15.0509 9.40424 15.0509 9.06839 14.7823 8.79971C14.6479 8.66537 14.4464 8.5982 14.2449 8.46386C13.9762 8.32952 13.7075 8.19518 13.506 7.99367C12.7 7.32196 12.9687 6.38158 13.4389 5.91139C13.8419 5.6427 14.0434 5.37402 14.5807 5.37402C15.3868 5.37402 16.26 5.37402 16.663 5.50836H16.7302C16.663 5.91139 16.5959 6.24724 16.4615 6.65026C16.1257 6.51592 15.7898 6.38158 15.454 6.38158C15.2525 6.38158 15.0509 6.38158 14.8494 6.44875C14.7151 6.44875 14.6479 6.51592 14.5807 6.58309C14.4464 6.71743 14.4464 6.91894 14.5807 7.05328L14.9166 7.32196C15.1853 7.4563 15.454 7.59064 15.6555 7.72498C15.9913 7.9265 16.3272 8.26235 16.3943 8.66537C16.5287 9.2699 16.3272 9.80726 15.7898 10.2103C15.454 10.479 15.3196 10.6133 14.8494 10.6133C13.909 10.6133 13.1702 10.6805 12.5656 10.479C12.4985 10.6133 12.4985 10.6133 12.4313 10.5461ZM10.0803 10.7476C10.1475 10.2775 10.1475 10.2775 10.2147 10.0759C10.5505 8.5982 10.8864 7.05328 11.1551 5.57553C11.2222 5.44119 11.2222 5.37402 11.3566 5.37402H12.5656C12.4313 6.18007 12.297 6.7846 12.0954 7.52347C11.8939 8.53103 11.6924 9.53858 11.4237 10.5461C11.4237 10.6805 11.3566 10.6805 11.2222 10.6805L10.0803 10.7476ZM3.8335 5.50836C3.8335 5.44119 3.96784 5.37402 4.03501 5.37402H6.3188C6.65465 5.37402 6.92333 5.57553 6.9905 5.91139L7.59503 8.86688C7.59503 8.93405 7.59503 8.93405 7.6622 9.00122C7.6622 8.93405 7.72938 8.93405 7.72938 8.93405L9.13995 5.50836C9.07278 5.44119 9.13995 5.37402 9.20712 5.37402H10.6177C10.6177 5.44119 10.6177 5.44119 10.5505 5.50836L8.46825 10.4118C8.40108 10.5461 8.40108 10.6133 8.33391 10.6805C8.26674 10.7476 8.1324 10.6805 7.99806 10.6805H6.9905C6.92333 10.6805 6.85616 10.6805 6.85616 10.5461L5.78144 6.38158C5.64709 6.24724 5.44558 6.04573 5.1769 5.97856C4.77388 5.77705 4.03501 5.6427 3.90067 5.6427L3.8335 5.50836Z" fill="#142688"/>
</g>
<defs>
<clipPath id="clip0_136_6755">
<rect width="25.5247" height="16.1209" fill="white" transform="translate(0.475098)"/>
</clipPath>
</defs>
</svg>
