<svg width="26" height="17" viewBox="0 0 26 17" fill="none" xmlns="http://www.w3.org/2000/svg">
<g clip-path="url(#clip0_136_6693)">
<path opacity="0.07" d="M23.8998 0H2.40525C1.26335 0 0.390137 0.873214 0.390137 2.01511V14.1058C0.390137 15.2477 1.33052 16.1209 2.40525 16.1209H23.8998C25.0416 16.1209 25.9149 15.2477 25.9149 14.1058V2.01511C25.9149 0.873214 24.9745 0 23.8998 0Z" fill="black"/>
<path d="M23.8999 0.671875C24.6388 0.671875 25.2433 1.27641 25.2433 2.01528V14.1059C25.2433 14.8448 24.6388 15.4493 23.8999 15.4493H2.40542C1.66654 15.4493 1.06201 14.8448 1.06201 14.1059V2.01528C1.06201 1.27641 1.66654 0.671875 2.40542 0.671875H23.8999Z" fill="white"/>
<path d="M2.78797 4.80912H1.7334V8.50349H2.78797C3.34549 8.50349 3.74851 8.36915 4.10451 8.08031C4.52768 7.73103 4.77621 7.2071 4.77621 6.66302C4.7695 5.56814 3.95674 4.80912 2.78797 4.80912ZM3.63432 7.58997C3.40594 7.79148 3.11711 7.88552 2.64691 7.88552H2.45212V5.44052H2.64691C3.11039 5.44052 3.39251 5.52113 3.63432 5.73607C3.88285 5.95773 4.03062 6.3003 4.03062 6.6563C4.03062 7.01231 3.88285 7.36831 3.63432 7.58997ZM5.10535 4.80912H5.82407V8.50349H5.10535V4.80912ZM7.58393 6.22641C7.15404 6.06521 7.02642 5.95773 7.02642 5.76294C7.02642 5.52784 7.2548 5.3532 7.56378 5.3532C7.77873 5.3532 7.96009 5.44052 8.14145 5.65547L8.5176 5.16512C8.20862 4.89644 7.83918 4.75538 7.42944 4.75538C6.77789 4.75538 6.27411 5.21214 6.27411 5.81667C6.27411 6.32717 6.50921 6.58913 7.18091 6.83095C7.46303 6.9317 7.60409 6.99887 7.67797 7.03917C7.81903 7.13321 7.89292 7.26755 7.89292 7.42205C7.89292 7.72431 7.65782 7.94597 7.3354 7.94597C6.99284 7.94597 6.71744 7.77133 6.54951 7.45563L6.08604 7.90567C6.41517 8.39602 6.81819 8.61096 7.36227 8.61096C8.10786 8.61096 8.63851 8.1139 8.63851 7.39518C8.65194 6.79736 8.40341 6.52868 7.58393 6.22641ZM8.8736 6.66302C8.8736 7.75118 9.72667 8.59081 10.8215 8.59081C11.1305 8.59081 11.3992 8.53036 11.7216 8.37586V7.52952C11.4328 7.81835 11.1775 7.93254 10.8551 7.93254C10.1297 7.93254 9.61248 7.40861 9.61248 6.6563C9.61248 5.9443 10.1431 5.38679 10.8215 5.38679C11.1641 5.38679 11.4261 5.50769 11.7216 5.80324V4.95689C11.4059 4.79569 11.144 4.72852 10.835 4.72852C9.75354 4.72852 8.8736 5.5883 8.8736 6.66302ZM17.4445 7.29442L16.4571 4.80912H15.6712L17.2363 8.59753H17.6259L19.2178 4.80912H18.4387L17.4445 7.29442ZM19.547 8.50349H21.5889V7.8788H20.2657V6.88468H21.5419V6.26H20.2657V5.44052H21.5889V4.80912H19.547V8.50349ZM24.4437 5.904C24.4437 5.21214 23.9668 4.81584 23.1339 4.81584H22.0659V8.51021H22.7846V7.02574H22.8786L23.8727 8.51021H24.7594L23.5973 6.95185C24.1414 6.83766 24.4437 6.46823 24.4437 5.904ZM22.9928 6.51525H22.7846V5.3935H23.0062C23.4563 5.3935 23.6981 5.58158 23.6981 5.9443C23.6981 6.31374 23.4563 6.51525 22.9928 6.51525Z" fill="#231F20"/>
<path d="M13.9317 8.63772C14.4538 8.63772 14.9546 8.4303 15.3238 8.06108C15.693 7.69187 15.9004 7.19111 15.9004 6.66896C15.9004 6.14681 15.693 5.64605 15.3238 5.27683C14.9546 4.90762 14.4538 4.7002 13.9317 4.7002C13.4095 4.7002 12.9087 4.90762 12.5395 5.27683C12.1703 5.64605 11.9629 6.14681 11.9629 6.66896C11.9629 7.19111 12.1703 7.69187 12.5395 8.06108C12.9087 8.4303 13.4095 8.63772 13.9317 8.63772Z" fill="url(#paint0_linear_136_6693)"/>
<path opacity="0.65" d="M13.9317 8.63772C14.4538 8.63772 14.9546 8.4303 15.3238 8.06108C15.693 7.69187 15.9004 7.19111 15.9004 6.66896C15.9004 6.14681 15.693 5.64605 15.3238 5.27683C14.9546 4.90762 14.4538 4.7002 13.9317 4.7002C13.4095 4.7002 12.9087 4.90762 12.5395 5.27683C12.1703 5.64605 11.9629 6.14681 11.9629 6.66896C11.9629 7.19111 12.1703 7.69187 12.5395 8.06108C12.9087 8.4303 13.4095 8.63772 13.9317 8.63772Z" fill="url(#paint1_linear_136_6693)"/>
<path d="M24.954 5.04196C24.954 4.97492 24.9071 4.94141 24.8333 4.94141H24.7261V5.26316H24.8065V5.1358L24.9004 5.26316H24.9942L24.887 5.1291C24.9272 5.1224 24.954 5.08888 24.954 5.04196ZM24.8199 5.08888H24.8065V5.00174H24.8199C24.8601 5.00174 24.8802 5.01514 24.8802 5.04196C24.8802 5.07547 24.8601 5.08888 24.8199 5.08888Z" fill="#231F20"/>
<path d="M24.8471 4.82031C24.6926 4.82031 24.5649 4.94794 24.5649 5.10243C24.5649 5.25692 24.6926 5.38454 24.8471 5.38454C25.0015 5.38454 25.1292 5.25692 25.1292 5.10243C25.1292 4.94794 25.0015 4.82031 24.8471 4.82031ZM24.8471 5.33752C24.7261 5.33752 24.6187 5.23677 24.6187 5.10243C24.6187 4.9748 24.7194 4.86733 24.8471 4.86733C24.968 4.86733 25.0687 4.9748 25.0687 5.10243C25.0687 5.23005 24.968 5.33752 24.8471 5.33752Z" fill="#231F20"/>
<path d="M25.2432 8.72168C25.2432 8.72168 18.5867 13.349 6.41943 15.4495H23.8992C24.2536 15.4495 24.5937 15.3094 24.8453 15.0598C25.097 14.8102 25.2397 14.4712 25.2426 14.1168L25.2587 12.0883L25.2432 8.72235V8.72168Z" fill="#F48120"/>
</g>
<defs>
<linearGradient id="paint0_linear_136_6693" x1="14.9372" y1="8.24477" x2="13.577" y2="6.1148" gradientUnits="userSpaceOnUse">
<stop stop-color="#F89F20"/>
<stop offset="0.25" stop-color="#F79A20"/>
<stop offset="0.533" stop-color="#F68D20"/>
<stop offset="0.62" stop-color="#F58720"/>
<stop offset="0.723" stop-color="#F48120"/>
<stop offset="1" stop-color="#F37521"/>
</linearGradient>
<linearGradient id="paint1_linear_136_6693" x1="14.7229" y1="8.21589" x2="12.7347" y2="4.32942" gradientUnits="userSpaceOnUse">
<stop stop-color="#F58720"/>
<stop offset="0.359" stop-color="#E16F27"/>
<stop offset="0.703" stop-color="#D4602C"/>
<stop offset="0.982" stop-color="#D05B2E"/>
</linearGradient>
<clipPath id="clip0_136_6693">
<rect width="25.5247" height="16.1209" fill="white" transform="translate(0.390137)"/>
</clipPath>
</defs>
</svg>
