<svg width="27" height="17" viewBox="0 0 27 17" fill="none" xmlns="http://www.w3.org/2000/svg">
<g clip-path="url(#clip0_136_6732)">
<path opacity="0.07" d="M24.3915 0H2.89695C1.75505 0 0.881836 0.873214 0.881836 2.01511V14.1058C0.881836 15.2477 1.82222 16.1209 2.89695 16.1209H24.3915C25.5333 16.1209 26.4066 15.2477 26.4066 14.1058V2.01511C26.4066 0.873214 25.4662 0 24.3915 0Z" fill="black"/>
<path d="M24.3916 0.671875C25.1305 0.671875 25.735 1.27641 25.735 2.01528V14.1059C25.735 14.8448 25.1305 15.4493 24.3916 15.4493H2.89712C2.15824 15.4493 1.55371 14.8448 1.55371 14.1059V2.01528C1.55371 1.27641 2.15824 0.671875 2.89712 0.671875H24.3916Z" fill="white"/>
<path d="M10.9573 12.7622C13.5541 12.7622 15.6592 10.6571 15.6592 8.06032C15.6592 5.46352 13.5541 3.3584 10.9573 3.3584C8.36049 3.3584 6.25537 5.46352 6.25537 8.06032C6.25537 10.6571 8.36049 12.7622 10.9573 12.7622Z" fill="#EB001B"/>
<path d="M16.3308 12.7622C18.9276 12.7622 21.0328 10.6571 21.0328 8.06032C21.0328 5.46352 18.9276 3.3584 16.3308 3.3584C13.734 3.3584 11.6289 5.46352 11.6289 8.06032C11.6289 10.6571 13.734 12.7622 16.3308 12.7622Z" fill="#F79E1B"/>
<path d="M15.6591 8.06015C15.6591 6.44807 14.8531 5.03749 13.644 4.23145C12.435 5.10466 11.6289 6.51524 11.6289 8.06015C11.6289 9.60507 12.435 11.0828 13.644 11.8889C14.8531 11.0828 15.6591 9.67224 15.6591 8.06015Z" fill="#FF5F00"/>
</g>
<defs>
<clipPath id="clip0_136_6732">
<rect width="25.5247" height="16.1209" fill="white" transform="translate(0.881836)"/>
</clipPath>
</defs>
</svg>
