<svg width="30" height="30" viewBox="0 0 30 30" fill="none" xmlns="http://www.w3.org/2000/svg">
<g clip-path="url(#clip0_125_1177)">
<path d="M29.0618 2.73124L27.2465 0.928311C26.063 -0.247079 24.0683 -0.315634 22.7999 0.775967L19.6105 3.52226C19.5698 3.55741 19.5344 3.59901 19.5067 3.64472L16.4011 8.78222L14.407 9.44198C14.2382 9.49764 14.1114 9.63651 14.0701 9.80761C14.0288 9.9787 14.0807 10.1598 14.2064 10.2846L19.6406 15.681C19.7379 15.7777 19.8683 15.8299 20.0028 15.8299C20.0424 15.8299 20.0813 15.8252 20.1202 15.8164C20.2931 15.776 20.4323 15.6494 20.4884 15.4818L21.1533 13.5008L26.4017 10.3531C26.4477 10.3256 26.4896 10.2904 26.5244 10.25L29.2241 7.14276C30.3185 5.88593 30.2453 3.90663 29.0618 2.73124ZM28.45 6.4789L25.8034 9.5246L20.463 12.7273C20.3586 12.79 20.2801 12.8873 20.2418 13.0021L19.7792 14.3797L18.5545 13.1633L18.5539 13.1627L16.7427 11.3639L16.7421 11.3633L15.5173 10.1469L16.9043 9.68749C17.0205 9.64882 17.1185 9.57089 17.1816 9.46659L20.3427 4.23768L23.4713 1.54472C24.3415 0.795303 25.7102 0.841592 26.522 1.64784L28.3373 3.45077C29.1497 4.25761 29.1999 5.61581 28.45 6.4789Z" fill="#323941"/>
<path d="M27.6096 20.4441C26.1051 18.9506 23.8916 18.4308 21.8857 19.0771L10.9978 8.26365C11.6479 6.27146 11.1252 4.07244 9.62135 2.57888C8.03669 1.00506 5.66442 0.512282 3.5771 1.32498C3.41604 1.38767 3.29804 1.52654 3.26265 1.6947C3.22725 1.86287 3.27976 2.03689 3.40188 2.15877L6.66088 5.39549L4.48743 7.55408L1.22843 4.31678C1.1063 4.19549 0.930493 4.14334 0.761171 4.17849C0.591849 4.21365 0.452026 4.33084 0.3889 4.4908C-0.4288 6.56326 0.0667756 8.91932 1.65144 10.4937C3.15586 11.9873 5.36943 12.507 7.37533 11.8613L11.4467 15.9049L6.37651 20.9404L3.15173 22.731C3.06206 22.7808 2.98949 22.8564 2.94347 22.9478L1.4945 25.826C1.39598 26.0217 1.43433 26.2584 1.59067 26.4131L3.40188 28.2119C3.5004 28.3098 3.63138 28.3607 3.76412 28.3607C3.842 28.3607 3.92046 28.3432 3.99303 28.3068L6.89097 26.8678C6.983 26.8221 7.05911 26.75 7.10925 26.6609L8.9122 23.4582L13.9824 18.4232L18.2632 22.6748C17.6131 24.667 18.1358 26.8654 19.6402 28.3596C20.7175 29.4295 22.1594 29.9996 23.6278 29.9996C24.3193 29.9996 25.0166 29.873 25.6845 29.6135C25.8455 29.5508 25.9635 29.4119 25.9989 29.2437C26.0343 29.0756 25.9818 28.9016 25.8597 28.7797L22.6007 25.543L24.7742 23.3844L28.0332 26.6211C28.1553 26.7424 28.3311 26.7945 28.5004 26.7594C28.6697 26.7242 28.8096 26.607 28.8727 26.4471C29.6898 24.374 29.1942 22.018 27.6096 20.4441ZM8.13757 22.7885C8.10394 22.8219 8.07563 22.8588 8.05262 22.8998L6.29215 26.0275L3.8656 27.2328L2.57651 25.9525L3.79008 23.5426L6.93934 21.7941C6.98064 21.7713 7.0184 21.7432 7.05144 21.7098L12.1718 16.6244L13.2585 17.7037L8.13757 22.7885ZM28.1482 25.2963L25.1364 22.3051C24.9364 22.1064 24.6119 22.1064 24.4119 22.3051L21.514 25.1832C21.4178 25.2787 21.3641 25.4082 21.3641 25.543C21.3641 25.6777 21.4184 25.8072 21.514 25.9027L24.5258 28.8939C23.0326 29.1887 21.4662 28.7334 20.3647 27.64C19.068 26.3521 18.6627 24.4244 19.3317 22.7281C19.406 22.54 19.3612 22.3256 19.2172 22.1826L7.87091 10.9138C7.77297 10.8166 7.642 10.765 7.50866 10.765C7.44613 10.765 7.38241 10.7767 7.32164 10.8002C5.61427 11.4646 3.67268 11.0621 2.37592 9.7742C1.27445 8.68025 0.816038 7.12459 1.11338 5.64158L4.12518 8.63279C4.32518 8.83143 4.64967 8.83143 4.84967 8.63279L7.7476 5.75467C7.9476 5.55603 7.9476 5.23377 7.7476 5.03514L4.7358 2.04392C6.22902 1.74861 7.79539 2.20447 8.89687 3.29783C10.1936 4.58572 10.5989 6.51346 9.9299 8.20975C9.85557 8.39783 9.90041 8.61229 10.0444 8.75525L21.3907 20.024C21.5346 20.167 21.7506 20.2115 21.9399 20.1377C23.6479 19.4732 25.5889 19.8758 26.8857 21.1637C27.9865 22.2576 28.445 23.8133 28.1482 25.2963Z" fill="#323941"/>
</g>
<defs>
<clipPath id="clip0_125_1177">
<rect width="30" height="30" fill="white"/>
</clipPath>
</defs>
</svg>
