<svg width="30" height="30" viewBox="0 0 30 30" fill="none" xmlns="http://www.w3.org/2000/svg">
<path d="M24.5 7.99998C24.5 7.14996 23.85 6.49998 23 6.49998H21.5V1.5C21.5 0.64998 20.85 0 20 0C19.1499 0 18.5 0.64998 18.5 1.5V6.49998H11.5V1.5C11.5 0.64998 10.85 0 10 0C9.14998 0 8.5 0.64998 8.5 1.5V6.49998H7C6.14998 6.49998 5.5 7.14996 5.5 7.99998C5.5 8.67328 5.90799 9.22066 6.50002 9.41936V18.5C6.50002 21 8.5 23 11 23H12.5V25C12.5 25.3 12.7 25.4999 13 25.4999H13.5V27.4999C13.5 27.7999 13.7 27.9999 14 27.9999H14.4999V29.4999C14.4999 29.7999 14.6999 29.9999 14.9999 29.9999C15.2999 29.9999 15.4999 29.7999 15.4999 29.4999V27.9999H15.9999C16.2999 27.9999 16.4999 27.7999 16.4999 27.4999V25.5H16.9998C17.2998 25.5 17.4998 25.3 17.4998 25V23H18.9998C21.4998 23 23.4998 21.0001 23.4998 18.5V9.41941C24.092 9.22072 24.5 8.67328 24.5 7.99998ZM19.5 1.5C19.5 1.2 19.7 1.00002 20 1.00002C20.3 1.00002 20.4999 1.2 20.4999 1.5V6.49998H19.5V1.5ZM9.49996 1.5C9.49996 1.24998 9.69994 1.00002 9.99994 1.00002C10.2999 1.00002 10.4999 1.2 10.4999 1.5V6.49998H9.4999V1.5H9.49996ZM15.5 27H14.4999V25.5H15.5V27ZM16.5 24.5H16H14H13.5V23H16.5V24.5ZM22.5 18.5C22.5 20.45 20.95 22 19 22H17H13H11C9.05002 22 7.50004 20.45 7.50004 18.5V9.49998H22.5V18.5H22.5ZM23 8.50002H7C6.7 8.50002 6.50002 8.30004 6.50002 8.00004C6.50002 7.70004 6.7 7.50006 7 7.50006H8.99998H11H18.9999H21H23C23.3 7.50006 23.4999 7.70004 23.4999 8.00004C23.4999 8.30004 23.3 8.50002 23 8.50002Z" fill="#323941"/>
<path d="M13 16H15.8L13.15 18.65C12.95 18.85 12.95 19.15 13.15 19.3501C13.25 19.4501 13.3499 19.5001 13.4999 19.5001C13.6499 19.5001 13.75 19.4501 13.8499 19.3501L17.3499 15.8501C17.4999 15.7001 17.5499 15.5001 17.4499 15.3C17.4 15.1001 17.1999 15 16.9999 15H14.1999L16.8499 12.35C17.0499 12.15 17.0499 11.85 16.8499 11.65C16.65 11.45 16.35 11.45 16.1499 11.65L12.6499 15.15C12.4999 15.3 12.4999 15.5 12.5499 15.7C12.5999 15.9 12.7999 16 13 16Z" fill="#323941"/>
</svg>
