<svg width="30" height="30" viewBox="0 0 30 30" fill="none" xmlns="http://www.w3.org/2000/svg">
<path d="M25.6066 4.39337C22.7734 1.56024 19.0066 0 15 0C10.9934 0 7.22656 1.56024 4.39337 4.39337C1.56024 7.22649 0 10.9933 0 15C0 19.0067 1.56024 22.7734 4.39337 25.6066C7.22649 28.4398 10.9933 30 14.9999 30C19.0066 30 22.7734 28.4398 25.6066 25.6066C28.4397 22.7735 29.9999 19.0067 29.9999 15C29.9999 10.9933 28.4397 7.22649 25.6066 4.39337ZM15 28.8126C7.3837 28.8126 1.18745 22.6162 1.18745 15C1.18745 7.38376 7.3837 1.18745 15 1.18745C22.6163 1.18745 28.8125 7.38376 28.8125 15C28.8125 22.6162 22.6162 28.8126 15 28.8126Z" fill="#323941"/>
<path d="M14.9999 3.75586C8.79995 3.75586 3.75586 8.79988 3.75586 14.9999C3.75586 21.1999 8.79988 26.2439 14.9999 26.2439C21.1999 26.2439 26.2439 21.1999 26.2439 14.9999C26.2439 8.79988 21.1998 3.75586 14.9999 3.75586ZM14.9999 25.0565C9.4547 25.0565 4.94331 20.5451 4.94331 14.9999C4.94331 9.4547 9.45463 4.94331 14.9999 4.94331C20.5451 4.94331 25.0565 9.45463 25.0565 14.9999C25.0565 20.5451 20.5451 25.0565 14.9999 25.0565Z" fill="#323941"/>
<path d="M17.0868 14.9992C17.0868 13.8483 16.1506 12.9121 14.9997 12.9121C13.8488 12.9121 12.9126 13.8483 12.9126 14.9992C12.9126 16.15 13.8488 17.0863 14.9997 17.0863C16.1506 17.0863 17.0868 16.15 17.0868 14.9992ZM14.1 14.9992C14.1 14.5031 14.5036 14.0996 14.9997 14.0996C15.4958 14.0996 15.8994 14.5032 15.8994 14.9992C15.8994 15.4953 15.4958 15.8988 14.9997 15.8988C14.5036 15.8988 14.1 15.4952 14.1 14.9992Z" fill="#323941"/>
<path d="M15 5.79785C9.92589 5.79785 5.79785 9.92589 5.79785 15C5.79785 20.0741 9.92596 24.2021 15 24.2021C20.0741 24.2021 24.2022 20.0741 24.2022 15C24.2022 9.92589 20.0741 5.79785 15 5.79785ZM23.0147 15.0001C23.0147 15.8649 22.8764 16.6979 22.6218 17.4789L19.3751 15.3445C19.2074 15.2343 19.1893 15.0669 19.1893 15.0001C19.1893 14.9332 19.2074 14.7658 19.3751 14.6556L22.6218 12.5213C22.8765 13.3021 23.0147 14.1352 23.0147 15.0001ZM20.9537 9.64051L17.4856 11.3827C17.3062 11.4728 17.1523 11.4047 17.0944 11.3713C17.0365 11.3379 16.9006 11.2385 16.889 11.0382L16.6639 7.15953C18.3493 7.51682 19.8405 8.40503 20.9537 9.64051ZM13.3357 7.15959L13.1106 11.0388C13.099 11.2391 12.9631 11.3385 12.9053 11.3719C12.8473 11.4053 12.6933 11.4733 12.5141 11.3832L9.04612 9.64064C10.1593 8.40516 11.6505 7.51695 13.3357 7.15959ZM6.98524 15.0001C6.98524 14.1353 7.12351 13.3023 7.37808 12.5213L10.6246 14.6556C10.7923 14.7658 10.8103 14.9332 10.8103 15C10.8103 15.0668 10.7923 15.2342 10.6246 15.3444L7.37808 17.4787C7.12351 16.6978 6.98524 15.8648 6.98524 15.0001ZM9.04625 20.3596L12.5141 18.6173C12.6934 18.5272 12.8473 18.5953 12.9053 18.6286C12.9631 18.6621 13.0991 18.7614 13.1107 18.9617L13.3357 22.8405C11.6506 22.4832 10.1595 21.595 9.04625 20.3596ZM14.5344 23.0009L14.2962 18.893C14.2648 18.3537 13.9668 17.8705 13.4991 17.6003C13.0312 17.3302 12.4637 17.3137 11.981 17.5562L8.30621 19.4025C8.13555 19.1439 7.9794 18.875 7.83908 18.5967L11.2769 16.3367C11.7283 16.0399 11.9978 15.5402 11.9978 15C11.9978 14.4598 11.7283 13.9601 11.2769 13.6633L7.83908 11.4033C7.9794 11.1251 8.13548 10.8563 8.30601 10.5977L11.9808 12.4443C12.208 12.5584 12.4538 12.6152 12.6993 12.6152C12.9756 12.6152 13.2512 12.5433 13.4989 12.4003C13.9668 12.1301 14.2648 11.6469 14.296 11.1076L14.5343 6.99922C14.6884 6.99038 14.8436 6.98537 14.9999 6.98537C15.1561 6.98537 15.3112 6.99038 15.4652 6.99922L15.7035 11.1071C15.7348 11.6464 16.0327 12.1296 16.5006 12.3997C16.7483 12.5428 17.024 12.6147 17.3003 12.6147C17.5457 12.6147 17.7916 12.558 18.0186 12.4439L21.6938 10.5977C21.8644 10.8562 22.0205 11.125 22.1608 11.4032L18.7228 13.6633C18.2714 13.9601 18.0019 14.4598 18.0019 15C18.0019 15.5402 18.2714 16.0399 18.7228 16.3367L22.1608 18.5968C22.0205 18.875 21.8644 19.1439 21.6939 19.4023L18.0188 17.5557C17.5361 17.3131 16.9686 17.3296 16.5007 17.5997C16.0329 17.8697 15.7349 18.353 15.7036 18.8924L15.4653 23.0009C15.3112 23.0097 15.1562 23.0148 15 23.0148C14.8436 23.0148 14.6886 23.0097 14.5344 23.0009ZM16.664 22.8405L16.889 18.9612C16.9006 18.7608 17.0365 18.6615 17.0945 18.628C17.1523 18.5947 17.3064 18.5266 17.4857 18.6167L20.9539 20.3594C19.8406 21.595 18.3493 22.4832 16.664 22.8405Z" fill="#323941"/>
</svg>
