<svg width="260" height="167" viewBox="0 0 260 167" fill="none" xmlns="http://www.w3.org/2000/svg">
<g clip-path="url(#clip0_405_9859)">
<path fill-rule="evenodd" clip-rule="evenodd" d="M22.382 0.686829C29.9851 2.7785 37.649 4.80948 45.4689 6.68399C44.2989 12.7447 42.4737 18.15 41.768 24.6753C36.9448 23.5915 32.254 21.9286 27.1402 22.9114C26.3562 22.1941 25.3972 22.756 24.4967 22.5586C23.1127 22.2553 22.0388 21.1641 20.7956 21.1475C19.6767 22.2072 17.6926 21.446 16.9185 20.6183C17.3117 18.983 17.2789 16.4249 15.156 16.7378C15.058 14.9325 12.6817 16.3166 12.5127 14.7977C12.885 14.1118 13.9499 14.1194 13.9226 13.0338C14.1961 12.2897 12.944 13.0724 13.2176 12.3282C13.0253 11.489 13.7907 11.6084 14.4512 11.6225C13.1719 9.23891 13.0452 4.81971 13.5701 2.09774C15.6141 3.81472 17.7278 5.46219 21.1483 5.80195C21.3337 5.39092 21.5967 4.14583 22.0294 4.5671C22.5949 5.40115 21.6186 4.5925 21.5007 5.27273C21.7157 6.29219 22.2402 7.00188 22.9106 7.56585C22.6631 5.17517 23.5063 2.56945 22.382 0.686829Z" fill="#999999"/>
<path fill-rule="evenodd" clip-rule="evenodd" d="M45.8216 6.68402C46.9794 7.05377 48.4178 7.14286 49.5225 7.56606C49.0961 9.54994 48.7891 11.6533 48.1126 13.3868C48.6553 14.4917 49.5935 15.6447 48.8176 17.0909C49.0474 17.978 49.6169 18.525 50.4038 18.8548C51.2332 20.5529 51.34 22.9741 53.5761 23.2644C53.1118 25.5043 52.0527 27.1489 51.4613 29.2616C51.6467 29.8991 52.1302 30.2384 52.5187 30.6727C53.443 30.6623 53.9684 29.4927 54.6336 29.7908C54.5991 32.7063 55.2687 34.9172 56.9248 36.1406C56.5776 37.113 56.8037 38.152 57.4536 38.6101C58.5238 37.6784 61.2077 38.1824 63.0931 38.4337C64.0996 38.6179 63.6413 37.3361 64.6793 37.5517C66.245 39.3839 64.9594 42.2023 64.503 45.1364C64.0026 48.3535 63.8331 51.6079 63.2692 54.3083C53.7518 53.1331 45.1687 51.0227 36.3052 49.1932C37.3261 44.6294 38.2666 39.9852 39.8298 35.9642C39.5861 35.5615 39.428 35.073 38.5962 35.2586C38.9251 33.9415 39.1888 32.5592 40.7111 32.4364C41.309 30.6242 42.3293 29.2348 43.5309 28.0267C43.2277 25.9245 41.9504 25.4619 42.2973 22.5588C42.8387 18.0226 45.2593 10.9847 45.8216 6.68402Z" fill="#999999"/>
<path fill-rule="evenodd" clip-rule="evenodd" d="M49.8751 7.56586C65.3064 10.9949 81.8715 13.2891 99.0452 14.9741C98.4478 23.2543 97.7132 31.3972 96.9304 39.4918C86.4019 38.5641 76.241 37.2685 66.2651 35.7876C65.9515 36.6495 65.8341 37.7081 65.7363 38.7862C65.0669 38.5154 65.4181 37.223 64.5027 37.1987C63.4759 36.9355 63.8722 38.0964 63.0928 38.0807C61.3014 37.7351 58.1631 37.4502 57.4532 38.0807C56.9554 37.5448 57.1973 36.9521 57.2769 36.1404C55.564 34.7387 54.9857 32.2012 54.8096 29.2614C53.6227 29.1906 53.5647 30.2496 52.5185 30.3198C50.9408 28.2608 53.8603 25.8876 53.9284 23.2644C51.2598 22.5252 51.6846 18.69 49.3461 17.62C49.4917 16.3848 49.5862 14.5523 48.6411 13.5632C49.0499 11.5611 49.5025 9.60354 49.8751 7.56586Z" fill="#999999"/>
<path fill-rule="evenodd" clip-rule="evenodd" d="M252.371 10.2116C253.049 13.2374 254.192 15.7967 254.838 18.8546C255.426 18.8546 256.013 18.8546 256.601 18.8546C257.013 19.7355 256.813 21.2285 257.834 21.5003C258.448 21.4485 257.819 21.023 258.187 20.9711C259.292 21.041 259.397 22.1114 259.949 22.735C259.286 24.6586 257.424 25.3817 256.248 26.7919C255.785 26.8441 256.109 26.1076 255.543 26.2626C254.713 26.5429 253.85 27.3507 253.957 28.0265C253.678 28.0412 253.285 27.9419 253.252 28.2029C252.839 28.1456 253.081 27.4334 252.723 27.3209C251.559 27.4742 252.618 29.4826 252.195 30.4959C251.9 30.7298 251.604 30.9632 250.961 30.8487C251.136 32.2503 249.321 32.9682 248.67 32.4362C247.506 33.6483 247.632 35.7738 247.084 37.9041C246.384 37.5466 246.333 36.5391 245.321 36.4931C244.561 32.2568 242.848 28.9731 241.973 24.8515C242.308 24.9272 242.416 25.2315 242.854 25.2044C242.577 22.8109 243.894 22.0116 244.264 20.2656C243.601 19.7239 243.44 17.5936 244.264 17.0907C243.688 14.0788 245.335 11.9902 246.203 9.85882C246.872 10.0707 246.619 11.2057 247.612 11.0935C248.934 9.78226 250.446 8.82348 252.371 10.2116Z" fill="#999999"/>
<path fill-rule="evenodd" clip-rule="evenodd" d="M136.407 13.9158C136.822 13.9119 136.926 14.2196 137.465 14.0922C138.05 15.2704 137.767 17.3173 138.698 18.1492C139.942 18.374 141.634 18.1505 142.047 19.2075C143.306 19.4682 143.676 18.839 144.162 18.3255C146.403 18.2918 147.36 20.3699 149.449 19.913C149.547 21.3722 151.122 20.3886 150.859 21.5005C152.498 22.0535 153.528 21.181 154.383 20.442C154.918 20.4366 154.554 21.3295 155.088 21.3241C157.201 20.4547 158.265 22.096 160.023 21.6769C158.282 22.8749 156.452 23.1876 154.912 24.3226C152.587 26.0363 151.388 28.974 148.744 30.3198C148.744 31.4957 148.744 32.6717 148.744 33.8476C147.877 34.92 146.378 35.3601 146.277 37.199C146.318 37.8037 147.218 37.5504 147.334 38.081C146.702 39.475 146.903 40.764 146.981 42.6671C147.631 43.4825 148.77 43.8162 149.625 44.431C150.332 44.9398 150.667 45.5639 151.387 46.1949C152.488 47.1583 154.644 47.265 154.207 49.899C146.649 50.2721 138.871 50.4247 130.944 50.4282C130.428 46.0055 132.334 39.1594 129.182 37.3756C129.453 36.8834 130.124 36.7903 130.415 36.3171C130.977 34.2885 129.854 32.5459 129.534 30.6728C129.182 28.6108 129.653 26.3169 129.182 24.323C128.914 23.1919 128.25 22.4511 128.124 21.5008C127.911 19.8957 128.716 17.6976 127.771 16.3855C130.09 16.1826 133.392 16.5217 136.231 16.3855C136.637 15.9096 136.294 14.6839 136.407 13.9158Z" fill="#999999"/>
<path fill-rule="evenodd" clip-rule="evenodd" d="M127.419 16.2088C128.285 17.8577 127.549 19.605 127.772 21.5003C127.893 22.5316 128.562 23.3738 128.829 24.4989C129.283 26.4112 128.863 28.7101 129.182 30.6723C129.42 32.1414 130.444 33.5396 130.063 35.082C118.851 35.1322 108.497 34.3245 97.9878 33.6709C98.2851 27.2069 98.9274 21.0884 99.5739 14.9739C108.609 15.6326 117.605 16.3305 127.419 16.2088Z" fill="#999999"/>
<path fill-rule="evenodd" clip-rule="evenodd" d="M16.2139 17.2671C16.799 17.8893 17.0165 19.8386 16.3901 20.6185C16.93 21.1952 17.7341 21.5074 18.3288 22.0296C19.2032 21.9641 20.4742 22.2954 20.6198 21.5003C21.8385 21.5522 22.8927 22.5932 24.1446 22.9114C24.5185 23.0065 25.2362 22.6491 25.7308 22.735C26.296 22.8331 26.3887 23.247 26.7882 23.2642C29.0074 23.3597 31.213 22.8363 33.4853 23.0878C36.4082 23.4115 39.0403 24.7642 41.9446 25.0281C41.9825 26.5677 43.1859 26.2997 43.1785 27.4975C43.1693 28.9393 40.612 29.8099 40.711 31.7308C39.3804 32.3394 38.5127 33.4111 38.2437 35.0822C38.05 35.9227 39.2935 35.3249 39.3011 35.9642C37.9494 40.0793 37.0008 44.5978 35.9526 49.0168C24.595 46.8611 14.3156 43.6263 3.8775 40.5503C3.11237 39.0554 4.28325 37.2987 4.05376 35.2587C8.12605 30.2211 10.2412 23.2249 12.6894 16.5618C14.3635 15.5587 14.6496 17.2177 16.2139 17.2671Z" fill="#999999"/>
<path fill-rule="evenodd" clip-rule="evenodd" d="M168.13 24.3225C166.675 25.2765 165.447 26.4586 165.134 28.5558C165.674 28.9239 166.018 27.8762 166.544 27.6737C168.644 27.6294 169.154 29.1769 170.245 30.1431C170.793 30.5626 171.208 29.7432 171.655 29.7903C172.241 29.8522 172.493 30.6411 173.593 30.1431C174.611 29.6825 174.952 28.6136 176.061 28.3792C177.529 28.0687 178.877 28.4787 179.938 27.4971C180.335 27.6286 180.007 28.4864 180.114 28.9082C181.199 30.1544 182.889 28.7239 184.167 28.5554C184.024 30.1104 184.223 31.3225 185.401 31.554C182.879 32.0342 181.329 32.2984 178.528 31.7304C178.173 33.4326 174.595 31.9094 174.827 34.1998C174.086 32.9058 172.968 35.0029 172.183 34.0233C171.114 35.2455 170.908 37.3331 170.069 38.7858C169.087 38.2397 169.13 36.6677 169.011 35.258C168.811 34.8112 168.23 34.7463 167.601 34.7288C167.729 34.1897 167.421 34.086 167.425 33.6704C163.823 33.6889 161.811 32.1166 158.437 31.9064C157.987 31.5339 157.946 30.7519 157.203 30.6716C158.19 30.1891 159.192 29.7222 159.847 28.9077C164.083 28.8565 163.729 24.2101 168.13 24.3225Z" fill="#999999"/>
<path fill-rule="evenodd" clip-rule="evenodd" d="M240.739 25.3807C241.068 25.2121 241.328 25.9091 241.444 25.3807C242.872 28.832 244.006 32.5766 244.969 36.493C245.699 37.0558 246.296 37.752 246.908 38.4333C245.586 40.6439 242.533 42.044 239.329 41.7847C239.07 38.8433 239.592 35.596 239.329 32.4363C239.696 31.6855 240.532 31.4058 240.916 30.6724C240.793 28.962 239.835 27.0561 240.739 25.3807Z" fill="#999999"/>
<path fill-rule="evenodd" clip-rule="evenodd" d="M239.858 27.321C240.508 29.382 240.926 31.3904 238.801 32.0835C239.558 35.1084 238.36 39.1682 239.153 41.9611C238.297 42.3385 237.33 42.6056 236.157 42.6668C235.711 40.8201 236.027 38.2109 234.219 37.7279C233.989 35.0428 233.231 32.3037 232.633 29.2614C234.946 28.5189 237.604 28.1223 239.858 27.321Z" fill="#999999"/>
<path fill-rule="evenodd" clip-rule="evenodd" d="M155.441 28.5558C155.28 29.3359 154.717 29.7125 154.56 30.4961C154.719 30.9221 155.555 30.5712 155.617 30.3197C156.661 30.8034 157.838 31.1543 158.261 32.26C161.646 32.3994 163.545 34.0269 167.073 34.0239C166.942 34.7498 167.632 35.2182 168.659 35.2586C168.621 37.0015 168.998 38.329 169.716 39.3154C169.034 39.9329 167.841 41.6989 168.659 42.6668C170.123 41.1931 171.186 39.3172 172.36 37.5515C171.003 42.7679 168.686 48.8002 170.421 55.1902C165.471 55.0905 159.349 56.9285 155.617 54.8374C155.148 54.0047 154.83 52.6076 155.441 51.6624C154.727 50.7897 154.434 49.4949 154.383 47.9582C152.144 46.0253 150.018 43.9782 147.334 42.4902C147.265 40.6584 147.074 39.5627 147.687 38.257C147.623 37.6152 147.27 37.2626 146.629 37.1985C146.919 35.7248 147.829 34.8717 149.096 34.3764C149.159 32.9108 148.874 31.0962 149.449 30.1431C152.009 30.939 153.577 28.4573 155.441 28.5558Z" fill="#999999"/>
<path fill-rule="evenodd" clip-rule="evenodd" d="M231.928 29.4376C233.221 31.9311 233.415 35.2496 233.866 37.9041C234.028 38.2122 234.417 38.2935 234.924 38.257C236.1 40.7205 235.44 44.0072 235.805 47.0763C236.068 49.289 237.352 51.5682 236.334 53.4261C236.72 54.1753 236.604 54.5428 236.51 55.5428C238.183 53.7734 241.419 54.1076 243.031 52.0152C243.181 52.2768 243.474 52.3943 243.912 52.368C241.773 54.3427 239.742 56.4259 235.981 56.7777C235.723 56.931 235.422 57.0418 235.452 57.4833C235.231 56.7285 236.324 55.7718 235.981 54.3083C234.065 53.6978 232.34 52.8958 230.342 52.368C229.778 51.2275 229.023 50.2779 228.051 49.5458C221.259 50.8034 214.859 52.453 207.783 53.4263C207.77 50.5321 210.142 50.0253 211.132 48.1347C210.887 46.9685 209.741 46.7046 209.546 45.489C211.807 43.2384 216.089 44.5443 219.062 43.5487C220.277 42.9416 220.63 41.4716 222.058 41.0791C221.857 39.9162 221.357 39.534 221.882 38.4334C221.59 38.0788 220.724 38.2997 220.649 37.7277C220.754 36.3632 221.911 36.0517 222.587 35.2584C223.11 33.4294 224.444 32.4134 225.407 31.0251C227.42 30.3357 230.007 30.2203 231.928 29.4376Z" fill="#999999"/>
<path fill-rule="evenodd" clip-rule="evenodd" d="M188.926 37.1987C188.692 36.9697 188.27 36.9662 188.221 37.3751C189.041 38.3767 189.545 39.6957 189.278 41.7847C187.981 42.0148 188.737 44.3003 187.164 44.2543C187.026 45.5094 187.338 46.3135 188.221 46.5472C189.789 45.8829 189.752 43.6109 191.393 43.0194C193.605 44.581 194.827 48.9739 194.213 52.1916C193.33 52.3221 194.447 51.5415 193.861 51.4859C192.57 53.2511 191.899 55.6379 191.041 57.8359C186.155 58.6945 181.327 58.6585 176.061 59.247C177.069 56.8569 178.007 55.3627 177.823 52.897C177.664 50.7727 175.858 49.2412 175.708 47.4291C175.692 47.2301 175.813 45.6555 175.884 44.7833C175.98 43.6136 177.185 42.2653 176.237 41.0791C177.045 40.6758 177.103 40.214 177.118 39.3152C178.142 39.1048 178.45 38.179 178.88 37.3749C179.277 38.014 178.471 38.959 178.704 40.0207C180.245 40.0628 180.008 38.0973 179.762 36.8457C180.091 36.1757 181.413 36.499 181.7 35.7872C181.241 35.5997 180.757 35.4374 180.643 34.9052C182.368 31.8803 185.407 35.6549 188.045 35.4344C188.075 36.2859 188.895 36.3475 188.926 37.1987Z" fill="#999999"/>
<path fill-rule="evenodd" clip-rule="evenodd" d="M130.063 35.6111C130.21 36.6994 129.104 36.5332 128.829 37.1986C129.131 38.19 129.942 38.6716 130.591 39.3153C130.591 42.8431 130.591 46.3708 130.591 49.8984C130.828 50.782 129.57 50.1701 129.887 51.1333C129.808 51.9761 130.038 52.5105 130.591 52.7207C130.301 54.3575 129.667 55.928 130.415 56.7778C129.153 55.0823 126.176 53.5045 123.718 55.0139C122.847 54.5337 121.996 54.033 121.251 53.4264C112.715 53.268 104.694 52.5937 96.4014 52.1917C96.5191 45.7833 97.3821 40.1206 97.8113 34.024C108.321 34.7944 119.134 35.2603 130.063 35.6111Z" fill="#999999"/>
<path fill-rule="evenodd" clip-rule="evenodd" d="M96.7541 39.8444C96.3443 48.3123 95.533 56.3784 94.8154 64.5383C83.4991 63.8699 73.3142 62.0693 62.564 60.8343C63.8214 52.5678 65.1812 44.404 66.4413 36.1402C76.2163 37.7046 86.3642 38.8957 96.7541 39.8444Z" fill="#999999"/>
<path fill-rule="evenodd" clip-rule="evenodd" d="M247.436 40.9029C246.982 41.502 246.411 42.6505 247.084 43.3722C247.623 43.5001 247.602 43.0679 248.141 43.1958C249.303 44.1394 249.336 45.8231 250.961 45.8416C251.804 45.8513 251.97 44.561 252.724 45.3124C252.001 46.1768 250.315 46.0764 249.904 47.2527C249.643 47.1027 249.525 46.8088 249.551 46.3708C248.456 46.477 248.449 47.4848 248.141 47.9583C247.054 47.2827 246.478 46.0949 245.674 45.1361C242.435 45.7747 239.412 46.6291 236.157 47.2527C236.157 45.8416 236.157 44.4305 236.157 43.0194C239.415 42.6936 242.072 41.7659 245.145 41.2555C245.186 40.1064 247.118 38.675 247.436 40.9029Z" fill="#999999"/>
<path fill-rule="evenodd" clip-rule="evenodd" d="M3.87741 41.0791C10.1272 42.7026 16.0565 44.647 22.3823 46.1944C21.4955 50.6737 20.0777 55.0575 18.8575 59.5996C18.4197 61.2295 17.7495 63.4771 17.9762 64.7149C18.1348 65.5813 19.5994 67.3868 20.4436 68.5954C26.2789 76.9501 32.5267 86.822 38.0672 94.877C37.9726 96.5915 38.9536 98.3515 39.6534 99.8157C38.2699 100.665 36.9526 101.581 37.0098 103.873C36.5593 104.186 36.2398 104.631 35.6 104.754C35.5903 105.568 35.678 106.479 35.4237 107.048C35.341 107.659 36.3801 107.149 36.4811 107.577C36.0762 109.801 32.8905 108.751 30.3127 108.459C27.6024 108.151 24.6664 107.6 22.5584 107.4C22.5843 102.788 21.1541 99.6338 17.6237 98.581C18.3105 98.2637 17.8015 97.1503 17.6237 96.6407C15.0471 96.7423 14.3918 94.5118 13.0415 92.9367C11.0365 93.0032 10.7201 91.3797 8.45926 91.702C8.48905 91.2604 8.18853 91.1498 7.93048 90.9964C8.27243 89.9275 8.38224 88.6263 8.81178 87.6451C8.60097 85.9915 7.21152 84.8126 6.52059 83.2355C6.1968 82.4965 6.26519 81.5285 5.99181 80.7661C5.6645 79.8529 4.60184 79.0093 4.58192 78.1203C4.54596 76.5276 7.89188 74.5587 4.58192 74.0635C3.69534 73.0287 3.08707 69.6616 4.58192 68.7718C4.1344 69.7015 4.55989 70.7777 5.46304 70.8885C5.93876 69.9373 5.33772 68.5481 4.93426 67.8899C5.79229 67.6542 5.87918 67.2582 5.46304 66.4788C4.29532 66.2783 4.46753 67.8633 4.40566 68.2427C3.54834 67.9249 3.27179 67.0257 2.64325 66.4788C3.53423 62.7808 -0.575065 61.3616 0.881362 57.1303C1.01814 56.7328 1.52012 56.4968 1.5864 56.072C1.92799 53.8831 0.965438 52.7746 0.000244141 50.9567C1.33629 47.708 4.20508 45.9933 3.87741 41.0791Z" fill="#009EFF"/>
<path fill-rule="evenodd" clip-rule="evenodd" d="M245.322 45.4888C246.104 46.3516 246.948 47.153 247.436 48.3109C246.272 48.3766 246.191 49.6612 244.793 49.8984C244.946 48.1575 244.322 47.1945 244.088 45.8416C244.548 45.773 245.055 45.7511 245.322 45.4888Z" fill="#999999"/>
<path fill-rule="evenodd" clip-rule="evenodd" d="M243.736 46.0179C244.054 47.2867 244.578 48.3494 244.441 50.0748C243.037 51.0285 241.177 50.8723 240.035 51.4859C238.643 52.2333 238.189 53.7679 236.686 53.779C237.639 51.9282 236.563 49.5715 236.51 47.6054C238.906 47.0639 241.228 46.4473 243.736 46.0179Z" fill="#999999"/>
<path fill-rule="evenodd" clip-rule="evenodd" d="M49.3464 52.3678C46.9317 64.3863 44.9629 77.0137 42.1207 88.8796C41.1099 88.6263 40.5659 87.2674 39.3009 87.8214C38.1404 89.1292 38.9859 92.445 38.4198 94.3476C38.0868 94.8337 37.523 93.6312 37.186 93.1129C31.8781 84.9438 26.5928 76.6228 20.796 68.2425C19.896 66.9415 18.4893 65.4976 18.3288 64.5383C18.137 63.3926 18.8115 61.2531 19.2099 59.7758C20.3274 55.6329 21.8772 50.5767 22.7347 46.3706C31.3044 48.6708 40.4986 50.3461 49.3464 52.3678Z" fill="#999999"/>
<path fill-rule="evenodd" clip-rule="evenodd" d="M231.223 52.7207C230.751 54.505 229.921 56.2499 230.165 58.365C231.427 58.7487 231.825 59.9961 232.985 60.4817C232.175 61.1411 231.607 62.0426 231.046 62.9512C230.633 63.0075 230.385 63.23 229.813 63.1277C229.293 63.3714 229.099 63.9423 228.579 64.1861C221.308 65.5515 214.159 67.04 206.726 68.243C206.65 66.2806 205.855 63.2517 205.492 61.1875C205.104 58.9821 204.397 55.5463 204.611 54.6613C204.926 53.3566 206.686 53.0997 207.431 52.1918C207.431 52.721 207.431 53.2502 207.431 53.7793C214.485 52.902 220.94 51.4248 227.345 49.8987C228.302 49.7058 227.85 50.9223 228.932 50.6043C229.249 51.4039 229.67 52.0992 230.165 52.7208C230.518 52.7206 230.87 52.7207 231.223 52.7207Z" fill="#999999"/>
<path fill-rule="evenodd" clip-rule="evenodd" d="M154.383 50.2513C155.521 51.7783 153.7 55.5892 157.027 55.5428C157 57.1885 159.428 57.8875 159.67 59.247C159.881 60.4274 158.848 61.1551 158.437 62.422C157.4 62.7366 155.785 62.473 155.617 63.6569C155.335 64.7033 156.177 64.625 156.322 65.2444C156.159 66.6683 155.675 67.7721 154.56 68.243C154.56 68.6545 154.56 69.0661 154.56 69.4776C153.718 69.4385 153.804 68.4703 153.15 68.243C146.925 68.5975 140.656 68.9085 133.94 68.7722C133.565 63.4441 131.718 59.5893 130.239 55.3669C130.808 54.819 130.79 53.6845 130.944 52.721C130.547 52.2368 130.006 51.8965 130.239 50.7807C138.474 50.7914 146.543 50.6355 154.383 50.2513Z" fill="#999999"/>
<path fill-rule="evenodd" clip-rule="evenodd" d="M49.6989 52.3678C53.9413 53.3546 58.4829 54.0419 63.093 54.6609C62.6897 56.6677 62.5041 58.8928 62.2117 61.0107C65.1642 61.5246 68.1585 61.9968 71.3761 62.2456C70.2875 70.5047 69.1485 78.7131 68.0275 86.9395C59.5861 86.0395 51.8737 84.41 43.8831 83.0591C45.8016 72.8085 47.8175 62.6554 49.6989 52.3678Z" fill="#999999"/>
<path fill-rule="evenodd" clip-rule="evenodd" d="M135.526 72.4758C124.708 72.6019 114.527 72.0916 104.156 71.7702C104.026 69.4059 104.535 67.6805 104.508 65.4202C101.42 65.1602 98.5502 64.6809 95.168 64.7146C95.5727 60.7099 95.9079 56.6358 96.2255 52.544C101.431 52.7857 111.517 53.4548 118.431 53.7787C121.105 53.9039 121.97 54.0447 123.542 55.3662C124.359 54.8906 125.636 54.8742 126.715 54.6605C127.254 55.2968 128.361 55.3646 129.006 55.8952C129.761 56.1387 129.43 57.4695 130.768 57.1299C131.03 58.6733 131.418 60.5896 132.002 62.0688C132.202 62.5763 132.728 62.9498 132.883 63.4799C133.323 64.9889 133.082 66.7219 133.412 68.2424C133.775 69.9181 135.018 71.2907 135.526 72.4758Z" fill="#999999"/>
<path fill-rule="evenodd" clip-rule="evenodd" d="M235.629 54.4845C235.897 56.2226 234.67 56.4641 234.924 58.1885C235.597 58.3461 236.049 57.9006 236.334 58.1885C237.449 62.6827 235.303 65.1972 234.043 68.2425C233.504 67.9164 234.246 67.4046 234.043 66.8314C232.279 66.5974 230.909 65.9697 230.166 64.7147C230.948 63.087 232.263 61.9931 233.338 60.6579C232.528 59.6453 231.628 58.7239 230.518 58.0121C230.146 57.0309 231.409 56.5613 230.518 55.5426C231.345 55.2531 231.015 53.8055 231.575 53.2496C232.916 53.6718 234.226 54.1246 235.629 54.4845Z" fill="#999999"/>
<path fill-rule="evenodd" clip-rule="evenodd" d="M201.262 74.4161C200.692 74.3988 200.886 73.6166 200.029 73.8869C199.353 74.9744 199.501 76.8862 198.795 77.9437C197.48 77.8485 196.748 77.1705 196.328 76.1798C194.957 76.8281 193.977 76.7761 192.45 77.2383C191.868 76.7046 191.133 76.3227 189.807 76.5326C189.818 74.8418 188.336 74.8575 186.811 75.1215C186.283 69.7111 185.654 64.4028 185.049 59.0704C188.923 58.3353 192.66 57.6088 195.623 59.5996C199.331 58.9012 200.947 56.1097 203.906 54.6609C204.571 55.9275 205.784 62.1191 205.316 64.0093C204.604 66.8814 205.439 69.8837 203.377 71.0647C201.748 70.6334 200.728 72.6827 201.262 74.4161Z" fill="#999999"/>
<path fill-rule="evenodd" clip-rule="evenodd" d="M170.421 55.5428C170.572 57.7846 172.011 59.0378 172.183 62.2456C172.397 66.2066 173.421 71.4892 173.241 74.9454C173.217 75.3938 173.018 75.9315 173.065 76.3564C173.163 77.25 173.851 77.9836 173.77 78.826C173.65 80.07 172.469 81.3333 171.831 82.001C172.403 84.1016 170.547 85.7895 171.655 86.7635C171.059 87.108 170.208 87.1972 169.716 87.6453C169.267 88.7712 170.235 88.7156 169.892 89.5854C169.097 89.5001 168.693 89.022 167.954 88.88C167.078 89.062 166.806 89.8483 166.191 90.2911C164.781 88.9835 165.571 86.9688 164.077 85.3524C162.09 85.2238 161.252 83.9462 160.376 82.7064C160.909 81.6531 161.366 80.5232 161.433 79.0024C160.999 78.3783 159.881 78.4391 158.789 78.4732C158.243 74.9628 154.376 74.7762 154.207 70.8885C154.406 70.0292 155.159 69.724 154.912 68.4192C155.121 68.2161 155.535 68.2195 155.97 68.2427C156.174 66.557 157.323 65.1625 155.97 63.8331C156.176 63.8047 156.118 63.5115 156.146 63.3038C158.503 63.246 160.476 61.267 160.023 59.0706C159.861 58.2835 159.117 58.2762 158.613 57.6595C158.199 57.1527 158.612 56.2087 157.732 56.4248C161.817 55.9865 166.217 55.8628 170.421 55.5428Z" fill="#999999"/>
<path fill-rule="evenodd" clip-rule="evenodd" d="M184.696 58.8942C185.437 64.8556 185.863 71.132 186.811 76.8855C185.9 77.0907 185.689 77.9964 184.344 77.7676C184.207 80.0413 181.811 80.0535 181.877 82.5301C181.354 82.4062 180.216 82.8986 180.467 82.0008C179.669 82.3191 178.605 82.3715 178.88 83.7647C178.33 84.2634 178.302 83.1708 177.823 83.0591C176.973 83.2078 176.565 83.7988 176.237 84.4702C175.602 83.2382 173.461 83.9581 172.36 84.2938C171.281 81.9566 173.856 81.1507 174.122 79.0023C174.246 78.0059 173.536 77.3564 173.417 76.3565C173.238 74.8535 173.344 73.0203 173.241 71.2414C173.036 67.7107 172.782 63.8889 172.536 60.4817C173.678 61.2101 174.495 59.8368 175.532 59.5997C178.278 58.9724 181.599 59.3675 184.696 58.8942Z" fill="#999999"/>
<path fill-rule="evenodd" clip-rule="evenodd" d="M104.156 65.5968C103.614 73.8148 103.098 82.0594 102.746 90.4671C90.7396 89.9017 79.4373 88.6312 68.3799 87.1157C69.6158 78.9456 70.4301 70.3533 71.9047 62.4218C82.2853 63.8504 92.9326 65.0118 104.156 65.5968Z" fill="#999999"/>
<path fill-rule="evenodd" clip-rule="evenodd" d="M234.043 71.0648C233.314 71.5113 232.068 71.4407 231.047 71.594C230.514 69.1282 229.857 66.7878 229.108 64.5386C229.367 64.2321 229.084 63.5145 229.813 63.4803C230.505 63.4478 229.728 64.5971 229.813 64.8914C230.036 65.6596 230.532 65.6838 231.223 66.6553C231.911 67.6225 231.969 69.4415 233.514 69.4775C233.626 70.0707 233.639 70.7633 234.043 71.0648Z" fill="#999999"/>
<path fill-rule="evenodd" clip-rule="evenodd" d="M205.669 64.5386C205.812 65.2795 206.431 67.0656 206.373 68.5954C208.256 68.5393 209.549 67.8926 211.484 67.8898C211.574 68.9174 211.671 69.9375 212.013 70.712C213.1 69.8599 214.236 69.056 215.185 68.0662C216.729 68.3181 217.26 67.556 217.829 66.8315C218.814 67.483 220.643 67.8607 219.944 69.6537C219.065 69.1222 218.343 68.4337 217.124 68.2426C217.178 70.4722 216.011 71.4799 215.362 73.0051C215.009 73.0051 214.657 73.0051 214.304 73.0051C214.264 74.0231 214.078 74.8957 213.599 75.4744C212.593 75.6586 213.051 74.3768 212.013 74.5926C211.517 77.2209 209.691 79.9688 209.722 82.0008C208.855 82.2446 208.119 83.1784 207.255 82.8827C206.876 83.3858 206.646 84.0375 206.021 84.2938C204.996 83.7118 204.556 84.1962 203.906 84.823C201.068 83.9593 199.829 81.4951 198.09 79.5315C198.09 79.1199 198.09 78.7082 198.09 78.2966C198.702 78.4381 198.768 78.034 199.324 78.1202C199.706 76.9155 199.873 75.4946 200.205 74.2396C200.876 73.9803 200.24 75.0281 200.91 74.7688C201.226 74.7912 201.282 74.5529 201.615 74.5924C201.075 72.9351 201.933 72.2465 202.496 71.241C205.317 71.4688 205.493 67.544 205.669 64.5386Z" fill="#999999"/>
<path fill-rule="evenodd" clip-rule="evenodd" d="M228.755 64.5386C229.292 66.9033 230.521 69.4455 230.518 71.7704C231.547 72.2197 232.945 71.651 234.042 71.594C234.177 72.5516 233.763 72.961 233.866 73.8871C233.192 74.3297 231.947 74.2004 231.575 74.9454C230.877 74.7623 230.924 73.8337 230.518 73.3579C229.921 73.4075 229.506 73.6386 228.755 73.5343C228.26 73.0017 227.625 71.726 228.579 71.2414C228.5 70.6232 227.821 70.8804 227.698 70.7121C228.279 70.1295 228.521 68.4411 227.345 68.2428C227.538 67.4943 227.929 66.9458 228.227 66.3025C227.392 66.1173 226.568 67.462 226.288 68.4192C226.464 68.6549 226.764 68.7655 226.817 69.1248C225.582 71.5196 228.072 72.7946 227.874 74.5928C226.567 74.2548 224.912 74.2647 223.645 73.8871C223.333 72.5517 224.86 71.7537 224.878 70.1829C224.845 70.04 224.701 70.007 224.702 69.8301C223.256 70.1889 223.149 69.91 221.706 69.6537C221.412 69.3032 221.722 69.4295 221.706 68.9481C220.124 68.3562 219.663 66.6414 217.476 66.6549C216.971 67.0938 216.244 68.2384 215.185 67.537C214.518 68.7501 212.805 68.9174 212.365 70.3592C211.985 69.6812 211.924 68.6843 211.837 67.7134C217.543 66.7218 223.114 65.5951 228.755 64.5386Z" fill="#999999"/>
<path fill-rule="evenodd" clip-rule="evenodd" d="M153.15 68.5954C153.369 69.1407 153.732 69.5418 154.207 69.8303C153.285 73.2014 156.2 75.5268 158.261 77.0621C158.226 77.7435 158.254 78.3619 158.437 78.826C159.598 78.7219 160.547 78.8304 161.08 79.3552C161.177 80.7282 159.912 81.5545 160.023 82.7064C160.165 84.1738 162.209 85.4049 163.9 85.705C164.744 87.2479 164.868 88.5161 165.31 90.2911C165.594 90.6536 166.194 90.7002 166.896 90.6439C166.918 91.3714 166.59 91.7484 166.72 92.584C165.395 92.1402 166.23 93.8575 164.958 93.466C165.156 95.0172 164.612 95.8244 164.253 96.8173C163.258 96.7626 162.685 97.13 161.609 96.9937C161.825 95.8682 163.359 95.1536 162.314 93.8187C154.735 93.994 147.599 94.6127 139.756 94.5243C139.733 88.9622 139.855 83.254 139.58 77.9441C138.523 77.5317 137.961 76.6244 137.465 75.651C137.27 74.6333 138.416 74.9561 138.17 73.8871C137.996 72.7867 137.073 73.5094 136.407 73.0051C135.811 71.6617 134.552 70.9818 134.469 69.1246C140.994 69.2463 147.122 68.971 153.15 68.5954Z" fill="#999999"/>
<path fill-rule="evenodd" clip-rule="evenodd" d="M217.3 68.5954C218.305 69.0008 219.08 69.6366 220.12 70.0065C220.557 69.7969 220.124 68.7164 220.825 68.7718C221.112 70.3071 223.203 70.037 223.997 71.0649C224.036 72.2657 222.83 72.8085 223.469 74.0635C225.322 74.7369 227.399 75.1863 229.108 76.0038C228.946 77.5267 229.158 77.9242 229.637 79.0024C229.674 79.819 229.008 78.829 228.756 79.3552C228.774 80.4364 230.415 80.6961 229.989 81.6482C228.839 81.3883 228.792 80.0238 227.346 80.0607C227.823 81.3465 229.004 81.9283 229.813 82.8828C230.452 83.0518 229.992 82.1216 230.342 82.001C230.914 82.1033 231.162 81.8808 231.575 81.8246C231.885 82.4559 232.106 83.175 232.633 83.5885C220.991 86.7358 207.938 88.2262 195.271 89.9383C196.226 89.4838 196.893 88.7396 197.914 88.3508C198.204 85.9361 200.565 85.5944 201.439 83.7649C202.113 84.6109 202.684 85.2596 203.906 85.176C204.444 85.1391 204.412 84.4733 204.964 84.2939C205.304 84.1833 207.694 85.0322 207.255 83.4121C208.137 83.4826 208.948 82.5602 210.074 82.3538C209.906 79.5265 212.089 78.193 212.013 74.9455C212.862 75.0369 212.639 76.2003 213.952 75.8276C214.371 75.1888 214.472 74.2316 214.657 73.3581C214.95 73.3581 215.244 73.3581 215.538 73.3581C216.095 71.7397 217.721 71.1914 217.3 68.5954Z" fill="#999999"/>
<path fill-rule="evenodd" clip-rule="evenodd" d="M223.821 70.1829C224.056 70.1829 224.291 70.1829 224.526 70.1829C224.526 70.418 224.526 70.6533 224.526 70.8885C224.077 70.8668 223.842 70.6316 223.821 70.1829Z" fill="#999999"/>
<path fill-rule="evenodd" clip-rule="evenodd" d="M137.817 73.7105C137.63 74.7387 137.005 74.8856 137.112 75.8273C137.236 76.9148 138.654 77.6511 139.227 78.2966C139.46 82.4736 139.407 86.9357 139.403 91.3492C127.254 91.8234 114.89 91.104 103.099 90.6438C103.284 84.3028 103.755 78.2485 104.156 72.1232C114.521 72.4503 124.706 72.9575 135.526 72.8289C136.365 73.0476 136.55 73.9201 137.817 73.7105Z" fill="#999999"/>
<path fill-rule="evenodd" clip-rule="evenodd" d="M231.399 80.4132C230.382 78.2282 231.719 76.7821 232.104 74.7688C232.683 74.9812 233.43 73.9298 233.514 74.7688C231.641 75.482 233.23 79.6592 231.399 80.4132Z" fill="#999999"/>
<path fill-rule="evenodd" clip-rule="evenodd" d="M189.631 76.8855C190.957 76.6756 191.691 77.0573 192.274 77.5912C192.859 77.6474 192.94 77.1994 193.332 77.0619C193.644 77.2786 194.261 77.1905 194.389 77.5912C195.273 77.5349 195.133 76.4538 196.152 76.5329C196.305 77.3786 196.839 77.8436 197.738 77.944C197.738 78.5907 197.738 79.2376 197.738 79.8843C199.174 80.7991 199.457 82.8675 201.262 83.4121C200.375 85.3459 197.884 85.6749 197.561 88.1744C194.091 91.0938 187.52 90.8018 180.995 91.173C177.866 91.3512 175.306 92.1944 172.536 91.8786C172.142 91.9547 172.464 92.748 172.36 93.1133C170.008 92.9944 168.366 93.585 166.015 93.4661C166.011 92.8741 166.713 92.9893 167.073 92.7605C167.021 91.6094 167.516 90.7039 166.896 89.9383C167.161 89.6742 167.638 89.6227 167.777 89.2329C168.687 89.4394 169.318 89.9256 170.245 90.1147C170.863 89.3694 169.951 88.6514 170.069 87.8218C170.668 87.5402 171.351 87.3412 172.007 87.1161C171.248 85.9104 171.905 85.4872 172.536 84.4704C174.048 84.2917 175.298 83.8187 176.237 84.8232C176.86 84.5654 176.978 83.8016 177.47 83.4121C178.27 83.3172 177.941 84.3522 178.704 84.294C179.528 84.3541 179.031 83.0928 179.409 82.7065C180.232 82.4784 180.758 83.1108 182.053 82.8829C181.984 80.5213 184.358 80.604 184.344 78.2968C185.547 78.1486 186.221 77.4712 187.163 77.0621C187.326 76.2526 186.723 76.2099 186.811 75.4746C188.341 75.1745 189.573 75.3072 189.631 76.8855Z" fill="#999999"/>
<path fill-rule="evenodd" clip-rule="evenodd" d="M43.7067 83.4117C51.7207 84.7392 59.429 86.3729 67.8512 87.2921C66.6669 99.3946 64.5798 110.594 63.269 122.57C59.6989 121.968 55.9747 121.521 52.3423 120.982C46.4838 117.262 40.2806 113.887 34.3662 110.222C34.5217 108.673 37.2463 109.695 36.8337 107.577C36.8501 107.031 36.3014 107.051 35.7761 107.048C36.0888 106.714 35.9046 105.883 35.9524 105.284C37.4359 104.593 37.5075 102.489 38.2436 101.05C38.9181 100.844 39.5861 100.63 40.006 100.169C39.5757 98.5999 38.9012 97.2761 38.4198 95.7588C39.2865 93.8042 38.7771 90.4721 39.3009 88.1742C40.4711 87.7337 40.8562 88.9061 41.7684 89.2326C43.6776 88.5564 43.1867 85.4781 43.7067 83.4117Z" fill="#999999"/>
<path fill-rule="evenodd" clip-rule="evenodd" d="M232.456 84.1172C233.177 84.7482 233.451 85.8264 233.866 86.7631C232.333 85.5731 230.364 87.2842 229.46 88.3505C230.571 88.6107 231.37 88.1354 232.28 87.645C232.792 88.0481 233.173 88.0414 233.514 87.4686C234.039 87.8833 234.498 88.3647 234.571 89.2325C234.026 90.0396 233.319 90.6838 232.985 91.7018C232.052 91.904 231.679 91.7819 230.694 91.7018C230.517 92.2905 230.939 92.2801 231.399 92.2311C231.269 92.9244 231.093 93.5711 230.87 94.1712C231.527 94.3369 232.104 94.5828 232.809 94.7004C232.533 95.248 232.286 95.8233 231.928 96.2879C228.257 96.1706 226.245 99.1634 225.407 102.461C224.258 102.37 223.56 102.729 222.94 103.167C219.448 101.34 216.945 96.7831 210.779 98.9337C210.175 98.4803 209.878 97.7186 209.193 97.3462C201.909 96.6991 199.138 100.57 192.451 100.521C192.451 100.109 192.451 99.6979 192.451 99.2863C192.945 99.1927 193.367 99.0274 193.861 98.9337C193.861 98.5221 193.861 98.1106 193.861 97.699C195.77 97.0819 196.897 95.6816 198.795 95.0532C198.545 93.8618 199.346 93.7228 199.676 93.1129C200.192 93.0669 200.218 93.5118 200.734 93.4658C201.176 92.7998 201.58 91.9388 202.672 92.4073C203.247 91.8649 202.974 90.4753 204.259 90.6436C204.259 90.1144 204.259 89.5851 204.259 89.0561C214.287 88.0396 223.471 86.1783 232.456 84.1172Z" fill="#999999"/>
<path fill-rule="evenodd" clip-rule="evenodd" d="M97.8116 90.4673C96.7593 100.644 96.1817 111.296 95.1681 121.511C88.6216 121.419 82.9988 120.403 76.8394 119.924C75.7061 120.018 76.932 121.616 76.3107 121.511C73.704 121.004 70.8389 120.756 68.2038 120.277C67.7727 120.962 67.9202 122.227 67.675 123.099C66.3224 122.924 64.8728 122.846 63.6216 122.57C64.9333 110.653 67.0167 99.5097 68.2038 87.4688C77.7951 88.7463 87.4263 89.9842 97.8116 90.4673Z" fill="#999999"/>
<path fill-rule="evenodd" clip-rule="evenodd" d="M203.906 88.8798C204.222 90.6069 202.661 90.4562 202.672 91.8784C201.927 91.8251 200.79 92.1524 200.557 93.1131C200.247 93.0706 200.156 92.8095 200.205 92.4075C199.421 92.9753 198.36 93.2652 198.443 94.7006C196.676 95.5196 195.316 96.7453 193.508 97.5228C193.508 97.8754 193.508 98.2282 193.508 98.581C193.002 98.7213 192.572 98.9381 192.098 99.1102C192.098 99.6393 192.098 100.169 192.098 100.698C182.372 101.605 172.753 102.62 162.667 103.167C163.637 102.8 162.979 101.326 162.843 100.521C163.203 100.352 163.54 100.161 163.9 99.9921C163.83 97.3933 165.5 96.5366 165.31 93.8185C168.046 94.0281 169.936 93.3922 172.536 93.4659C172.93 93.3899 172.607 92.5966 172.712 92.2312C182.85 91.5549 194.611 90.9861 203.906 88.8798Z" fill="#999999"/>
<path fill-rule="evenodd" clip-rule="evenodd" d="M98.1641 90.6437C111.38 91.431 125.528 92.1552 139.404 91.702C140.035 98.4196 140.843 104.96 140.461 112.692C138.996 112.276 137.827 111.566 136.936 110.575C136.429 110.596 136.63 111.327 136.055 111.281C134.681 110.777 132.587 110.932 131.473 112.163C130.475 111.515 128.402 111.944 128.124 110.575C127.465 110.856 127.442 111.773 126.891 112.163C125.293 111.702 124.355 109.909 122.837 111.281C123.214 109.659 121.724 110.993 121.956 109.517C119.989 109.501 118.868 109.392 116.493 108.811C116.43 106.194 113.567 108.664 112.439 106.518C112.461 102.248 112.96 98.4556 112.968 94.1714C107.851 94.119 103.052 93.7483 98.1642 93.4659C98.1641 92.5251 98.1641 91.5843 98.1641 90.6437Z" fill="#999999"/>
<path fill-rule="evenodd" clip-rule="evenodd" d="M97.6353 93.8185C102.636 94.0463 107.441 94.47 112.616 94.5242C112.671 98.6403 111.841 102.798 112.263 106.695C113.062 107.829 114.649 108.518 115.612 107.753C116.092 107.919 116.015 108.643 116.14 109.164C118.297 109.271 119.851 110.45 121.251 109.87C121.822 110.501 122.546 110.792 122.485 111.633C124.619 110.598 124.953 112.098 126.891 112.515C127.565 112.543 127.464 111.795 127.772 111.457C128.799 111.899 130.172 111.995 131.121 112.515C132.117 112.749 131.996 111.863 132.53 111.633C134.376 111.144 135.662 112.173 136.76 111.104C138.431 112.25 140.595 113.79 142.752 113.397C142.734 116.708 142.906 119.829 143.105 122.922C144.177 125.475 147.247 129.305 144.691 132.271C145.431 133.614 144.381 135.863 144.338 137.562C142.495 137.775 141.409 138.746 139.932 139.326C136.891 143.044 131.876 144.786 127.948 147.616C126.898 149.874 124.194 152.217 124.247 155.377C124.279 157.263 125.537 159.345 125.657 161.021C125.216 160.991 125.106 161.292 124.952 161.551C124.134 161.37 123.633 160.871 123.19 160.316C122.452 159.914 121.564 160.45 120.899 160.316C120.061 160.148 119.812 159.396 119.136 159.081C117.746 158.433 116.059 158.587 115.083 157.494C114.749 154.797 112.721 153.489 113.497 150.967C113.382 150.142 112.4 150.184 111.911 149.733C110.779 148.749 110.698 146.714 109.091 146.205C108.196 141.927 105.972 138.978 103.451 136.328C101.625 136.157 99.5394 136.245 98.5166 135.269C95.3402 135.677 95.4209 139.344 93.2295 140.737C90.7948 138.663 87.4815 138.224 86.18 135.445C85.7253 134.475 86.0547 133.442 85.8275 132.271C85.0928 128.48 80.9684 127.517 79.8354 124.333C79.4848 124.096 78.9964 123.997 78.6018 123.804C78.5598 122.082 76.8977 121.982 76.6631 120.453C82.6194 120.491 88.694 121.933 95.3442 121.864C96.4427 112.85 97.1601 103.456 97.6353 93.8185Z" fill="#999999"/>
<path fill-rule="evenodd" clip-rule="evenodd" d="M162.314 94.5241C162.347 95.8509 161.13 95.9257 161.08 97.1699C161.921 97.6522 163.304 97.166 164.253 97.1699C163.35 97.9717 164.016 100.343 162.314 100.345C162.369 101.113 162.777 101.528 162.843 102.285C162.836 102.867 162.342 102.959 161.785 102.991C161.837 104.889 159.771 105.125 160.552 107.224C159.32 107.31 158.441 108.943 158.966 109.693C158.597 109.795 158.463 110.131 157.908 110.046C157.474 112.546 157.915 113.885 158.261 116.043C153.451 116.403 148.325 116.447 143.104 116.396C143.104 115.338 143.104 114.279 143.104 113.221C142.274 112.481 141.682 113.458 140.813 113.044C140.786 106.722 141.114 100.044 139.932 94.877C147.606 95.203 155.479 93.8628 162.314 94.5241Z" fill="#999999"/>
<path fill-rule="evenodd" clip-rule="evenodd" d="M209.017 97.6992C209.279 98.3192 210.231 98.2483 210.075 99.2865C212.361 99.4576 214.004 98.4653 215.714 98.7574C218.46 99.2265 219.94 102.435 222.411 103.167C221.195 104.419 219.888 105.58 220.12 108.282C219.686 108.436 219.356 108.693 219.415 109.34C217.036 110.017 217.038 113.076 214.304 113.397C214.714 115.105 213.272 116.157 211.661 116.396C210.918 115.493 211.176 113.588 209.546 113.574C209.406 112.303 208.719 111.579 208.312 110.575C205.5 109.803 205.124 106.593 202.144 105.989C201.42 105.008 200.902 103.822 200.205 102.814C198.884 102.902 198.381 102.171 197.562 101.756C199.282 98.3032 203.91 97.7618 209.017 97.6992Z" fill="#999999"/>
<path fill-rule="evenodd" clip-rule="evenodd" d="M198.09 100.169C197.917 100.818 197.137 100.861 197.209 101.756C197.872 102.503 198.491 103.295 200.029 103.167C201.196 106.585 205.054 107.31 206.549 110.399C207.1 110.612 207.649 110.827 208.135 111.104C208.494 111.98 209.094 112.615 209.193 113.75C209.483 114.048 210.149 113.969 210.426 114.279C210.534 114.995 211.034 115.317 210.955 116.22C211.266 116.673 211.858 116.844 212.718 116.749C211.436 118.941 210.592 121.855 210.779 125.215C209.424 125.405 208.335 124.432 207.43 125.215C207.203 126.271 208.27 126.954 207.607 127.861C206.876 128.005 207.518 126.774 207.078 126.626C202.367 126.968 197.744 127.398 192.803 127.508C191.076 125.478 190.255 121.314 191.393 118.336C190.327 116.095 189.221 113.741 188.397 110.752C187.563 107.725 186.904 104.585 186.106 101.58C190.158 101.167 194.249 100.793 198.09 100.169Z" fill="#999999"/>
<path fill-rule="evenodd" clip-rule="evenodd" d="M185.754 101.756C186.998 105.9 187.789 110.471 189.102 114.456C189.399 115.357 190.114 116.092 190.512 116.925C190.731 117.384 190.292 118.091 191.041 118.16C189.673 120.179 191.204 122.309 190.688 124.686C190.691 125.389 191.59 125.195 191.393 126.097C186.466 126.222 182.296 127.105 177.647 127.508C177.406 129.572 179.574 129.224 178.88 131.742C178.079 131.88 177.652 132.394 176.766 132.447C176.881 132.21 177.142 132.119 177.47 132.094C177.095 131.177 176.814 130.164 176.061 129.625C175.166 129.788 175.44 131.12 175.003 131.742C174.846 131.605 174.605 131.552 174.298 131.565C171.942 123.759 173.674 112.129 172.888 102.991C176.762 102.163 181.577 102.28 185.754 101.756Z" fill="#999999"/>
<path fill-rule="evenodd" clip-rule="evenodd" d="M172.183 102.814C173.399 104.157 172.964 106.254 172.888 107.929C172.516 116.132 172.504 124.579 173.593 132.094C171.251 131.95 168.688 131.379 167.954 133.329C167.268 132.546 167.04 131.304 166.191 130.683C166.088 129.697 166.595 129.323 166.544 128.39C163.613 128.228 159.801 128.691 156.498 128.743C156.216 124.66 159.21 123.446 159.318 120.276C158.714 119.412 158.372 118.283 158.084 117.101C157.833 116.321 158.681 116.64 158.613 116.043C158.452 113.732 157.872 112.92 158.261 110.752C158.302 110.205 158.886 110.201 159.318 110.046C159.109 108.929 159.385 108.818 159.671 107.929C159.92 107.591 160.527 107.61 160.904 107.4C160.174 105.358 162.003 105.186 162.138 103.52C165.659 103.457 168.982 103.197 172.183 102.814Z" fill="#999999"/>
<path fill-rule="evenodd" clip-rule="evenodd" d="M157.732 116.396C157.931 118.296 158.138 119.474 158.966 120.453C159.071 120.911 158.895 121.088 158.437 120.982C158.249 121.641 158.875 121.485 158.79 122.04C157.319 123.802 156.029 125.745 156.146 129.096C159.499 128.983 162.851 128.868 166.015 128.567C165.203 130.468 167.192 132.199 167.249 133.682C167.025 134.221 166.24 134.2 166.015 134.74C166.109 135.41 166.766 135.517 167.425 135.622C168.009 135.619 167.604 134.625 167.954 134.387C168.558 134.624 169.098 135.196 168.835 135.798C168.55 136.101 168.098 136.236 167.425 136.151C167.483 136.797 167.229 137.131 167.073 137.562C168.02 138.613 170.183 138.447 171.126 139.502C170.106 141.683 168.714 138.694 166.896 138.973C166.756 138.644 166.602 138.327 166.544 137.915C165.997 137.897 166.041 138.47 165.31 138.268C165.495 139.297 165.23 139.579 164.958 140.384C164.183 140.454 164.498 139.434 163.9 139.326C162.982 139.7 162.254 140.265 161.609 140.914C160.328 140.843 159.718 140.101 158.613 139.855C158.518 139.231 159.237 139.421 159.142 138.797C158.921 138.136 157.967 138.209 157.203 138.091C157.307 137.458 156.999 137.238 156.851 136.857C155.392 137.079 154.891 136.222 153.679 137.033C153.823 137.476 153.91 137.978 154.56 137.915C151.637 139.298 148.328 135.556 144.867 137.386C145.225 135.482 144.901 132.023 146.101 130.683C146.756 128.124 145.167 126.949 144.514 125.568C144.105 124.703 144.525 123.586 143.457 123.099C143.168 121.153 143.43 118.657 143.104 116.749C148.09 116.741 153.2 116.857 157.732 116.396Z" fill="#999999"/>
<path fill-rule="evenodd" clip-rule="evenodd" d="M29.0791 123.98C29.4868 124.367 29.6631 123.528 30.489 123.804C30.519 125.185 31.5054 125.609 33.1326 125.391C34.4443 126.466 35.78 126.521 37.3623 127.155C38.0206 127.344 37.8646 126.718 38.4198 126.803C39.3404 126.998 39.7451 127.71 40.7108 127.861C40.7108 136.033 40.7108 144.206 40.7108 152.379C41.3075 153.196 42.3742 152.412 43.1783 152.379C43.3304 154.167 45.2971 154.139 45.4693 155.906C46.0955 155.886 46.11 155.254 46.8792 155.377C46.7221 154.162 47.4277 153.809 48.2891 153.613C50.1726 156.138 52.4274 158.291 53.9286 161.198C54.7893 161.512 55.6986 161.778 56.5722 162.08C57.2095 163.236 57.1395 164.805 56.3959 165.784C55.889 164.939 55.175 164.301 54.1049 164.02C53.7497 164.444 54.5568 165.206 54.2812 166.137C53.7494 165.482 53.5832 166.085 53.0474 166.313C52.3369 165.201 52.1513 163.565 51.2849 162.609C50.7147 162.391 51.1503 163.179 50.5799 162.962C49.7497 163.043 49.4957 161.889 48.9938 161.198C48.493 160.508 47.0117 158.788 47.2313 157.847C45.6015 156.891 44.7126 155.193 42.6491 154.672C42.2607 154.299 42.8753 154.15 42.8254 153.613C40.4433 153.874 37.1382 152.657 34.7185 151.849C34.4843 151.143 34.2629 150.424 33.661 150.086C32.6958 149.943 32.6049 150.675 31.7223 150.615C31.7223 151.32 31.7223 152.026 31.7223 152.731C31.3642 152.061 30.6196 152.81 30.1362 152.202C28.9339 152.706 28.3071 154.72 26.4351 153.966C26.4876 153.254 27.7027 153.706 27.6687 152.908C27.6428 152.514 27.2247 153.137 26.7874 152.908C26.7615 151.878 28.2587 151.446 27.6687 150.438C28.5883 149.841 28.8008 149.824 29.9599 150.086C30.1483 149.427 29.5223 149.583 29.6074 149.027C26.7672 148.83 26.311 151.02 25.2015 152.555C24.1545 152.507 23.5277 152.879 23.2628 153.613C23.139 154.266 24.0161 153.918 24.1439 154.319C23.5289 156.761 20.3859 156.672 19.0331 158.376C17.7283 158.481 16.5741 158.737 15.6845 159.258C16.1608 159.773 16.1789 159.599 15.8608 160.316C13.9764 159.274 12.5559 161.381 10.9261 160.316C10.0866 161.214 8.85574 160.632 8.10628 161.551C7.2153 160.988 6.13553 161.422 5.46258 161.374C5.24278 160.625 6.04882 160.903 6.16761 160.492C8.63453 161.103 9.47035 159.744 11.2786 159.258C11.8331 159.173 11.9676 159.509 12.336 159.61C13.2442 158.986 14.6199 158.104 15.8608 158.376C16.1324 157.589 16.6458 157.045 17.6232 156.965C18.0494 155.686 18.7026 154.635 19.3856 153.613C19.0444 153.17 18.312 153.821 17.7995 153.79C17.8254 153.352 17.8324 152.934 17.4469 152.908C16.5246 152.631 17.3345 154.089 16.5657 153.966C16.707 153.354 16.3032 153.288 16.3894 152.731C15.7305 152.653 15.6253 152.557 15.1556 152.026C14.1996 151.833 13.9838 152.382 13.2169 152.379C13.6373 151.896 13.5664 151.313 13.3932 150.615C13.55 150.478 13.7912 150.425 14.0982 150.438C14.0113 149.82 13.8354 149.29 13.9219 148.498C13.5678 148.409 12.0663 148.987 11.2784 148.498C11.3958 147.44 10.8647 147.031 10.5734 146.381C10.852 145.896 11.2081 145.488 11.4547 144.97C11.4376 144.312 10.7667 144.958 10.7496 144.618C10.1348 142.026 13.0146 141.501 14.0982 140.032C14.8552 139.862 14.4074 140.898 14.9795 140.913C15.7425 140.971 16.1465 140.67 16.3894 140.208C18.4744 141.63 18.6674 138.628 19.2092 137.386C17.4143 136.958 14.5605 137.301 13.2171 135.622C13.2065 134.964 13.3948 134.506 13.5696 134.034C13.4635 133.259 12.4511 133.39 12.5121 132.447C14.5121 132.408 15.5077 131.547 17.4468 131.918C17.4439 132.444 16.9885 132.517 16.918 132.976C17.5456 133.613 18.7594 134.302 19.914 133.858C19.8532 132.929 18.7165 132.301 19.209 131.389C19.0675 130.943 18.4835 130.939 18.1516 130.683C18.7049 128.929 17.3327 127.64 16.5655 126.626C17.3081 125.349 18.4622 126.394 19.5615 126.097C20.4569 125.855 20.887 123.837 22.3813 123.628C22.5258 123.607 22.7791 123.909 23.0863 123.804C24.1379 123.446 24.5354 122.732 26.2587 123.099C27.2353 121.761 29.071 122.61 29.0791 123.98Z" fill="#999999"/>
<path fill-rule="evenodd" clip-rule="evenodd" d="M210.956 125.568C212.03 131.019 214.865 134.708 217.829 138.268C218.276 138.699 217.457 138.644 217.653 139.326C219.608 144.13 223.439 147.058 222.94 154.319C222.441 154.873 221.582 156.359 222.411 157.141C221.848 158.673 219.275 159.008 218.005 159.258C217.686 157.107 216.818 154.567 214.304 155.201C213.059 154.213 213.161 151.877 211.484 151.32C211.112 150.752 211.587 149.336 210.956 149.027C210.144 148.862 210.618 149.982 210.251 150.262C209.551 149.773 208.932 148.417 208.312 147.616C208.121 147.369 207.096 146.562 207.079 146.381C206.985 145.409 208.668 145.071 208.488 143.736C208.349 143.146 207.069 143.036 206.55 143.383C206.995 144.003 207.438 144.056 207.079 145.147C205.416 143.484 206.528 140.906 206.373 138.091C206.048 137.3 205.348 136.883 205.14 135.975C204.377 135.974 204.021 135.565 203.201 135.622C201.38 133.779 199.606 130.276 195.976 131.389C195.061 133.061 193.313 133.898 191.217 134.387C189.521 130.817 183.389 129.894 179.233 131.742C179.881 129.33 178.151 129.297 178 127.685C182.816 127.625 186.562 126.494 191.393 126.45C191.993 126.674 192.206 127.283 192.451 127.861C197.458 127.758 202.198 127.387 206.902 126.979C206.766 127.88 206.973 128.437 207.96 128.214C208.686 127.359 207.526 125.953 207.96 125.392C208.702 125.069 209.733 125.803 210.956 125.568Z" fill="#999999"/>
<path fill-rule="evenodd" clip-rule="evenodd" d="M67.8513 144.441C67.9269 145.281 67.6417 145.76 67.3225 146.205C66.3543 146.233 65.8686 145.779 65.2076 145.5C65.1818 144.319 66.7996 143.969 67.8513 144.441Z" fill="#999999"/>
<path fill-rule="evenodd" clip-rule="evenodd" d="M63.4453 145.676C63.1945 146.13 63.0325 146.674 62.3879 146.734C62.6449 146.286 62.7234 145.659 63.4453 145.676Z" fill="#999999"/>
<path fill-rule="evenodd" clip-rule="evenodd" d="M75.6054 147.44C76.3879 148.186 76.7411 149.361 77.5441 150.086C76.4166 150.291 75.9948 149.394 75.0767 149.909C74.7948 149.31 74.256 148.967 74.1956 148.145C74.764 148.009 75.2371 147.777 75.6054 147.44Z" fill="#999999"/>
<path fill-rule="evenodd" clip-rule="evenodd" d="M80.0115 150.615C81.2876 150.816 81.8056 150.692 83.1838 150.791C82.6561 152.032 81.1233 151.106 79.8353 151.144C79.8028 150.994 79.904 150.978 80.0115 150.968C80.0115 150.85 80.0115 150.732 80.0115 150.615Z" fill="#999999"/>
<path fill-rule="evenodd" clip-rule="evenodd" d="M83.5363 151.673C84.6499 152.381 86.6033 152.249 87.4134 153.261C86.3576 155.544 83.0269 153.477 83.5363 151.673Z" fill="#999999"/>
<path fill-rule="evenodd" clip-rule="evenodd" d="M81.2451 152.555C81.6371 152.061 82.5773 152.504 82.655 152.908C82.5332 153.256 82.1849 153.378 81.7739 153.437C81.5675 153.173 81.5548 152.715 81.2451 152.555Z" fill="#999999"/>
<path fill-rule="evenodd" clip-rule="evenodd" d="M88.2947 156.436C89.6179 157.052 90.8783 157.73 92.3481 158.199C93.0292 159.105 93.0658 160.656 94.463 160.845C93.3905 163.015 90.2388 162.108 89.5283 164.726C88.9814 164.45 88.3726 164.236 88.1184 163.667C88.4912 162.025 87.8553 160.746 87.2373 159.611C87.609 159.042 88.0791 158.571 88.6472 158.199C88.7457 157.42 87.7181 157.141 88.2947 156.436Z" fill="#999999"/>
<g clip-path="url(#clip1_405_9859)">
<path d="M20.7345 79.528C17.0984 79.528 14.1394 82.5752 14.1394 86.3216C14.1394 91.6449 20.1145 97.1413 20.3688 97.3721C20.4736 97.4673 20.604 97.5145 20.7345 97.5145C20.8649 97.5145 20.9954 97.4673 21.1001 97.3729C21.3544 97.1413 27.3296 91.6449 27.3296 86.3216C27.3296 82.5752 24.3706 79.528 20.7345 79.528ZM20.7345 90.0201C18.7142 90.0201 17.0706 88.3391 17.0706 86.2729C17.0706 84.2067 18.7142 82.5257 20.7345 82.5257C22.7548 82.5257 24.3984 84.2067 24.3984 86.2729C24.3984 88.3391 22.7548 90.0201 20.7345 90.0201Z" fill="white"/>
</g>
</g>
<defs>
<clipPath id="clip0_405_9859">
<rect width="259.949" height="165.626" fill="white" transform="translate(0 0.686829)"/>
</clipPath>
<clipPath id="clip1_405_9859">
<rect width="20.3848" height="20.3848" fill="white" transform="translate(9.34302 77.1298)"/>
</clipPath>
</defs>
</svg>
