<svg width="201" height="193" viewBox="0 0 201 193" fill="none" xmlns="http://www.w3.org/2000/svg">
<path d="M170.905 57.8871L170.905 55.6933L169.006 54.5965L102.163 16.0051L100.263 14.9082L98.3636 16.0051L31.5214 54.5964L29.6216 55.6933L29.6216 57.887L29.6216 135.07L29.6216 137.263L31.5214 138.36L98.3637 176.952L100.263 178.049L102.163 176.952L169.006 138.36L170.905 137.264L170.905 135.07L170.905 57.8871Z" fill="#009EFF" stroke="#F7F7F7" stroke-width="7.59931"/>
<path d="M91.9297 112.984V101.416H99.1556V90.938H91.9297V57.0731H75.4613L53.1953 92.0277V101.416H79.9985V112.984H91.9297ZM79.9985 90.938H64.8744L79.9985 67.6349V90.938Z" fill="white"/>
<path d="M127.276 113.99C143.241 113.99 150.466 99.4881 150.466 85.0703C150.466 70.6526 143.241 56.2349 127.276 56.2349C111.228 56.2349 104.086 70.6526 104.086 85.0703C104.086 99.4881 111.228 113.99 127.276 113.99ZM127.276 103.428C119.21 103.428 116.185 95.3807 116.185 85.0703C116.185 74.76 119.21 66.7967 127.276 66.7967C135.258 66.7967 138.283 74.76 138.283 85.0703C138.283 95.3807 135.258 103.428 127.276 103.428Z" fill="white"/>
<path d="M91.5557 132.91V123.362C91.5557 120.654 90.1057 119.368 87.6709 119.368C85.6465 119.368 83.8956 120.572 83.1296 121.776C82.6371 120.271 81.4061 119.368 79.4637 119.368C77.4392 119.368 75.6883 120.627 75.1412 121.42V119.696H71.6668V132.91H75.1412V124.019C75.661 123.28 76.6732 122.46 77.8769 122.46C79.2995 122.46 79.8467 123.335 79.8467 124.566V132.91H83.3484V123.992C83.8409 123.28 84.8531 122.46 86.0842 122.46C87.5068 122.46 88.0539 123.335 88.0539 124.566V132.91H91.5557ZM96.6869 118.274C97.836 118.274 98.7661 117.344 98.7661 116.195C98.7661 115.046 97.836 114.143 96.6869 114.143C95.5653 114.143 94.6078 115.046 94.6078 116.195C94.6078 117.344 95.5653 118.274 96.6869 118.274ZM98.4378 132.91V119.696H94.9634V132.91H98.4378ZM105.357 132.91V114.663H101.883V132.91H105.357ZM115.013 133.238C117.064 133.238 119.144 132.609 120.457 131.405L118.925 129.162C118.077 129.983 116.517 130.475 115.396 130.475C113.152 130.475 111.812 129.08 111.593 127.411H121.414V126.645C121.414 122.323 118.733 119.368 114.794 119.368C110.772 119.368 107.954 122.46 107.954 126.29C107.954 130.53 110.991 133.238 115.013 133.238ZM118.049 125.059H111.538C111.702 123.745 112.633 122.131 114.794 122.131C117.092 122.131 117.967 123.8 118.049 125.059ZM128.684 133.238C132.35 133.238 134.402 131.405 134.402 128.998C134.402 123.663 126.578 125.305 126.578 123.335C126.578 122.596 127.398 122.022 128.657 122.022C130.271 122.022 131.776 122.706 132.569 123.554L133.964 121.174C132.651 120.134 130.873 119.368 128.629 119.368C125.155 119.368 123.213 121.311 123.213 123.527C123.213 128.724 131.064 126.946 131.064 129.135C131.064 129.956 130.353 130.557 128.848 130.557C127.207 130.557 125.237 129.655 124.28 128.752L122.775 131.187C124.17 132.472 126.386 133.238 128.684 133.238Z" fill="white"/>
</svg>
