<svg width="201" height="193" viewBox="0 0 201 193" fill="none" xmlns="http://www.w3.org/2000/svg">
<path d="M170.714 57.8223L170.714 55.631L168.816 54.5354L102.049 15.9872L100.151 14.8915L98.2532 15.9872L31.4858 54.5354L29.5881 55.631L29.5881 57.8223L29.5881 134.919L29.5881 137.11L31.4858 138.206L98.2532 176.754L100.151 177.849L102.049 176.754L168.816 138.206L170.714 137.11L170.714 134.919L170.714 57.8223Z" fill="#009EFF" stroke="#F7F7F7" stroke-width="7.59081"/>
<path d="M137.417 70.3678C137.303 69.5672 136.746 68.9 135.979 68.6436C135.216 68.3852 134.367 68.5873 133.794 69.1586L130.775 72.1796C129.161 73.7933 126.349 73.7933 124.735 72.1796C123.065 70.5098 123.066 67.8104 124.735 66.1418L127.754 63.1229C128.325 62.5516 128.525 61.7052 128.269 60.9379C128.012 60.1706 127.345 59.6139 126.545 59.4994C122.56 58.9365 118.528 60.2749 115.678 63.1208C112.455 66.346 111.183 71.0871 112.361 75.4966L80.7956 107.061L80.7934 107.059C76.4006 105.893 71.6325 107.165 68.4198 110.378C65.5884 113.209 64.2333 117.273 64.7962 121.246C64.911 122.047 65.4676 122.714 66.2347 122.97C66.9958 123.227 67.8463 123.027 68.4198 122.455L71.4387 119.434C73.0524 117.821 75.8649 117.821 77.4786 119.434C79.1484 121.104 79.1476 123.803 77.4786 125.472L74.4597 128.491C73.8884 129.062 73.6883 129.909 73.9448 130.676C74.2012 131.443 74.8683 132 75.6689 132.115C79.6427 132.68 83.6413 131.385 86.5354 128.493C89.7585 125.268 91.0304 120.527 89.8525 116.117L121.418 84.5532L121.42 84.5553C125.836 85.7249 130.581 84.449 133.794 81.2362C136.625 78.4049 137.98 74.3416 137.417 70.3678Z" fill="white"/>
<path d="M124.733 106.625C123.722 106.625 122.681 106.777 121.46 107.1L113.185 98.8267L104.125 107.885L112.399 116.159C112.076 117.383 111.923 118.423 111.923 119.434C111.923 126.498 117.669 132.244 124.733 132.244C131.797 132.244 137.542 126.498 137.542 119.434C137.542 112.371 131.797 106.625 124.733 106.625ZM131.738 119.007L130.468 123.744C130.27 124.48 129.695 125.055 128.959 125.253L124.222 126.523C123.526 126.715 122.722 126.533 122.16 125.97L118.693 122.503C118.153 121.963 117.943 121.177 118.141 120.441L119.41 115.705C119.609 114.969 120.184 114.393 120.92 114.195L125.657 112.926C126.388 112.721 127.177 112.938 127.719 113.478L131.186 116.945C131.726 117.485 131.936 118.271 131.738 119.007Z" fill="white"/>
<path d="M89.8494 75.3756C91.0273 70.9661 89.7555 66.2231 86.5323 62.9998C81.6933 58.1629 73.2516 58.1629 68.4169 62.9998C63.4236 67.9952 63.4236 76.122 68.4169 81.1152C71.6255 84.3239 76.377 85.6144 80.7927 84.4323L89.0306 92.7881L98.0886 83.7311L89.8494 75.3756ZM84.2661 71.4165L82.9963 76.1533C82.7982 76.8893 82.2228 77.4647 81.487 77.6627L76.7502 78.9324C76.0543 79.1242 75.2503 78.942 74.6883 78.3798L71.2212 74.9127C70.6812 74.3728 70.4707 73.5868 70.6686 72.8508L71.9383 68.114C72.1365 67.3781 72.7119 66.8026 73.4477 66.6047L78.1845 65.3349C78.9205 65.1348 79.7064 65.3475 80.2464 65.8875L83.7135 69.3546C84.2535 69.8946 84.464 70.6805 84.2661 71.4165Z" fill="white"/>
</svg>
